<svg xmlns="http://www.w3.org/2000/svg" xmlns:xlink="http://www.w3.org/1999/xlink"><symbol fill="none" viewBox="0 0 306 200" id="ill-1"><path stroke="#9AA3AD" stroke-linecap="round" stroke-linejoin="round" d="M43.71 5.07h6.49c.22 0 .4.19.4.41v81.09h-7.29V5.48a.4.4 0 01.4-.4h0zm9.69 0h6.48c.22 0 .4.19.4.41v81.09H53V5.48a.4.4 0 01.4-.4h0zm19.36 0h6.49c.22 0 .4.19.4.41v81.09h-7.3V5.48a.4.4 0 01.41-.4h0zm19.37 0h6.48c.22 0 .4.19.4.41v81.09h-7.29V5.48a.4.4 0 01.4-.4h0zm19.37 0h6.48c.22 0 .4.19.4.41v81.09h-7.29V5.48a.4.4 0 01.4-.4h0zm19.36 0h6.48c.23 0 .4.19.4.41v81.09h-7.28V5.48a.4.4 0 01.4-.4h0zm19.37 0h6.48c.22 0 .4.19.4.41v81.09h-7.29V5.48a.4.4 0 01.4-.4h0zm-87.15 0h6.48c.23 0 .4.19.4.41v81.09h-7.28V5.48a.4.4 0 01.4-.4h0zm19.36 0h6.49c.22 0 .4.19.4.41v81.09h-7.29V5.48a.4.4 0 01.4-.4h0zm19.37 0h6.48c.23 0 .4.19.4.41v81.09a.4.4 0 01-.4.41h-6.48a.4.4 0 01-.4-.41V5.48a.4.4 0 01.4-.4v0zm19.37 0h6.48c.22 0 .4.19.4.41v81.09h-7.28V5.48a.4.4 0 01.4-.4v0zm19.36 0h6.49c.22 0 .4.19.4.41v81.09h-7.29V5.48a.4.4 0 01.4-.4v0zM184 156.77h25.58a.7.7 0 01.68.7v5.16c0 1.32-1.05 2.4-2.35 2.4H184v-8.26h0z" clip-rule="evenodd"/><path stroke="#9AA3AD" stroke-linecap="round" stroke-linejoin="round" d="M37.61 86.57H184c.48 0 .73.08.9.36l18.91 34.48c.63 1.1.44 1.92.09 2.54l-3.85 6.56c-1.03 1.8-2.28 1.65-3.66 1.65h-6.05c-2.5 0-6.34.19-6.34 8.98v23.89H37.62V86.57h0z" clip-rule="evenodd"/><path stroke="#9AA3AD" stroke-linecap="round" stroke-linejoin="round" d="M43.92 122.25h124.91c1.44 0 2.6 1.2 2.6 2.65v35.23a2.63 2.63 0 01-2.6 2.65H43.93c-1.44 0-2.61-1.2-2.61-2.65V124.9a2.63 2.63 0 012.6-2.65v0z" clip-rule="evenodd"/><path stroke="#9AA3AD" stroke-linecap="round" stroke-linejoin="round" d="M48.36 131.28H95.5a1 1 0 01.98 1v13.3a1 1 0 01-.98 1H48.36a1 1 0 01-.98-1v-13.3a1 1 0 01.98-1v0z" clip-rule="evenodd"/><path stroke="#9AA3AD" stroke-linecap="round" stroke-linejoin="round" d="M164.97 122.25V86.57"/><path stroke="#9AA3AD" stroke-linecap="round" stroke-linejoin="round" d="M299.79 131.03l.26 32.12c.01 1.03-.84 1.87-1.86 1.87h-57.08a1.88 1.88 0 01-1.87-1.87l-.28-34.53.28 1.68c.5 1.53 1.12 2 2.56 2l27.92.07h27.66c.9 0 1.86-.23 2.4-1.34h0z" clip-rule="evenodd"/><path stroke="#9AA3AD" stroke-linecap="round" stroke-linejoin="round" d="M301.87 120.46h-.04c-.38 1.41-1.94 2.47-3.68 2.47h-56.96a3.95 3.95 0 01-3.4-1.8h-.1l1.55 9.17c.5 1.53 1.12 2 2.56 2l27.92.07h27.66c1.07 0 2.21-.33 2.67-2.07l1.82-9.84h0zm-35.64 32.07h17.75c.39 0 .7.3.7.69v9.53a2.4 2.4 0 01-2.38 2.39h-32.15a2.4 2.4 0 01-2.38-2.39v-9.53c0-.38.31-.7.7-.7h17.76z" clip-rule="evenodd"/><path stroke="#9AA3AD" stroke-linecap="round" stroke-linejoin="round" d="M266.23 156.9h17.75c.39 0 .7.32.7.7v5.15a2.4 2.4 0 01-2.38 2.39h-32.15a2.4 2.4 0 01-2.38-2.39v-5.15c0-.38.31-.7.7-.7h17.76zm-23.08-69.97h52.88c2.07 0 3.64 1.49 3.77 3.3l2.12 29.39c.13 1.81-1.7 3.3-3.77 3.3h-56.96c-2.07 0-3.88-1.49-3.76-3.3l1.96-29.38a3.65 3.65 0 013.76-3.31h0z" clip-rule="evenodd"/><path stroke="#9AA3AD" stroke-linecap="round" stroke-linejoin="round" d="M244.4 89.96h50.33c1.9 0 2.33 1.06 2.41 2.36l1.26 19.41c.09 1.3-.44 2.37-2.33 2.37h-53.05c-1.9 0-2.56-1.07-2.47-2.37l1.28-19.4c.08-1.3.67-2.37 2.57-2.37h0z" clip-rule="evenodd"/><path stroke="#9AA3AD" stroke-linecap="round" stroke-linejoin="round" d="M269.74 121.08a2 2 0 100-4 2 2 0 000 4z"/><path stroke="#9AA3AD" stroke-linecap="round" stroke-linejoin="round" d="M247.46 5.68h34.97c1.26 0 2.25.82 2.25 2.91v78.33h-37.22V18.5c0-1.28 1.94-.9 2.09-1.16l-2.1-5.9V5.68h0z" clip-rule="evenodd"/><path stroke="#748890" stroke-width=".5" d="M34.65 3.24h-14.2m14.2 162.68h-14.2m17.25 3.54v14.08m171.4-14.08v14.08"/><path stroke="#748890" d="M35.29 179.64h177.44m-1.53-2.28l-3.51 4.55M39.7 177.36l-3.5 4.55M24.48.95v168.42m2.3-1.46l-4.6-3.33m4.6-159.43l-4.6-3.34"/><path fill="#748890" d="M120.64 191.82c.87 0 1.63.15 2.27.44.65.3 1.15.73 1.5 1.29.36.56.53 1.24.53 2.05 0 .88-.19 1.63-.57 2.27a3.79 3.79 0 01-1.64 1.47c-.72.34-1.57.51-2.57.51-.66 0-1.29-.06-1.86-.18a4.6 4.6 0 01-1.45-.52v-1.4a7.33 7.33 0 003.33.84c.65.01 1.22-.1 1.7-.3.5-.2.88-.52 1.15-.94.27-.43.41-.97.41-1.61 0-.86-.26-1.52-.79-1.98-.52-.47-1.35-.7-2.48-.7a10.13 10.13 0 00-2.27.28l-.73-.49.49-6.03h6.39v1.34h-5.14l-.33 3.88a11.65 11.65 0 012.06-.22zm10.48-5.18c.75 0 1.4.12 1.98.35a2.76 2.76 0 011.84 2.7c0 .53-.12.99-.34 1.38-.23.39-.53.73-.91 1.02-.38.29-.8.54-1.27.77.56.25 1.05.54 1.49.85.44.32.8.7 1.05 1.12.26.43.4.94.4 1.52a3.3 3.3 0 01-.54 1.87c-.34.53-.83.93-1.46 1.2-.62.29-1.36.43-2.2.43-.91 0-1.68-.13-2.32-.4a3.2 3.2 0 01-1.45-1.18 3.38 3.38 0 01-.5-1.86 3 3 0 01.38-1.53c.26-.44.59-.82 1-1.14.42-.31.88-.58 1.37-.8a7.3 7.3 0 01-1.18-.8c-.35-.3-.63-.65-.84-1.04-.2-.4-.31-.88-.31-1.41 0-.65.16-1.2.5-1.65.32-.46.78-.8 1.35-1.04a5.08 5.08 0 011.96-.36zm-2.8 9.78c0 .66.24 1.2.7 1.63.47.42 1.17.63 2.1.63.9 0 1.58-.21 2.07-.63.49-.43.73-.99.73-1.68 0-.43-.11-.8-.34-1.13a3.15 3.15 0 00-.95-.88c-.4-.25-.89-.49-1.44-.7l-.32-.11c-.54.22-1 .47-1.38.74a2.9 2.9 0 00-.86.93c-.2.34-.3.75-.3 1.2zm2.78-8.58c-.69 0-1.25.16-1.7.5-.43.32-.65.8-.65 1.42 0 .45.1.82.32 1.13.21.3.5.57.88.8.36.21.78.41 1.24.6.44-.19.84-.4 1.18-.61.35-.23.62-.5.82-.81.2-.31.3-.69.3-1.12 0-.62-.22-1.1-.66-1.42-.44-.33-1.01-.5-1.73-.5zM5.87 86.11c.88 0 1.64.15 2.28.45.64.3 1.14.72 1.5 1.28.35.56.53 1.25.53 2.05 0 .88-.19 1.64-.57 2.28a3.79 3.79 0 01-1.64 1.46c-.72.34-1.57.51-2.57.51-.67 0-1.29-.06-1.86-.17a4.62 4.62 0 01-1.45-.53v-1.39c.42.26.94.46 1.55.62.61.15 1.2.22 1.78.22.65 0 1.22-.1 1.7-.3.5-.21.88-.53 1.14-.95.28-.43.42-.97.42-1.61a2.5 2.5 0 00-.8-1.98c-.51-.47-1.34-.7-2.47-.7a8.98 8.98 0 00-2.27.28l-.74-.48.5-6.03h6.38v1.33H4.14l-.32 3.88a12.14 12.14 0 012.05-.22zm6.38 2.36c0-.77.05-1.53.15-2.26.12-.74.3-1.43.56-2.06.26-.64.6-1.2 1.05-1.68.45-.48 1-.85 1.66-1.12a6.29 6.29 0 012.4-.42 8.94 8.94 0 011.61.17v1.26a3.61 3.61 0 00-.75-.17 6.58 6.58 0 00-.83-.05c-1.09 0-1.95.23-2.58.7a3.96 3.96 0 00-1.34 1.94c-.28.81-.43 1.72-.47 2.74h.1a3.27 3.27 0 011.7-1.37c.41-.14.88-.2 1.41-.2.75 0 1.4.14 1.96.45.56.3 1 .75 1.3 1.33.31.58.47 1.28.47 2.1a5 5 0 01-.5 2.3c-.32.64-.8 1.14-1.4 1.5-.6.34-1.32.51-2.16.51a3.85 3.85 0 01-3.11-1.43 5.18 5.18 0 01-.9-1.77 8.47 8.47 0 01-.33-2.47zm4.32 4.44c.8 0 1.44-.25 1.92-.76s.72-1.28.72-2.31c0-.85-.22-1.52-.64-2-.43-.5-1.08-.75-1.94-.75-.58 0-1.1.13-1.53.37-.43.24-.77.55-1 .92-.25.37-.37.74-.37 1.12a3.85 3.85 0 00.7 2.29 2.48 2.48 0 002.14 1.13z"/><path stroke="#748890" stroke-width=".5" d="M236.69 168.85v14m66.19-14v14"/><path stroke="#748890" d="M233.92 178.65h71.67m-.88-1.75l-3.65 3.5m-62.54-3.5l-3.66 3.5"/><path fill="#748890" d="M276.04 198.99h-8.42v-1.22l3.44-3.5c.64-.64 1.17-1.21 1.6-1.72.45-.5.78-1 1-1.48.24-.5.35-1.03.35-1.62 0-.72-.21-1.28-.65-1.66-.43-.38-1-.58-1.7-.58a4 4 0 00-1.63.32c-.47.2-.96.5-1.46.9l-.78-.99a6.16 6.16 0 012.4-1.3 5.48 5.48 0 013.52.23c.58.27 1.02.67 1.33 1.17.32.52.47 1.12.47 1.83 0 .67-.13 1.3-.4 1.9a7.77 7.77 0 01-1.13 1.72c-.49.57-1.06 1.18-1.7 1.81l-2.8 2.8v.05h6.56V199zm7.31 0h-1.42v-10l.02-.68.04-.64a7.05 7.05 0 01-1.1.97l-1.46 1.17-.77-.99 3.48-2.68h1.21v12.85z"/></symbol><symbol fill="none" viewBox="0 0 356 208" id="ill-2"><path fill="#748890" d="M51 158.56v6.33H25.63v-5.04l12.96-12.24a14.03 14.03 0 002.78-3.36c.48-.96.72-1.9.72-2.83 0-1.34-.46-2.37-1.4-3.07-.89-.74-2.21-1.1-3.97-1.1-1.48 0-2.8.28-3.99.86a7.44 7.44 0 00-2.97 2.5l-5.67-3.65a13.12 13.12 0 015.43-4.56 17.9 17.9 0 017.92-1.68c2.5 0 4.67.41 6.52 1.25a9.7 9.7 0 014.37 3.45 8.74 8.74 0 011.59 5.23c0 1.83-.39 3.54-1.16 5.14-.76 1.6-2.25 3.42-4.46 5.47l-7.73 7.3h14.45zm17.52 6.9c-2.78 0-5.26-.68-7.44-2.06a14.03 14.03 0 01-5.13-5.95 22.1 22.1 0 01-1.83-9.36c0-3.61.61-6.72 1.83-9.3a13.98 13.98 0 015.13-6 13.62 13.62 0 017.44-2.07c2.79 0 5.27.69 7.44 2.06a13.68 13.68 0 015.1 6c1.24 2.6 1.86 5.7 1.86 9.31 0 3.62-.62 6.74-1.87 9.36a13.72 13.72 0 01-5.09 5.96 13.62 13.62 0 01-7.44 2.06zm0-6.57c2.05 0 3.65-.88 4.8-2.64 1.19-1.76 1.78-4.48 1.78-8.16 0-3.68-.6-6.4-1.78-8.16a5.44 5.44 0 00-4.8-2.64c-2.01 0-3.61.88-4.8 2.64-1.15 1.76-1.72 4.48-1.72 8.16 0 3.68.57 6.4 1.72 8.16a5.51 5.51 0 004.8 2.64zm49.73 6l-5.67-7.92-5.85 7.92h-8.16l9.93-13-9.6-12.82h8.4l5.48 7.53 5.61-7.53h7.97l-9.6 12.62 9.98 13.2h-8.5zm37-33.6v33.6h-7.77v-27.36h-6.72v-6.24h14.5zm30.95 27.27v6.33h-25.4v-5.04l12.96-12.24a14.03 14.03 0 002.79-3.36c.48-.96.72-1.9.72-2.83 0-1.34-.47-2.37-1.4-3.07-.89-.74-2.22-1.1-3.98-1.1-1.47 0-2.8.28-3.98.86a7.44 7.44 0 00-2.98 2.5l-5.66-3.65a13.12 13.12 0 015.42-4.56 17.9 17.9 0 017.92-1.68c2.5 0 4.67.41 6.53 1.25a9.7 9.7 0 014.37 3.45 8.74 8.74 0 011.58 5.23c0 1.83-.38 3.54-1.15 5.14-.77 1.6-2.25 3.42-4.46 5.47l-7.73 7.3h14.45zm17.9-19.35h22.85v5.86H204.1v-5.86zm0 11.9h22.85v5.86H204.1v-5.85zm66.33 7.45v6.33h-25.4v-5.04L258 147.61a14.03 14.03 0 002.78-3.36c.48-.96.72-1.9.72-2.83 0-1.34-.46-2.37-1.39-3.07-.9-.74-2.22-1.1-3.98-1.1-1.47 0-2.8.28-3.99.86a7.44 7.44 0 00-2.97 2.5l-5.67-3.65a13.12 13.12 0 015.43-4.56 17.9 17.9 0 017.92-1.68c2.5 0 4.67.41 6.52 1.25a9.7 9.7 0 014.37 3.45 8.74 8.74 0 011.59 5.23c0 1.83-.39 3.54-1.15 5.14-.77 1.6-2.26 3.42-4.47 5.47l-7.73 7.3h14.45zm33.5-.72h-5.46v7.05h-7.59v-7.05h-18.1v-5.24l15.85-21.3h8.16l-14.7 20.2h9.03v-6.29h7.35v6.3h5.47v6.33zm16.74 7.63c-2.79 0-5.27-.69-7.44-2.06a14.03 14.03 0 01-5.14-5.96 22.1 22.1 0 01-1.82-9.36c0-3.61.6-6.72 1.82-9.3a13.98 13.98 0 015.14-6 13.62 13.62 0 017.44-2.07c2.78 0 5.26.69 7.44 2.06a13.68 13.68 0 015.08 6c1.25 2.6 1.88 5.7 1.88 9.31 0 3.62-.63 6.74-1.88 9.36a13.72 13.72 0 01-5.08 5.96 13.62 13.62 0 01-7.44 2.06zm0-6.58c2.04 0 3.64-.88 4.8-2.64 1.18-1.76 1.77-4.48 1.77-8.16 0-3.68-.6-6.4-1.78-8.16a5.44 5.44 0 00-4.8-2.64c-2.01 0-3.61.88-4.8 2.64-1.15 1.76-1.72 4.48-1.72 8.16 0 3.68.57 6.4 1.73 8.16a5.51 5.51 0 004.8 2.64zM31.5 176.95v7.5h-1.14v-6.52h-3.99v6.51h-1.14v-7.5h6.27zm5.93-.14c.94 0 1.68.32 2.24.97.55.64.83 1.6.83 2.9 0 .85-.13 1.56-.38 2.14a2.88 2.88 0 01-1.08 1.31c-.46.3-1 .45-1.64.45-.4 0-.74-.05-1.04-.16a2.47 2.47 0 01-1.3-1h-.09a164.6 164.6 0 01.08 1.3v3.07h-1.14v-10.84h.94l.15 1.1h.05c.15-.22.33-.43.54-.62.2-.19.46-.34.76-.45.3-.11.67-.17 1.08-.17zm-.2.96c-.52 0-.94.1-1.25.3-.32.2-.55.5-.7.9-.14.4-.22.9-.23 1.5v.22c0 .63.07 1.17.2 1.6.15.44.38.78.7 1 .32.23.75.34 1.3.34.46 0 .85-.12 1.16-.37.3-.25.54-.6.69-1.05.15-.45.23-.97.23-1.55 0-.88-.17-1.59-.52-2.1-.34-.53-.87-.79-1.58-.79zm11.71 2.91c0 .62-.08 1.17-.24 1.65-.16.48-.39.89-.69 1.22a3 3 0 01-1.09.77c-.42.17-.9.26-1.44.26-.5 0-.96-.09-1.38-.26a3.11 3.11 0 01-1.79-2 5.1 5.1 0 01-.24-1.64c0-.82.14-1.52.41-2.09.28-.58.68-1.02 1.2-1.32.51-.3 1.13-.46 1.85-.46.68 0 1.28.16 1.79.46.51.3.91.75 1.2 1.33.28.57.42 1.27.42 2.08zm-5.7 0c0 .6.08 1.13.24 1.57.16.44.4.78.74 1.02.33.24.76.36 1.28.36s.95-.12 1.28-.36c.34-.24.59-.58.75-1.02.16-.44.24-.97.24-1.57 0-.6-.08-1.11-.24-1.54-.16-.44-.4-.78-.74-1.01a2.18 2.18 0 00-1.3-.36c-.77 0-1.34.26-1.7.77a3.69 3.69 0 00-.55 2.14zm7.28-.74c0-1.06.1-1.97.3-2.72.2-.76.53-1.37.95-1.82.44-.46 1-.78 1.67-.95a40.74 40.74 0 013.53-.72l.2 1a29.21 29.21 0 00-1.84.31 17.1 17.1 0 00-1.63.36c-.39.1-.72.3-1 .55-.28.26-.5.62-.67 1.07a6.15 6.15 0 00-.28 1.73h.08a2.94 2.94 0 011.4-1.08c.33-.13.7-.2 1.11-.2.65 0 1.2.14 1.62.42.44.28.76.67.98 1.18.22.5.33 1.1.33 1.78 0 .81-.14 1.5-.42 2.05-.28.56-.67.98-1.18 1.26-.5.28-1.1.42-1.78.42-.53 0-1-.1-1.43-.3a3.28 3.28 0 01-1.06-.91c-.28-.4-.5-.88-.66-1.46a7.8 7.8 0 01-.22-1.97zm3.45 3.7c.44 0 .8-.1 1.12-.28.31-.18.55-.47.72-.86.18-.4.26-.91.26-1.54 0-.8-.15-1.42-.45-1.86-.3-.45-.79-.68-1.45-.68-.42 0-.8.09-1.13.27a3.19 3.19 0 00-1.36 1.27c0 .46.03.91.1 1.35.07.44.19.83.36 1.18.16.35.4.63.7.84.3.2.67.3 1.13.3zm6.34-6.7v4.72a12.09 12.09 0 01-.05 1.28l-.02.36 4.08-6.35h1.4v7.5h-1.06v-4.6a29.57 29.57 0 01.05-1.75l-4.08 6.34h-1.4v-7.5h1.08zm11.34-.13c.94 0 1.68.32 2.24.97.55.64.83 1.6.83 2.9 0 .85-.13 1.56-.38 2.14a2.88 2.88 0 01-1.08 1.31c-.46.3-1 .45-1.64.45-.4 0-.74-.05-1.04-.16a2.47 2.47 0 01-1.3-1h-.09a164.6 164.6 0 01.08 1.3v3.07h-1.14v-10.84h.94l.15 1.1h.05c.15-.22.33-.43.54-.62.2-.19.46-.34.76-.45.3-.11.67-.17 1.08-.17zm-.2.96c-.52 0-.93.1-1.25.3-.32.2-.55.5-.7.9-.14.4-.22.9-.23 1.5v.22c0 .63.07 1.17.2 1.6.15.44.38.78.7 1 .32.23.76.34 1.3.34.46 0 .85-.12 1.16-.37.31-.25.54-.6.69-1.05.16-.45.23-.97.23-1.55 0-.88-.17-1.59-.52-2.1-.34-.53-.86-.79-1.58-.79zm11.71 2.91c0 .62-.08 1.17-.24 1.65-.15.48-.38.89-.69 1.22a3 3 0 01-1.09.77c-.42.17-.9.26-1.44.26-.5 0-.96-.09-1.38-.26a3.11 3.11 0 01-1.79-2 5.1 5.1 0 01-.24-1.64c0-.82.14-1.52.41-2.09.28-.58.68-1.02 1.2-1.32.51-.3 1.13-.46 1.85-.46.68 0 1.28.16 1.79.46.51.3.91.75 1.2 1.33.28.57.42 1.27.42 2.08zm-5.7 0c0 .6.08 1.13.24 1.57.16.44.4.78.74 1.02.33.24.76.36 1.29.36.52 0 .94-.12 1.27-.36.34-.24.59-.58.75-1.02.16-.44.24-.97.24-1.57 0-.6-.08-1.11-.24-1.54-.16-.44-.4-.78-.74-1.01a2.18 2.18 0 00-1.3-.36c-.77 0-1.34.26-1.7.77a3.69 3.69 0 00-.55 2.14zm12.03-3.73h1.26l-3.24 3.62 3.5 3.87h-1.34l-3.4-3.8v3.8h-1.14v-7.5h1.14v3.65l3.22-3.64zm46.98 1.93h1.25l-3.23 3.61 3.49 3.88h-1.33l-3.4-3.8v3.8h-1.15v-7.5h1.14v3.64l3.23-3.63zm9.32 3.73c0 .61-.08 1.16-.24 1.64-.16.49-.39.9-.69 1.23-.3.33-.66.59-1.1.76-.41.18-.9.26-1.43.26a3.14 3.14 0 01-3.16-2.25 5.11 5.11 0 01-.25-1.64c0-.82.13-1.52.41-2.1.28-.57.68-1.01 1.2-1.31a3.6 3.6 0 011.84-.46c.69 0 1.28.15 1.8.46.51.3.9.74 1.2 1.32.28.58.42 1.27.42 2.09zm-5.7 0c0 .6.08 1.12.24 1.56.16.45.4.79.74 1.03.33.24.76.36 1.28.36s.95-.12 1.28-.36c.34-.24.59-.58.75-1.03.16-.44.24-.96.24-1.56 0-.6-.08-1.12-.24-1.55-.16-.44-.4-.77-.74-1a2.18 2.18 0 00-1.3-.37c-.77 0-1.34.26-1.7.78a3.69 3.69 0 00-.55 2.14zm8.8-3.74v3.15h4.18v-3.15h1.14v7.5h-1.14v-3.39h-4.17v3.39h-1.15v-7.5h1.15zm12.83.97h-2.47v6.53h-1.12v-6.53h-2.43v-.97h6.02v.97zm4.37-1.1a2.74 2.74 0 012.69 1.61c.24.5.36 1.1.36 1.78v.7h-5.18c.02.88.23 1.55.66 2.01.42.46 1.02.7 1.79.7a5.45 5.45 0 002.4-.52v1a5.58 5.58 0 01-2.45.48c-.72 0-1.35-.14-1.89-.43-.53-.3-.94-.73-1.24-1.3a4.5 4.5 0 01-.44-2.1 5 5 0 01.4-2.09c.27-.59.66-1.04 1.15-1.36.5-.32 1.08-.48 1.75-.48zm-.02.93c-.6 0-1.08.2-1.44.6-.37.39-.58.94-.65 1.65h3.97c0-.44-.08-.83-.21-1.17-.14-.34-.34-.6-.61-.8a1.8 1.8 0 00-1.06-.28zm6.08-.8v4.72a14.13 14.13 0 01-.06 1.27l-.02.37 4.09-6.35h1.4v7.49h-1.07v-4.6a26.06 26.06 0 01.03-1.23l.02-.52-4.07 6.35h-1.4v-7.5h1.08zm4.84-3.08c-.04.46-.16.85-.35 1.16-.18.3-.46.54-.82.7a3.6 3.6 0 01-1.4.23c-.6 0-1.07-.07-1.43-.22a1.61 1.61 0 01-.8-.7c-.16-.3-.26-.7-.3-1.17h1.08c.04.5.18.84.4 1.03.22.18.57.27 1.06.27.44 0 .79-.1 1.04-.29.25-.19.4-.53.45-1h1.07zm4.12 3.09v3.14h4.17v-3.15h1.14v7.5h-1.14v-3.39h-4.17v3.39h-1.15v-7.5h1.15zm10.6-.14a2.75 2.75 0 012.69 1.61c.24.5.36 1.1.36 1.78v.7h-5.18c.02.88.23 1.55.66 2.01.42.46 1.02.7 1.79.7a5.45 5.45 0 002.4-.52v1a5.58 5.58 0 01-2.45.48c-.72 0-1.35-.14-1.88-.43-.54-.3-.95-.73-1.25-1.3a4.48 4.48 0 01-.44-2.1 5 5 0 01.4-2.09c.27-.59.66-1.04 1.15-1.36.5-.32 1.08-.48 1.75-.48zm-.02.93c-.6 0-1.08.2-1.44.6-.36.39-.58.94-.65 1.65h3.97c0-.44-.08-.83-.21-1.17-.14-.34-.34-.6-.61-.8a1.8 1.8 0 00-1.06-.28zm8.52-.93c.93 0 1.67.32 2.23.96.56.65.84 1.61.84 2.9 0 .85-.13 1.57-.39 2.15a2.9 2.9 0 01-1.08 1.31c-.46.3-1 .44-1.63.44-.4 0-.75-.05-1.05-.15a2.48 2.48 0 01-1.3-1h-.09a99.46 99.46 0 01.09 1.3v3.07h-1.14v-10.84h.93l.15 1.1h.06c.14-.22.32-.43.53-.62.21-.2.46-.34.77-.45.3-.12.66-.17 1.08-.17zm-.2.95c-.52 0-.94.1-1.26.3-.31.2-.54.5-.69.9-.15.4-.22.9-.23 1.5v.22c0 .64.07 1.17.2 1.61.14.44.37.77.7 1 .32.23.75.34 1.3.34.46 0 .84-.13 1.15-.38.31-.25.54-.6.7-1.04.15-.45.23-.97.23-1.55 0-.89-.18-1.59-.52-2.1-.34-.53-.87-.8-1.58-.8zm11.7 2.92c0 .61-.07 1.16-.23 1.64-.16.49-.4.9-.7 1.23-.3.33-.66.59-1.09.76-.42.18-.9.26-1.44.26a3.12 3.12 0 01-3.17-2.25 5.11 5.11 0 01-.24-1.64c0-.82.14-1.52.42-2.1.28-.57.67-1.01 1.19-1.31a3.6 3.6 0 011.85-.46c.68 0 1.28.15 1.8.46.5.3.9.74 1.19 1.32.28.58.43 1.27.43 2.09zm-5.7 0c0 .6.09 1.12.25 1.56.16.45.4.79.73 1.03.34.24.76.36 1.29.36.52 0 .94-.12 1.28-.36.34-.24.58-.58.74-1.03.16-.44.24-.96.24-1.56 0-.6-.08-1.12-.24-1.55-.16-.44-.4-.77-.74-1a2.17 2.17 0 00-1.29-.37c-.78 0-1.35.26-1.71.78a3.69 3.69 0 00-.54 2.14zm13.62-1.86c0 .47-.13.84-.4 1.1-.28.27-.63.44-1.07.53v.06c.47.06.88.23 1.21.5.35.27.52.68.52 1.24 0 .43-.1.8-.31 1.13-.2.33-.53.59-.97.78-.43.18-1 .28-1.7.28h-3.23v-7.5h3.2c.54 0 1.01.07 1.42.19.41.12.74.31.98.59.23.27.35.64.35 1.1zm-.93 3.43c0-.44-.16-.76-.5-.96a2.9 2.9 0 00-1.46-.3h-1.92v2.52h1.95c.63 0 1.1-.1 1.44-.28.33-.2.5-.53.5-.98zm-.22-3.3c0-.35-.13-.62-.4-.79-.25-.18-.68-.27-1.27-.27h-1.99v2.16h1.8a2.9 2.9 0 001.39-.27.89.89 0 00.47-.83z"/><path stroke="#9AA3AD" d="M17.67 17.48l8.4 2.4-10.58 37.89a4.33 4.33 0 01-5.37 3 4.4 4.4 0 01-3.02-5.4l10.57-37.89z"/><rect width="11.5" height="11.62" fill="#748890" rx="1" transform="matrix(.9614 .27513 -.26881 .9632 19.36 6.29)"/><rect width="7.96" height="1.79" fill="#748890" rx=".89" transform="matrix(.9614 .27513 -.26881 .9632 21.3 5.91)"/><path stroke="#9AA3AD" d="M85.7 21.06l8.4 2.4-10.58 37.89a4.33 4.33 0 01-5.36 3 4.4 4.4 0 01-3.03-5.4l10.58-37.89z"/><rect width="11.5" height="11.62" fill="#748890" rx="1" transform="matrix(.9614 .27513 -.26881 .9632 87.4 9.87)"/><rect width="7.96" height="1.79" fill="#748890" rx=".89" transform="matrix(.9614 .27513 -.26881 .9632 89.33 9.5)"/><path stroke="#9AA3AD" d="M152.86 25.53l8.39 2.4-10.57 37.89a4.33 4.33 0 01-5.37 3 4.4 4.4 0 01-3.03-5.4l10.58-37.89z"/><rect width="11.5" height="11.62" fill="#748890" rx="1" transform="matrix(.9614 .27513 -.26881 .9632 154.54 14.34)"/><rect width="7.96" height="1.79" fill="#748890" rx=".89" transform="matrix(.9614 .27513 -.26881 .9632 156.48 13.97)"/><path stroke="#9AA3AD" d="M220.89 31.8l8.4 2.4-10.58 37.88a4.33 4.33 0 01-5.37 3 4.4 4.4 0 01-3.02-5.4l10.57-37.88z"/><rect width="11.5" height="11.62" fill="#748890" rx="1" transform="matrix(.9614 .27513 -.26881 .9632 222.58 20.6)"/><rect width="7.96" height="1.79" fill="#748890" rx=".89" transform="matrix(.9614 .27513 -.26881 .9632 224.52 20.23)"/><path stroke="#9AA3AD" d="M288.92 36.27l8.4 2.4-10.58 37.89a4.33 4.33 0 01-5.37 3 4.4 4.4 0 01-3.02-5.4l10.57-37.89z"/><rect width="11.5" height="11.62" fill="#748890" rx="1" transform="matrix(.9614 .27513 -.26881 .9632 290.61 25.08)"/><rect width="7.96" height="1.79" fill="#748890" rx=".89" transform="matrix(.9614 .27513 -.26881 .9632 292.55 24.7)"/><path stroke="#9AA3AD" d="M34.46 19.27l8.4 2.4-10.58 37.89a4.33 4.33 0 01-5.37 3 4.4 4.4 0 01-3.02-5.4l10.57-37.89z"/><rect width="11.5" height="11.62" fill="#748890" rx="1" transform="matrix(.9614 .27513 -.26881 .9632 36.15 8.08)"/><rect width="7.96" height="1.79" fill="#748890" rx=".89" transform="matrix(.9614 .27513 -.26881 .9632 38.09 7.7)"/><path stroke="#9AA3AD" d="M102.5 21.96l8.38 2.4-10.57 37.88a4.33 4.33 0 01-5.37 3 4.4 4.4 0 01-3.02-5.4l10.57-37.88z"/><rect width="11.5" height="11.62" fill="#748890" rx="1" transform="matrix(.9614 .27513 -.26881 .9632 104.18 10.76)"/><rect width="7.96" height="1.79" fill="#748890" rx=".89" transform="matrix(.9614 .27513 -.26881 .9632 106.12 10.39)"/><path stroke="#9AA3AD" d="M169.64 28.22l8.4 2.4-10.58 37.88a4.33 4.33 0 01-5.37 3 4.4 4.4 0 01-3.02-5.4l10.57-37.88z"/><rect width="11.5" height="11.62" fill="#748890" rx="1" transform="matrix(.9614 .27513 -.26881 .9632 171.33 17.02)"/><rect width="7.96" height="1.79" fill="#748890" rx=".89" transform="matrix(.9614 .27513 -.26881 .9632 173.27 16.65)"/><path stroke="#9AA3AD" d="M237.68 32.7l8.39 2.4-10.57 37.88a4.33 4.33 0 01-5.37 3 4.4 4.4 0 01-3.03-5.4l10.58-37.89z"/><rect width="11.5" height="11.62" fill="#748890" rx="1" transform="matrix(.9614 .27513 -.26881 .9632 239.36 21.5)"/><rect width="7.96" height="1.79" fill="#748890" rx=".89" transform="matrix(.9614 .27513 -.26881 .9632 241.3 21.12)"/><path stroke="#9AA3AD" d="M305.71 36.27l8.4 2.4-10.58 37.88a4.33 4.33 0 01-5.37 3 4.4 4.4 0 01-3.02-5.4l10.57-37.88z"/><rect width="11.5" height="11.62" fill="#748890" rx="1" transform="matrix(.9614 .27513 -.26881 .9632 307.4 25.08)"/><rect width="7.96" height="1.79" fill="#748890" rx=".89" transform="matrix(.9614 .27513 -.26881 .9632 309.34 24.7)"/><path stroke="#9AA3AD" d="M51.25 19.27l8.39 2.4-10.57 37.89a4.33 4.33 0 01-5.37 3 4.4 4.4 0 01-3.03-5.4l10.58-37.89z"/><rect width="11.5" height="11.62" fill="#748890" rx="1" transform="matrix(.9614 .27513 -.26881 .9632 52.93 8.08)"/><rect width="7.96" height="1.79" fill="#748890" rx=".89" transform="matrix(.9614 .27513 -.26881 .9632 54.87 7.7)"/><path stroke="#9AA3AD" d="M119.28 22.85l8.4 2.4-10.58 37.89a4.33 4.33 0 01-5.37 3 4.4 4.4 0 01-3.02-5.4l10.57-37.89z"/><rect width="11.5" height="11.62" fill="#748890" rx="1" transform="matrix(.9614 .27513 -.26881 .9632 120.97 11.66)"/><rect width="7.96" height="1.79" fill="#748890" rx=".89" transform="matrix(.9614 .27513 -.26881 .9632 122.9 11.28)"/><path stroke="#9AA3AD" d="M186.43 29.11l8.4 2.4-10.58 37.89a4.33 4.33 0 01-5.37 3 4.4 4.4 0 01-3.02-5.4l10.57-37.89z"/><rect width="11.5" height="11.62" fill="#748890" rx="1" transform="matrix(.9614 .27513 -.26881 .9632 188.12 17.92)"/><rect width="7.96" height="1.79" fill="#748890" rx=".89" transform="matrix(.9614 .27513 -.26881 .9632 190.06 17.54)"/><path stroke="#9AA3AD" d="M254.46 34.48l8.4 2.4-10.58 37.89a4.33 4.33 0 01-5.37 3 4.4 4.4 0 01-3.02-5.4l10.57-37.89z"/><rect width="11.5" height="11.62" fill="#748890" rx="1" transform="matrix(.9614 .27513 -.26881 .9632 256.15 23.29)"/><rect width="7.96" height="1.79" fill="#748890" rx=".89" transform="matrix(.9614 .27513 -.26881 .9632 258.09 22.91)"/><path stroke="#9AA3AD" d="M322.5 36.27l8.4 2.4-10.58 37.89a4.33 4.33 0 01-5.37 3 4.4 4.4 0 01-3.02-5.4l10.57-37.89z"/><rect width="11.5" height="11.62" fill="#748890" rx="1" transform="matrix(.9614 .27513 -.26881 .9632 324.19 25.07)"/><rect width="7.96" height="1.79" fill="#748890" rx=".89" transform="matrix(.9614 .27513 -.26881 .9632 326.13 24.7)"/><path stroke="#9AA3AD" d="M68.03 20.17l8.4 2.4-10.58 37.88a4.33 4.33 0 01-5.37 3 4.4 4.4 0 01-3.02-5.4l10.57-37.88z"/><rect width="11.5" height="11.62" fill="#748890" rx="1" transform="matrix(.9614 .27513 -.26881 .9632 69.72 8.97)"/><rect width="7.96" height="1.79" fill="#748890" rx=".89" transform="matrix(.9614 .27513 -.26881 .9632 71.66 8.6)"/><path stroke="#9AA3AD" d="M136.07 23.75l8.4 2.4-10.58 37.88a4.33 4.33 0 01-5.37 3 4.4 4.4 0 01-3.02-5.4l10.57-37.88z"/><rect width="11.5" height="11.62" fill="#748890" rx="1" transform="matrix(.9614 .27513 -.26881 .9632 137.76 12.55)"/><rect width="7.96" height="1.79" fill="#748890" rx=".89" transform="matrix(.9614 .27513 -.26881 .9632 139.7 12.18)"/><path stroke="#9AA3AD" d="M203.22 30l8.39 2.41-10.57 37.88a4.33 4.33 0 01-5.37 3 4.4 4.4 0 01-3.02-5.4l10.57-37.88z"/><rect width="11.5" height="11.62" fill="#748890" rx="1" transform="matrix(.9614 .27513 -.26881 .9632 204.9 18.81)"/><rect width="7.96" height="1.79" fill="#748890" rx=".89" transform="matrix(.9614 .27513 -.26881 .9632 206.84 18.44)"/><path stroke="#9AA3AD" d="M271.25 35.38l8.4 2.4-10.58 37.88a4.33 4.33 0 01-5.37 3 4.4 4.4 0 01-3.02-5.4l10.57-37.88z"/><rect width="11.5" height="11.62" fill="#748890" rx="1" transform="matrix(.9614 .27513 -.26881 .9632 272.94 24.18)"/><rect width="7.96" height="1.79" fill="#748890" rx=".89" transform="matrix(.9614 .27513 -.26881 .9632 274.88 23.8)"/><path stroke="#9AA3AD" d="M339.29 35.38l8.39 2.4-10.57 37.88a4.33 4.33 0 01-5.37 3 4.4 4.4 0 01-3.03-5.4l10.58-37.88z"/><rect width="11.5" height="11.62" fill="#748890" rx="1" transform="matrix(.9614 .27513 -.26881 .9632 340.97 24.18)"/><rect width="7.96" height="1.79" fill="#748890" rx=".89" transform="matrix(.9614 .27513 -.26881 .9632 342.91 23.8)"/><path stroke="#9AA3AD" stroke-linecap="round" stroke-linejoin="round" d="M.93 89.53V6.31C.93 3.32 2.95.95 8.16.95h347.07v88.58H32.73c-3.18 0-2.25-4.63-2.89-4.98L15.2 89.53H.93h0z" clip-rule="evenodd"/><path stroke="#9AA3AD" stroke-linecap="round" stroke-linejoin="round" d="M.93 79.9V12.06c0-2.44 2.02-4.37 7.23-4.37h347.07V79.9H32.73c-3.18 0-2.25-3.77-2.89-4.06L15.2 79.9H.93h0z" clip-rule="evenodd"/><path stroke="#9AA3AD" stroke-linecap="round" stroke-linejoin="round" d="M250.29 79.9L.93 63.53m354.3-40.43L124.16 7.7"/></symbol><symbol fill="none" viewBox="0 0 280 90" id="ill-3"><path stroke="#8A96A5" stroke-linecap="round" stroke-miterlimit="22.93" stroke-width="2" d="M64.23 42.75h53.36l-3.28 40.86c-.34 2.93-2.42 5.34-5.35 5.34H72.34c-2.93 0-5-2.41-5.35-5.34l-2.76-40.86v0zm-1.9-20.08h58.98c1.55 0 2.76 1.38 2.76 3.01v13.97c0 1.72-1.2 3.1-2.76 3.1H62.33c-1.56 0-2.77-1.38-2.77-3.1V25.68c0-1.63 1.21-3.01 2.77-3.01v0z" clip-rule="evenodd"/><path stroke="#8A96A5" stroke-linecap="round" stroke-miterlimit="22.93" stroke-width="2" d="M66.99 28.53v7.41m8.03-7.41v7.41m8.12-7.41v7.41m8.03-7.41v7.41m8.03-7.41v7.41m8.12-7.41v7.41m8.03-7.41v7.41"/><path stroke="#8A96A5" stroke-linecap="round" stroke-miterlimit="22.93" stroke-width="2" d="M9.51 52.77h14.5v16.96L20.85 83.3c-.26 2.05-1.67 3.78-3.72 3.78h-.45c-2.05 0-3.53-1.67-3.78-3.78L9.57 69.86l-.06-17.09v0z" clip-rule="evenodd"/><path stroke="#8A96A5" stroke-linecap="round" stroke-miterlimit="22.93" stroke-width="2" d="M4.38 49.77C1.3 47.9.28 42.34 6.37 40.74l22.31-4.86"/><path stroke="#8A96A5" stroke-linecap="round" stroke-miterlimit="22.93" stroke-width="2" d="M26.31 47.85H7.21a2.4 2.4 0 00-2.38 2.43v.06a2.4 2.4 0 002.37 2.43h19.11a2.4 2.4 0 002.37-2.43v-.06a2.4 2.4 0 00-2.37-2.43zm-1.21-9.92c.18.96-.4 1.92-1.36 2.1l-13.2 2.63c-.97.2-1.93-.38-2.12-1.34"/><rect width="46" height="87" x="232.93" y="1.95" stroke="#8A96A5" stroke-width="2" rx="2"/><path stroke="#8A96A5" stroke-linecap="round" stroke-miterlimit="22.93" stroke-width="2" d="M152.75 21.93h37.56c1.01 0 1.75 1.02 1.75 2.3v10.78c0 1.3-.74 2.4-1.75 2.4h-37.56c-.92 0-1.75-1.1-1.75-2.4V24.23c0-1.28.83-2.3 1.75-2.3v0z" clip-rule="evenodd"/><path stroke="#8A96A5" stroke-linecap="round" stroke-miterlimit="22.93" stroke-width="2" d="M156.72 27v4.6m6.18-4.6v4.6m6.18-4.6v4.6m6.19-4.6v4.6m6.18-4.6v4.6m6.18-4.6v4.6"/><path stroke="#8A96A5" stroke-linecap="round" stroke-miterlimit="22.93" stroke-width="2" d="M154.41 37.4h34.33v42.47c0 4.6-3.88 8.47-8.5 8.47H162.9a8.52 8.52 0 01-8.49-8.47V37.4v0z" clip-rule="evenodd"/><path stroke="#8A96A5" stroke-linecap="round" stroke-miterlimit="22.93" stroke-width="2" d="M192.52 36.49H151.1c-.66 0-1.2.5-1.2 1.1v.1c0 .6.54 1.1 1.2 1.1h41.43c.66 0 1.2-.5 1.2-1.1v-.1c0-.6-.54-1.1-1.2-1.1z"/><path stroke="#8A96A5" stroke-linecap="round" stroke-miterlimit="22.93" stroke-width="2" d="M168.34 37.87h6.93c1.47 0 2.76 1.2 2.76 2.76v29.01c0 3.41-2.76 6.27-6.27 6.27a6.26 6.26 0 01-6.18-6.27V40.63c0-1.57 1.29-2.76 2.76-2.76z" clip-rule="evenodd"/><path fill="#8A96A5" d="M171.76 72.5c1.99 0 3.6-2.23 3.6-4.97 0-2.75-1.61-4.98-3.6-4.98s-3.6 2.23-3.6 4.98c0 2.74 1.61 4.97 3.6 4.97z"/></symbol></svg>