<svg fill="none" viewBox="0 0 356 208">
  <path fill="#748890" d="M51 158.56v6.33H25.63v-5.04l12.96-12.24a14.03 14.03 0 0 0 2.78-3.36c.48-.96.72-1.9.72-2.83 0-1.34-.46-2.37-1.4-3.07-.89-.74-2.21-1.1-3.97-1.1-1.48 0-2.8.28-3.99.86a7.44 7.44 0 0 0-2.97 2.5l-5.67-3.65a13.12 13.12 0 0 1 5.43-4.56 17.9 17.9 0 0 1 7.92-1.68c2.5 0 4.67.41 6.52 1.25a9.7 9.7 0 0 1 4.37 3.45 8.74 8.74 0 0 1 1.59 5.23c0 1.83-.39 3.54-1.16 5.14-.76 1.6-2.25 3.42-4.46 5.47l-7.73 7.3h14.45Zm17.52 6.9c-2.78 0-5.26-.68-7.44-2.06a14.03 14.03 0 0 1-5.13-5.95 22.1 22.1 0 0 1-1.83-9.36c0-3.61.61-6.72 1.83-9.3a13.98 13.98 0 0 1 5.13-6 13.62 13.62 0 0 1 7.44-2.07c2.79 0 5.27.69 7.44 2.06a13.68 13.68 0 0 1 5.1 6c1.24 2.6 1.86 5.7 1.86 9.31 0 3.62-.62 6.74-1.87 9.36a13.72 13.72 0 0 1-5.09 5.96 13.62 13.62 0 0 1-7.44 2.06Zm0-6.57c2.05 0 3.65-.88 4.8-2.64 1.19-1.76 1.78-4.48 1.78-8.16 0-3.68-.6-6.4-1.78-8.16a5.44 5.44 0 0 0-4.8-2.64c-2.01 0-3.61.88-4.8 2.64-1.15 1.76-1.72 4.48-1.72 8.16 0 3.68.57 6.4 1.72 8.16a5.51 5.51 0 0 0 4.8 2.64Zm49.73 6-5.67-7.92-5.85 7.92h-8.16l9.93-13-9.6-12.82h8.4l5.48 7.53 5.61-7.53h7.97l-9.6 12.62 9.98 13.2h-8.5Zm37-33.6v33.6h-7.77v-27.36h-6.72v-6.24h14.5Zm30.95 27.27v6.33h-25.4v-5.04l12.96-12.24a14.03 14.03 0 0 0 2.79-3.36c.48-.96.72-1.9.72-2.83 0-1.34-.47-2.37-1.4-3.07-.89-.74-2.22-1.1-3.98-1.1-1.47 0-2.8.28-3.98.86a7.44 7.44 0 0 0-2.98 2.5l-5.66-3.65a13.12 13.12 0 0 1 5.42-4.56 17.9 17.9 0 0 1 7.92-1.68c2.5 0 4.67.41 6.53 1.25a9.7 9.7 0 0 1 4.37 3.45 8.74 8.74 0 0 1 1.58 5.23c0 1.83-.38 3.54-1.15 5.14-.77 1.6-2.25 3.42-4.46 5.47l-7.73 7.3h14.45Zm17.9-19.35h22.85v5.86H204.1v-5.86Zm0 11.9h22.85v5.86H204.1v-5.85Zm66.33 7.45v6.33h-25.4v-5.04L258 147.61a14.03 14.03 0 0 0 2.78-3.36c.48-.96.72-1.9.72-2.83 0-1.34-.46-2.37-1.39-3.07-.9-.74-2.22-1.1-3.98-1.1-1.47 0-2.8.28-3.99.86a7.44 7.44 0 0 0-2.97 2.5l-5.67-3.65a13.12 13.12 0 0 1 5.43-4.56 17.9 17.9 0 0 1 7.92-1.68c2.5 0 4.67.41 6.52 1.25a9.7 9.7 0 0 1 4.37 3.45 8.74 8.74 0 0 1 1.59 5.23c0 1.83-.39 3.54-1.15 5.14-.77 1.6-2.26 3.42-4.47 5.47l-7.73 7.3h14.45Zm33.5-.72h-5.46v7.05h-7.59v-7.05h-18.1v-5.24l15.85-21.3h8.16l-14.7 20.2h9.03v-6.29h7.35v6.3h5.47v6.33Zm16.74 7.63c-2.79 0-5.27-.69-7.44-2.06a14.03 14.03 0 0 1-5.14-5.96 22.1 22.1 0 0 1-1.82-9.36c0-3.61.6-6.72 1.82-9.3a13.98 13.98 0 0 1 5.14-6 13.62 13.62 0 0 1 7.44-2.07c2.78 0 5.26.69 7.44 2.06a13.68 13.68 0 0 1 5.08 6c1.25 2.6 1.88 5.7 1.88 9.31 0 3.62-.63 6.74-1.88 9.36a13.72 13.72 0 0 1-5.08 5.96 13.62 13.62 0 0 1-7.44 2.06Zm0-6.58c2.04 0 3.64-.88 4.8-2.64 1.18-1.76 1.77-4.48 1.77-8.16 0-3.68-.6-6.4-1.78-8.16a5.44 5.44 0 0 0-4.8-2.64c-2.01 0-3.61.88-4.8 2.64-1.15 1.76-1.72 4.48-1.72 8.16 0 3.68.57 6.4 1.73 8.16a5.51 5.51 0 0 0 4.8 2.64ZM31.5 176.95v7.5h-1.14v-6.52h-3.99v6.51h-1.14v-7.5h6.27Zm5.93-.14c.94 0 1.68.32 2.24.97.55.64.83 1.6.83 2.9 0 .85-.13 1.56-.38 2.14a2.88 2.88 0 0 1-1.08 1.31c-.46.3-1 .45-1.64.45-.4 0-.74-.05-1.04-.16a2.47 2.47 0 0 1-1.3-1h-.09a164.6 164.6 0 0 1 .08 1.3v3.07h-1.14v-10.84h.94l.15 1.1h.05c.15-.22.33-.43.54-.62.2-.19.46-.34.76-.45.3-.11.67-.17 1.08-.17Zm-.2.96c-.52 0-.94.1-1.25.3-.32.2-.55.5-.7.9-.14.4-.22.9-.23 1.5v.22c0 .63.07 1.17.2 1.6.15.44.38.78.7 1 .32.23.75.34 1.3.34.46 0 .85-.12 1.16-.37.3-.25.54-.6.69-1.05.15-.45.23-.97.23-1.55 0-.88-.17-1.59-.52-2.1-.34-.53-.87-.79-1.58-.79Zm11.71 2.91c0 .62-.08 1.17-.24 1.65-.16.48-.39.89-.69 1.22a3 3 0 0 1-1.09.77c-.42.17-.9.26-1.44.26-.5 0-.96-.09-1.38-.26a3.11 3.11 0 0 1-1.79-2 5.1 5.1 0 0 1-.24-1.64c0-.82.14-1.52.41-2.09.28-.58.68-1.02 1.2-1.32.51-.3 1.13-.46 1.85-.46.68 0 1.28.16 1.79.46.51.3.91.75 1.2 1.33.28.57.42 1.27.42 2.08Zm-5.7 0c0 .6.08 1.13.24 1.57.16.44.4.78.74 1.02.33.24.76.36 1.28.36s.95-.12 1.28-.36c.34-.24.59-.58.75-1.02.16-.44.24-.97.24-1.57 0-.6-.08-1.11-.24-1.54-.16-.44-.4-.78-.74-1.01a2.18 2.18 0 0 0-1.3-.36c-.77 0-1.34.26-1.7.77a3.69 3.69 0 0 0-.55 2.14Zm7.28-.74c0-1.06.1-1.97.3-2.72.2-.76.53-1.37.95-1.82.44-.46 1-.78 1.67-.95a40.74 40.74 0 0 1 3.53-.72l.2 1a29.21 29.21 0 0 0-1.84.31 17.1 17.1 0 0 0-1.63.36c-.39.1-.72.3-1 .55-.28.26-.5.62-.67 1.07a6.15 6.15 0 0 0-.28 1.73h.08a2.94 2.94 0 0 1 1.4-1.08c.33-.13.7-.2 1.11-.2.65 0 1.2.14 1.62.42.44.28.76.67.98 1.18.22.5.33 1.1.33 1.78 0 .81-.14 1.5-.42 2.05-.28.56-.67.98-1.18 1.26-.5.28-1.1.42-1.78.42-.53 0-1-.1-1.43-.3-.41-.22-.76-.52-1.06-.91-.28-.4-.5-.88-.66-1.46a7.8 7.8 0 0 1-.22-1.97Zm3.45 3.7c.44 0 .8-.1 1.12-.28.31-.18.55-.47.72-.86.18-.4.26-.91.26-1.54 0-.8-.15-1.42-.45-1.86-.3-.45-.79-.68-1.45-.68-.42 0-.8.09-1.13.27a3.19 3.19 0 0 0-1.36 1.27c0 .46.03.91.1 1.35.07.44.19.83.36 1.18.16.35.4.63.7.84.3.2.67.3 1.13.3Zm6.34-6.7v4.72a12.09 12.09 0 0 1-.05 1.28l-.02.36 4.08-6.35h1.4v7.5h-1.06v-4.6a29.57 29.57 0 0 1 .05-1.75l-4.08 6.34h-1.4v-7.5h1.08Zm11.34-.13c.94 0 1.68.32 2.24.97.55.64.83 1.6.83 2.9 0 .85-.13 1.56-.38 2.14a2.88 2.88 0 0 1-1.08 1.31c-.46.3-1 .45-1.64.45-.4 0-.74-.05-1.04-.16a2.47 2.47 0 0 1-1.3-1h-.09a164.6 164.6 0 0 1 .08 1.3v3.07h-1.14v-10.84h.94l.15 1.1h.05c.15-.22.33-.43.54-.62.2-.19.46-.34.76-.45.3-.11.67-.17 1.08-.17Zm-.2.96c-.52 0-.93.1-1.25.3-.32.2-.55.5-.7.9-.14.4-.22.9-.23 1.5v.22c0 .63.07 1.17.2 1.6.15.44.38.78.7 1 .32.23.76.34 1.3.34.46 0 .85-.12 1.16-.37.31-.25.54-.6.69-1.05.16-.45.23-.97.23-1.55 0-.88-.17-1.59-.52-2.1-.34-.53-.86-.79-1.58-.79Zm11.71 2.91c0 .62-.08 1.17-.24 1.65-.15.48-.38.89-.69 1.22a3 3 0 0 1-1.09.77c-.42.17-.9.26-1.44.26-.5 0-.96-.09-1.38-.26a3.11 3.11 0 0 1-1.79-2 5.1 5.1 0 0 1-.24-1.64c0-.82.14-1.52.41-2.09.28-.58.68-1.02 1.2-1.32.51-.3 1.13-.46 1.85-.46.68 0 1.28.16 1.79.46.51.3.91.75 1.2 1.33.28.57.42 1.27.42 2.08Zm-5.7 0c0 .6.08 1.13.24 1.57.16.44.4.78.74 1.02.33.24.76.36 1.29.36.52 0 .94-.12 1.27-.36.34-.24.59-.58.75-1.02.16-.44.24-.97.24-1.57 0-.6-.08-1.11-.24-1.54-.16-.44-.4-.78-.74-1.01a2.18 2.18 0 0 0-1.3-.36c-.77 0-1.34.26-1.7.77a3.69 3.69 0 0 0-.55 2.14Zm12.03-3.73h1.26l-3.24 3.62 3.5 3.87h-1.34l-3.4-3.8v3.8h-1.14v-7.5h1.14v3.65l3.22-3.64ZM136.47 178.88h1.25l-3.23 3.61 3.49 3.88h-1.33l-3.4-3.8v3.8h-1.15v-7.5h1.14v3.64l3.23-3.63Zm9.32 3.73c0 .61-.08 1.16-.24 1.64-.16.49-.39.9-.69 1.23-.3.33-.66.59-1.1.76-.41.18-.9.26-1.43.26a3.14 3.14 0 0 1-3.16-2.25 5.11 5.11 0 0 1-.25-1.64c0-.82.13-1.52.41-2.1.28-.57.68-1.01 1.2-1.31a3.6 3.6 0 0 1 1.84-.46c.69 0 1.28.15 1.8.46.51.3.9.74 1.2 1.32.28.58.42 1.27.42 2.09Zm-5.7 0c0 .6.08 1.12.24 1.56.16.45.4.79.74 1.03.33.24.76.36 1.28.36s.95-.12 1.28-.36c.34-.24.59-.58.75-1.03.16-.44.24-.96.24-1.56 0-.6-.08-1.12-.24-1.55-.16-.44-.4-.77-.74-1a2.18 2.18 0 0 0-1.3-.37c-.77 0-1.34.26-1.7.78a3.69 3.69 0 0 0-.55 2.14Zm8.8-3.74v3.15h4.18v-3.15h1.14v7.5h-1.14v-3.39h-4.17v3.39h-1.15v-7.5h1.15Zm12.83.97h-2.47v6.53h-1.12v-6.53h-2.43v-.97h6.02v.97Zm4.37-1.1a2.74 2.74 0 0 1 2.69 1.61c.24.5.36 1.1.36 1.78v.7h-5.18c.02.88.23 1.55.66 2.01.42.46 1.02.7 1.79.7a5.45 5.45 0 0 0 2.4-.52v1a5.58 5.58 0 0 1-2.45.48c-.72 0-1.35-.14-1.89-.43-.53-.3-.94-.73-1.24-1.3a4.5 4.5 0 0 1-.44-2.1 5 5 0 0 1 .4-2.09c.27-.59.66-1.04 1.15-1.36.5-.32 1.08-.48 1.75-.48Zm-.02.93c-.6 0-1.08.2-1.44.6-.37.39-.58.94-.65 1.65h3.97c0-.44-.08-.83-.21-1.17-.14-.34-.34-.6-.61-.8a1.8 1.8 0 0 0-1.06-.28Zm6.08-.8v4.72a14.13 14.13 0 0 1-.06 1.27l-.02.37 4.09-6.35h1.4v7.49h-1.07v-4.6a26.06 26.06 0 0 1 .03-1.23l.02-.52-4.07 6.35h-1.4v-7.5h1.08Zm4.84-3.08c-.04.46-.16.85-.35 1.16-.18.3-.46.54-.82.7a3.6 3.6 0 0 1-1.4.23c-.6 0-1.07-.07-1.43-.22a1.61 1.61 0 0 1-.8-.7c-.16-.3-.26-.7-.3-1.17h1.08c.04.5.18.84.4 1.03.22.18.57.27 1.06.27.44 0 .79-.1 1.04-.29.25-.19.4-.53.45-1h1.07Zm4.12 3.09v3.14h4.17v-3.15h1.14v7.5h-1.14v-3.39h-4.17v3.39h-1.15v-7.5h1.15Zm10.6-.14a2.75 2.75 0 0 1 2.69 1.61c.24.5.36 1.1.36 1.78v.7h-5.18c.02.88.23 1.55.66 2.01.42.46 1.02.7 1.79.7a5.45 5.45 0 0 0 2.4-.52v1a5.58 5.58 0 0 1-2.45.48c-.72 0-1.35-.14-1.88-.43-.54-.3-.95-.73-1.25-1.3a4.48 4.48 0 0 1-.44-2.1 5 5 0 0 1 .4-2.09c.27-.59.66-1.04 1.15-1.36.5-.32 1.08-.48 1.75-.48Zm-.02.93c-.6 0-1.08.2-1.44.6-.36.39-.58.94-.65 1.65h3.97c0-.44-.08-.83-.21-1.17-.14-.34-.34-.6-.61-.8a1.8 1.8 0 0 0-1.06-.28Zm8.52-.93c.93 0 1.67.32 2.23.96.56.65.84 1.61.84 2.9 0 .85-.13 1.57-.39 2.15a2.9 2.9 0 0 1-1.08 1.31c-.46.3-1 .44-1.63.44-.4 0-.75-.05-1.05-.15a2.48 2.48 0 0 1-1.3-1h-.09a99.46 99.46 0 0 1 .09 1.3v3.07h-1.14v-10.84h.93l.15 1.1h.06c.14-.22.32-.43.53-.62.21-.2.46-.34.77-.45.3-.12.66-.17 1.08-.17Zm-.2.95c-.52 0-.94.1-1.26.3-.31.2-.54.5-.69.9-.15.4-.22.9-.23 1.5v.22c0 .64.07 1.17.2 1.61.14.44.37.77.7 1 .32.23.75.34 1.3.34.46 0 .84-.13 1.15-.38.31-.25.54-.6.7-1.04.15-.45.23-.97.23-1.55 0-.89-.18-1.59-.52-2.1-.34-.53-.87-.8-1.58-.8Zm11.7 2.92c0 .61-.07 1.16-.23 1.64-.16.49-.4.9-.7 1.23-.3.33-.66.59-1.09.76-.42.18-.9.26-1.44.26a3.12 3.12 0 0 1-3.17-2.25 5.11 5.11 0 0 1-.24-1.64c0-.82.14-1.52.42-2.1.28-.57.67-1.01 1.19-1.31a3.6 3.6 0 0 1 1.85-.46c.68 0 1.28.15 1.8.46.5.3.9.74 1.19 1.32.28.58.43 1.27.43 2.09Zm-5.7 0c0 .6.09 1.12.25 1.56.16.45.4.79.73 1.03.34.24.76.36 1.29.36.52 0 .94-.12 1.28-.36.34-.24.58-.58.74-1.03.16-.44.24-.96.24-1.56 0-.6-.08-1.12-.24-1.55-.16-.44-.4-.77-.74-1a2.17 2.17 0 0 0-1.29-.37c-.78 0-1.35.26-1.71.78a3.69 3.69 0 0 0-.54 2.14Zm13.62-1.86c0 .47-.13.84-.4 1.1-.28.27-.63.44-1.07.53v.06c.47.06.88.23 1.21.5.35.27.52.68.52 1.24 0 .43-.1.8-.31 1.13-.2.33-.53.59-.97.78-.43.18-1 .28-1.7.28h-3.23v-7.5h3.2c.54 0 1.01.07 1.42.19.41.12.74.31.98.59.23.27.35.64.35 1.1Zm-.93 3.43c0-.44-.16-.76-.5-.96a2.9 2.9 0 0 0-1.46-.3h-1.92v2.52h1.95c.63 0 1.1-.1 1.44-.28.33-.2.5-.53.5-.98Zm-.22-3.3c0-.35-.13-.62-.4-.79-.25-.18-.68-.27-1.27-.27h-1.99v2.16h1.8a2.9 2.9 0 0 0 1.39-.27.89.89 0 0 0 .47-.83Z"/>
  <path stroke="#9AA3AD" d="m17.67 17.48 8.4 2.4-10.58 37.89a4.33 4.33 0 0 1-5.37 3 4.4 4.4 0 0 1-3.02-5.4l10.57-37.89Z"/>
  <rect width="11.5" height="11.62" fill="#748890" rx="1" transform="matrix(.9614 .27513 -.26881 .9632 19.36 6.29)"/>
  <rect width="7.96" height="1.79" fill="#748890" rx=".89" transform="matrix(.9614 .27513 -.26881 .9632 21.3 5.91)"/>
  <path stroke="#9AA3AD" d="m85.7 21.06 8.4 2.4-10.58 37.89a4.33 4.33 0 0 1-5.36 3 4.4 4.4 0 0 1-3.03-5.4l10.58-37.89Z"/>
  <rect width="11.5" height="11.62" fill="#748890" rx="1" transform="matrix(.9614 .27513 -.26881 .9632 87.4 9.87)"/>
  <rect width="7.96" height="1.79" fill="#748890" rx=".89" transform="matrix(.9614 .27513 -.26881 .9632 89.33 9.5)"/>
  <path stroke="#9AA3AD" d="m152.86 25.53 8.39 2.4-10.57 37.89a4.33 4.33 0 0 1-5.37 3 4.4 4.4 0 0 1-3.03-5.4l10.58-37.89Z"/>
  <rect width="11.5" height="11.62" fill="#748890" rx="1" transform="matrix(.9614 .27513 -.26881 .9632 154.54 14.34)"/>
  <rect width="7.96" height="1.79" fill="#748890" rx=".89" transform="matrix(.9614 .27513 -.26881 .9632 156.48 13.97)"/>
  <path stroke="#9AA3AD" d="m220.89 31.8 8.4 2.4-10.58 37.88a4.33 4.33 0 0 1-5.37 3 4.4 4.4 0 0 1-3.02-5.4l10.57-37.88Z"/>
  <rect width="11.5" height="11.62" fill="#748890" rx="1" transform="matrix(.9614 .27513 -.26881 .9632 222.58 20.6)"/>
  <rect width="7.96" height="1.79" fill="#748890" rx=".89" transform="matrix(.9614 .27513 -.26881 .9632 224.52 20.23)"/>
  <path stroke="#9AA3AD" d="m288.92 36.27 8.4 2.4-10.58 37.89a4.33 4.33 0 0 1-5.37 3 4.4 4.4 0 0 1-3.02-5.4l10.57-37.89Z"/>
  <rect width="11.5" height="11.62" fill="#748890" rx="1" transform="matrix(.9614 .27513 -.26881 .9632 290.61 25.08)"/>
  <rect width="7.96" height="1.79" fill="#748890" rx=".89" transform="matrix(.9614 .27513 -.26881 .9632 292.55 24.7)"/>
  <path stroke="#9AA3AD" d="m34.46 19.27 8.4 2.4-10.58 37.89a4.33 4.33 0 0 1-5.37 3 4.4 4.4 0 0 1-3.02-5.4l10.57-37.89Z"/>
  <rect width="11.5" height="11.62" fill="#748890" rx="1" transform="matrix(.9614 .27513 -.26881 .9632 36.15 8.08)"/>
  <rect width="7.96" height="1.79" fill="#748890" rx=".89" transform="matrix(.9614 .27513 -.26881 .9632 38.09 7.7)"/>
  <path stroke="#9AA3AD" d="m102.5 21.96 8.38 2.4-10.57 37.88a4.33 4.33 0 0 1-5.37 3 4.4 4.4 0 0 1-3.02-5.4l10.57-37.88Z"/>
  <rect width="11.5" height="11.62" fill="#748890" rx="1" transform="matrix(.9614 .27513 -.26881 .9632 104.18 10.76)"/>
  <rect width="7.96" height="1.79" fill="#748890" rx=".89" transform="matrix(.9614 .27513 -.26881 .9632 106.12 10.39)"/>
  <path stroke="#9AA3AD" d="m169.64 28.22 8.4 2.4-10.58 37.88a4.33 4.33 0 0 1-5.37 3 4.4 4.4 0 0 1-3.02-5.4l10.57-37.88Z"/>
  <rect width="11.5" height="11.62" fill="#748890" rx="1" transform="matrix(.9614 .27513 -.26881 .9632 171.33 17.02)"/>
  <rect width="7.96" height="1.79" fill="#748890" rx=".89" transform="matrix(.9614 .27513 -.26881 .9632 173.27 16.65)"/>
  <path stroke="#9AA3AD" d="m237.68 32.7 8.39 2.4-10.57 37.88a4.33 4.33 0 0 1-5.37 3 4.4 4.4 0 0 1-3.03-5.4l10.58-37.89Z"/>
  <rect width="11.5" height="11.62" fill="#748890" rx="1" transform="matrix(.9614 .27513 -.26881 .9632 239.36 21.5)"/>
  <rect width="7.96" height="1.79" fill="#748890" rx=".89" transform="matrix(.9614 .27513 -.26881 .9632 241.3 21.12)"/>
  <path stroke="#9AA3AD" d="m305.71 36.27 8.4 2.4-10.58 37.88a4.33 4.33 0 0 1-5.37 3 4.4 4.4 0 0 1-3.02-5.4l10.57-37.88Z"/>
  <rect width="11.5" height="11.62" fill="#748890" rx="1" transform="matrix(.9614 .27513 -.26881 .9632 307.4 25.08)"/>
  <rect width="7.96" height="1.79" fill="#748890" rx=".89" transform="matrix(.9614 .27513 -.26881 .9632 309.34 24.7)"/>
  <path stroke="#9AA3AD" d="m51.25 19.27 8.39 2.4-10.57 37.89a4.33 4.33 0 0 1-5.37 3 4.4 4.4 0 0 1-3.03-5.4l10.58-37.89Z"/>
  <rect width="11.5" height="11.62" fill="#748890" rx="1" transform="matrix(.9614 .27513 -.26881 .9632 52.93 8.08)"/>
  <rect width="7.96" height="1.79" fill="#748890" rx=".89" transform="matrix(.9614 .27513 -.26881 .9632 54.87 7.7)"/>
  <path stroke="#9AA3AD" d="m119.28 22.85 8.4 2.4-10.58 37.89a4.33 4.33 0 0 1-5.37 3 4.4 4.4 0 0 1-3.02-5.4l10.57-37.89Z"/>
  <rect width="11.5" height="11.62" fill="#748890" rx="1" transform="matrix(.9614 .27513 -.26881 .9632 120.97 11.66)"/>
  <rect width="7.96" height="1.79" fill="#748890" rx=".89" transform="matrix(.9614 .27513 -.26881 .9632 122.9 11.28)"/>
  <path stroke="#9AA3AD" d="m186.43 29.11 8.4 2.4-10.58 37.89a4.33 4.33 0 0 1-5.37 3 4.4 4.4 0 0 1-3.02-5.4l10.57-37.89Z"/>
  <rect width="11.5" height="11.62" fill="#748890" rx="1" transform="matrix(.9614 .27513 -.26881 .9632 188.12 17.92)"/>
  <rect width="7.96" height="1.79" fill="#748890" rx=".89" transform="matrix(.9614 .27513 -.26881 .9632 190.06 17.54)"/>
  <path stroke="#9AA3AD" d="m254.46 34.48 8.4 2.4-10.58 37.89a4.33 4.33 0 0 1-5.37 3 4.4 4.4 0 0 1-3.02-5.4l10.57-37.89Z"/>
  <rect width="11.5" height="11.62" fill="#748890" rx="1" transform="matrix(.9614 .27513 -.26881 .9632 256.15 23.29)"/>
  <rect width="7.96" height="1.79" fill="#748890" rx=".89" transform="matrix(.9614 .27513 -.26881 .9632 258.09 22.91)"/>
  <path stroke="#9AA3AD" d="m322.5 36.27 8.4 2.4-10.58 37.89a4.33 4.33 0 0 1-5.37 3 4.4 4.4 0 0 1-3.02-5.4l10.57-37.89Z"/>
  <rect width="11.5" height="11.62" fill="#748890" rx="1" transform="matrix(.9614 .27513 -.26881 .9632 324.19 25.07)"/>
  <rect width="7.96" height="1.79" fill="#748890" rx=".89" transform="matrix(.9614 .27513 -.26881 .9632 326.13 24.7)"/>
  <path stroke="#9AA3AD" d="m68.03 20.17 8.4 2.4-10.58 37.88a4.33 4.33 0 0 1-5.37 3 4.4 4.4 0 0 1-3.02-5.4l10.57-37.88Z"/>
  <rect width="11.5" height="11.62" fill="#748890" rx="1" transform="matrix(.9614 .27513 -.26881 .9632 69.72 8.97)"/>
  <rect width="7.96" height="1.79" fill="#748890" rx=".89" transform="matrix(.9614 .27513 -.26881 .9632 71.66 8.6)"/>
  <path stroke="#9AA3AD" d="m136.07 23.75 8.4 2.4-10.58 37.88a4.33 4.33 0 0 1-5.37 3 4.4 4.4 0 0 1-3.02-5.4l10.57-37.88Z"/>
  <rect width="11.5" height="11.62" fill="#748890" rx="1" transform="matrix(.9614 .27513 -.26881 .9632 137.76 12.55)"/>
  <rect width="7.96" height="1.79" fill="#748890" rx=".89" transform="matrix(.9614 .27513 -.26881 .9632 139.7 12.18)"/>
  <path stroke="#9AA3AD" d="m203.22 30 8.39 2.41-10.57 37.88a4.33 4.33 0 0 1-5.37 3 4.4 4.4 0 0 1-3.02-5.4l10.57-37.88Z"/>
  <rect width="11.5" height="11.62" fill="#748890" rx="1" transform="matrix(.9614 .27513 -.26881 .9632 204.9 18.81)"/>
  <rect width="7.96" height="1.79" fill="#748890" rx=".89" transform="matrix(.9614 .27513 -.26881 .9632 206.84 18.44)"/>
  <path stroke="#9AA3AD" d="m271.25 35.38 8.4 2.4-10.58 37.88a4.33 4.33 0 0 1-5.37 3 4.4 4.4 0 0 1-3.02-5.4l10.57-37.88Z"/>
  <rect width="11.5" height="11.62" fill="#748890" rx="1" transform="matrix(.9614 .27513 -.26881 .9632 272.94 24.18)"/>
  <rect width="7.96" height="1.79" fill="#748890" rx=".89" transform="matrix(.9614 .27513 -.26881 .9632 274.88 23.8)"/>
  <path stroke="#9AA3AD" d="m339.29 35.38 8.39 2.4-10.57 37.88a4.33 4.33 0 0 1-5.37 3 4.4 4.4 0 0 1-3.03-5.4l10.58-37.88Z"/>
  <rect width="11.5" height="11.62" fill="#748890" rx="1" transform="matrix(.9614 .27513 -.26881 .9632 340.97 24.18)"/>
  <rect width="7.96" height="1.79" fill="#748890" rx=".89" transform="matrix(.9614 .27513 -.26881 .9632 342.91 23.8)"/>
  <path stroke="#9AA3AD" stroke-linecap="round" stroke-linejoin="round" d="M.93 89.53V6.31C.93 3.32 2.95.95 8.16.95h347.07v88.58H32.73c-3.18 0-2.25-4.63-2.89-4.98L15.2 89.53H.93h0Z" clip-rule="evenodd"/>
  <path stroke="#9AA3AD" stroke-linecap="round" stroke-linejoin="round" d="M.93 79.9V12.06c0-2.44 2.02-4.37 7.23-4.37h347.07V79.9H32.73c-3.18 0-2.25-3.77-2.89-4.06L15.2 79.9H.93h0Z" clip-rule="evenodd"/>
  <path stroke="#9AA3AD" stroke-linecap="round" stroke-linejoin="round" d="M250.29 79.9.93 63.53M355.23 23.1 124.16 7.7"/>
</svg>