<svg fill="none" viewBox="0 0 306 200">
  <path stroke="#9AA3AD" stroke-linecap="round" stroke-linejoin="round" d="M43.71 5.07h6.49c.22 0 .4.19.4.41v81.09h-7.29V5.48a.4.4 0 0 1 .4-.4h0ZM53.4 5.07h6.48c.22 0 .4.19.4.41v81.09H53V5.48a.4.4 0 0 1 .4-.4h0ZM72.76 5.07h6.49c.22 0 .4.19.4.41v81.09h-7.3V5.48a.4.4 0 0 1 .41-.4h0ZM92.13 5.07h6.48c.22 0 .4.19.4.41v81.09h-7.29V5.48a.4.4 0 0 1 .4-.4h0ZM111.5 5.07h6.48c.22 0 .4.19.4.41v81.09h-7.29V5.48a.4.4 0 0 1 .4-.4h0ZM130.86 5.07h6.48c.23 0 .4.19.4.41v81.09h-7.28V5.48a.4.4 0 0 1 .4-.4h0ZM150.23 5.07h6.48c.22 0 .4.19.4.41v81.09h-7.29V5.48a.4.4 0 0 1 .4-.4h0ZM63.08 5.07h6.48c.23 0 .4.19.4.41v81.09h-7.28V5.48a.4.4 0 0 1 .4-.4h0ZM82.44 5.07h6.49c.22 0 .4.19.4.41v81.09h-7.29V5.48a.4.4 0 0 1 .4-.4h0ZM101.81 5.07h6.48c.23 0 .4.19.4.41v81.09a.4.4 0 0 1-.4.41h-6.48a.4.4 0 0 1-.4-.41V5.48a.4.4 0 0 1 .4-.4v0ZM121.18 5.07h6.48c.22 0 .4.19.4.41v81.09h-7.28V5.48a.4.4 0 0 1 .4-.4v0ZM140.54 5.07h6.49c.22 0 .4.19.4.41v81.09h-7.29V5.48a.4.4 0 0 1 .4-.4v0ZM184 156.77h25.58a.7.7 0 0 1 .68.7v5.16c0 1.32-1.05 2.4-2.35 2.4H184v-8.26h0Z" clip-rule="evenodd"/>
  <path stroke="#9AA3AD" stroke-linecap="round" stroke-linejoin="round" d="M37.61 86.57H184c.48 0 .73.08.9.36l18.91 34.48c.63 1.1.44 1.92.09 2.54l-3.85 6.56c-1.03 1.8-2.28 1.65-3.66 1.65h-6.05c-2.5 0-6.34.19-6.34 8.98v23.89H37.62V86.57h0Z" clip-rule="evenodd"/>
  <path stroke="#9AA3AD" stroke-linecap="round" stroke-linejoin="round" d="M43.92 122.25h124.91c1.44 0 2.6 1.2 2.6 2.65v35.23a2.63 2.63 0 0 1-2.6 2.65H43.93c-1.44 0-2.61-1.2-2.61-2.65V124.9a2.63 2.63 0 0 1 2.6-2.65v0Z" clip-rule="evenodd"/>
  <path stroke="#9AA3AD" stroke-linecap="round" stroke-linejoin="round" d="M48.36 131.28H95.5a1 1 0 0 1 .98 1v13.3a1 1 0 0 1-.98 1H48.36a1 1 0 0 1-.98-1v-13.3a1 1 0 0 1 .98-1v0Z" clip-rule="evenodd"/>
  <path stroke="#9AA3AD" stroke-linecap="round" stroke-linejoin="round" d="M164.97 122.25V86.57"/>
  <path stroke="#9AA3AD" stroke-linecap="round" stroke-linejoin="round" d="m299.79 131.03.26 32.12c.01 1.03-.84 1.87-1.86 1.87h-57.08a1.88 1.88 0 0 1-1.87-1.87l-.28-34.53.28 1.68c.5 1.53 1.12 2 2.56 2l27.92.07h27.66c.9 0 1.86-.23 2.4-1.34h0Z" clip-rule="evenodd"/>
  <path stroke="#9AA3AD" stroke-linecap="round" stroke-linejoin="round" d="M301.87 120.46h-.04c-.38 1.41-1.94 2.47-3.68 2.47h-56.96a3.95 3.95 0 0 1-3.4-1.8h-.1l1.55 9.17c.5 1.53 1.12 2 2.56 2l27.92.07h27.66c1.07 0 2.21-.33 2.67-2.07l1.82-9.84h0ZM266.23 152.53h17.75c.39 0 .7.3.7.69v9.53a2.4 2.4 0 0 1-2.38 2.39h-32.15a2.4 2.4 0 0 1-2.38-2.39v-9.53c0-.38.31-.7.7-.7h17.76Z" clip-rule="evenodd"/>
  <path stroke="#9AA3AD" stroke-linecap="round" stroke-linejoin="round" d="M266.23 156.9h17.75c.39 0 .7.32.7.7v5.15a2.4 2.4 0 0 1-2.38 2.39h-32.15a2.4 2.4 0 0 1-2.38-2.39v-5.15c0-.38.31-.7.7-.7h17.76ZM243.15 86.93h52.88c2.07 0 3.64 1.49 3.77 3.3l2.12 29.39c.13 1.81-1.7 3.3-3.77 3.3h-56.96c-2.07 0-3.88-1.49-3.76-3.3l1.96-29.38a3.65 3.65 0 0 1 3.76-3.31h0Z" clip-rule="evenodd"/>
  <path stroke="#9AA3AD" stroke-linecap="round" stroke-linejoin="round" d="M244.4 89.96h50.33c1.9 0 2.33 1.06 2.41 2.36l1.26 19.41c.09 1.3-.44 2.37-2.33 2.37h-53.05c-1.9 0-2.56-1.07-2.47-2.37l1.28-19.4c.08-1.3.67-2.37 2.57-2.37h0Z" clip-rule="evenodd"/>
  <path stroke="#9AA3AD" stroke-linecap="round" stroke-linejoin="round" d="M269.74 121.08a2 2 0 1 0 0-4 2 2 0 0 0 0 4Z"/>
  <path stroke="#9AA3AD" stroke-linecap="round" stroke-linejoin="round" d="M247.46 5.68h34.97c1.26 0 2.25.82 2.25 2.91v78.33h-37.22V18.5c0-1.28 1.94-.9 2.09-1.16l-2.1-5.9V5.68h0Z" clip-rule="evenodd"/>
  <path stroke="#748890" stroke-width=".5" d="M34.65 3.24h-14.2M34.65 165.92h-14.2M37.7 169.46v14.08M209.1 169.46v14.08"/>
  <path stroke="#748890" d="M35.29 179.64h177.44M211.2 177.36l-3.51 4.55M39.7 177.36l-3.5 4.55M24.48.95v168.42M26.78 167.91l-4.6-3.33M26.78 5.15l-4.6-3.34"/>
  <path fill="#748890" d="M120.64 191.82c.87 0 1.63.15 2.27.44.65.3 1.15.73 1.5 1.29.36.56.53 1.24.53 2.05 0 .88-.19 1.63-.57 2.27a3.79 3.79 0 0 1-1.64 1.47c-.72.34-1.57.51-2.57.51-.66 0-1.29-.06-1.86-.18a4.6 4.6 0 0 1-1.45-.52v-1.4a7.33 7.33 0 0 0 3.33.84c.65.01 1.22-.1 1.7-.3.5-.2.88-.52 1.15-.94.27-.43.41-.97.41-1.61 0-.86-.26-1.52-.79-1.98-.52-.47-1.35-.7-2.48-.7a10.13 10.13 0 0 0-2.27.28l-.73-.49.49-6.03h6.39v1.34h-5.14l-.33 3.88a11.65 11.65 0 0 1 2.06-.22Zm10.48-5.18c.75 0 1.4.12 1.98.35a2.76 2.76 0 0 1 1.84 2.7c0 .53-.12.99-.34 1.38-.23.39-.53.73-.91 1.02-.38.29-.8.54-1.27.77.56.25 1.05.54 1.49.85.44.32.8.7 1.05 1.12.26.43.4.94.4 1.52a3.3 3.3 0 0 1-.54 1.87c-.34.53-.83.93-1.46 1.2-.62.29-1.36.43-2.2.43-.91 0-1.68-.13-2.32-.4a3.2 3.2 0 0 1-1.45-1.18 3.38 3.38 0 0 1-.5-1.86 3 3 0 0 1 .38-1.53c.26-.44.59-.82 1-1.14.42-.31.88-.58 1.37-.8a7.3 7.3 0 0 1-1.18-.8c-.35-.3-.63-.65-.84-1.04-.2-.4-.31-.88-.31-1.41 0-.65.16-1.2.5-1.65.32-.46.78-.8 1.35-1.04a5.08 5.08 0 0 1 1.96-.36Zm-2.8 9.78c0 .66.24 1.2.7 1.63.47.42 1.17.63 2.1.63.9 0 1.58-.21 2.07-.63.49-.43.73-.99.73-1.68 0-.43-.11-.8-.34-1.13a3.15 3.15 0 0 0-.95-.88c-.4-.25-.89-.49-1.44-.7l-.32-.11c-.54.22-1 .47-1.38.74-.38.27-.66.58-.86.93-.2.34-.3.75-.3 1.2Zm2.78-8.58c-.69 0-1.25.16-1.7.5-.43.32-.65.8-.65 1.42 0 .45.1.82.32 1.13.21.3.5.57.88.8.36.21.78.41 1.24.6.44-.19.84-.4 1.18-.61.35-.23.62-.5.82-.81.2-.31.3-.69.3-1.12 0-.62-.22-1.1-.66-1.42-.44-.33-1.01-.5-1.73-.5ZM5.87 86.11c.88 0 1.64.15 2.28.45.64.3 1.14.72 1.5 1.28.35.56.53 1.25.53 2.05 0 .88-.19 1.64-.57 2.28a3.79 3.79 0 0 1-1.64 1.46c-.72.34-1.57.51-2.57.51-.67 0-1.29-.06-1.86-.17a4.62 4.62 0 0 1-1.45-.53v-1.39c.42.26.94.46 1.55.62.61.15 1.2.22 1.78.22.65 0 1.22-.1 1.7-.3.5-.21.88-.53 1.14-.95.28-.43.42-.97.42-1.61a2.5 2.5 0 0 0-.8-1.98c-.51-.47-1.34-.7-2.47-.7a8.98 8.98 0 0 0-2.27.28l-.74-.48.5-6.03h6.38v1.33H4.14l-.32 3.88a12.14 12.14 0 0 1 2.05-.22Zm6.38 2.36c0-.77.05-1.53.15-2.26.12-.74.3-1.43.56-2.06.26-.64.6-1.2 1.05-1.68.45-.48 1-.85 1.66-1.12a6.29 6.29 0 0 1 2.4-.42 8.94 8.94 0 0 1 1.61.17v1.26a3.61 3.61 0 0 0-.75-.17 6.58 6.58 0 0 0-.83-.05c-1.09 0-1.95.23-2.58.7a3.96 3.96 0 0 0-1.34 1.94c-.28.81-.43 1.72-.47 2.74h.1a3.27 3.27 0 0 1 1.7-1.37c.41-.14.88-.2 1.41-.2.75 0 1.4.14 1.96.45.56.3 1 .75 1.3 1.33.31.58.47 1.28.47 2.1a5 5 0 0 1-.5 2.3c-.32.64-.8 1.14-1.4 1.5-.6.34-1.32.51-2.16.51a3.85 3.85 0 0 1-3.11-1.43 5.18 5.18 0 0 1-.9-1.77 8.47 8.47 0 0 1-.33-2.47Zm4.32 4.44c.8 0 1.44-.25 1.92-.76s.72-1.28.72-2.31c0-.85-.22-1.52-.64-2-.43-.5-1.08-.75-1.94-.75-.58 0-1.1.13-1.53.37-.43.24-.77.55-1 .92-.25.37-.37.74-.37 1.12a3.85 3.85 0 0 0 .7 2.29 2.48 2.48 0 0 0 2.14 1.13Z"/>
  <path stroke="#748890" stroke-width=".5" d="M236.69 168.85v14M302.88 168.85v14"/>
  <path stroke="#748890" d="M233.92 178.65h71.67M304.71 176.9l-3.65 3.5M238.52 176.9l-3.66 3.5"/>
  <path fill="#748890" d="M276.04 198.99h-8.42v-1.22l3.44-3.5c.64-.64 1.17-1.21 1.6-1.72.45-.5.78-1 1-1.48.24-.5.35-1.03.35-1.62 0-.72-.21-1.28-.65-1.66-.43-.38-1-.58-1.7-.58a4 4 0 0 0-1.63.32c-.47.2-.96.5-1.46.9l-.78-.99a6.16 6.16 0 0 1 2.4-1.3 5.48 5.48 0 0 1 3.52.23c.58.27 1.02.67 1.33 1.17.32.52.47 1.12.47 1.83 0 .67-.13 1.3-.4 1.9a7.77 7.77 0 0 1-1.13 1.72c-.49.57-1.06 1.18-1.7 1.81l-2.8 2.8v.05h6.56V199Zm7.31 0h-1.42v-10l.02-.68.04-.64a7.05 7.05 0 0 1-1.1.97l-1.46 1.17-.77-.99 3.48-2.68h1.21v12.85Z"/>
</svg>