<svg width="280" height="90" viewBox="0 0 280 90" fill="none" xmlns="http://www.w3.org/2000/svg">
<path fill-rule="evenodd" clip-rule="evenodd" d="M64.2256 42.7505H117.595L114.313 83.6079C113.968 86.5386 111.895 88.9521 108.959 88.9521H72.3432C69.4071 88.9521 67.3345 86.5386 66.989 83.6079L64.2256 42.7505V42.7505Z" stroke="#8A96A5" stroke-width="2" stroke-miterlimit="22.9256" stroke-linecap="round"/>
<path fill-rule="evenodd" clip-rule="evenodd" d="M62.326 22.6665H121.308C122.863 22.6665 124.072 24.0457 124.072 25.6834V39.6473C124.072 41.3713 122.863 42.7504 121.308 42.7504H62.326C60.7715 42.7504 59.5625 41.3713 59.5625 39.6473V25.6834C59.5625 24.0457 60.7715 22.6665 62.326 22.6665V22.6665Z" stroke="#8A96A5" stroke-width="2" stroke-miterlimit="22.9256" stroke-linecap="round"/>
<path d="M66.9893 28.5278V35.9408" stroke="#8A96A5" stroke-width="2" stroke-miterlimit="22.9256" stroke-linecap="round"/>
<path d="M75.0205 28.5278V35.9408" stroke="#8A96A5" stroke-width="2" stroke-miterlimit="22.9256" stroke-linecap="round"/>
<path d="M83.1387 28.5278V35.9408" stroke="#8A96A5" stroke-width="2" stroke-miterlimit="22.9256" stroke-linecap="round"/>
<path d="M91.1699 28.5278V35.9408" stroke="#8A96A5" stroke-width="2" stroke-miterlimit="22.9256" stroke-linecap="round"/>
<path d="M99.2012 28.5278V35.9408" stroke="#8A96A5" stroke-width="2" stroke-miterlimit="22.9256" stroke-linecap="round"/>
<path d="M107.318 28.5278V35.9408" stroke="#8A96A5" stroke-width="2" stroke-miterlimit="22.9256" stroke-linecap="round"/>
<path d="M115.35 28.5278V35.9408" stroke="#8A96A5" stroke-width="2" stroke-miterlimit="22.9256" stroke-linecap="round"/>
<path fill-rule="evenodd" clip-rule="evenodd" d="M9.50977 52.7739H24.0011V69.7343L20.8592 83.3026C20.6027 85.3507 19.192 87.0787 17.1402 87.0787H16.6913C14.6394 87.0787 13.1647 85.4147 12.9082 83.3026L9.57388 69.8623L9.50977 52.7739V52.7739Z" stroke="#8A96A5" stroke-width="2" stroke-miterlimit="22.9256" stroke-linecap="round"/>
<path d="M4.37994 49.7658C1.30214 47.9097 0.276203 42.3416 6.36769 40.7416L28.6818 35.8774" stroke="#8A96A5" stroke-width="2" stroke-miterlimit="22.9256" stroke-linecap="round"/>
<path d="M26.3096 47.8452H7.20157C5.89129 47.8452 4.8291 48.9341 4.8291 50.2773V50.3413C4.8291 51.6845 5.89129 52.7733 7.20157 52.7733H26.3096C27.6199 52.7733 28.6821 51.6845 28.6821 50.3413V50.2773C28.6821 48.9341 27.6199 47.8452 26.3096 47.8452Z" stroke="#8A96A5" stroke-width="2" stroke-miterlimit="22.9256" stroke-linecap="round"/>
<path d="M25.0913 37.9258C25.2837 38.8858 24.7066 39.8458 23.7448 40.0378L10.5359 42.6619C9.5741 42.8539 8.61228 42.2779 8.41992 41.3179" stroke="#8A96A5" stroke-width="2" stroke-miterlimit="22.9256" stroke-linecap="round"/>
<rect x="232.926" y="1.95264" width="46" height="87" rx="2" stroke="#8A96A5" stroke-width="2"/>
<path fill-rule="evenodd" clip-rule="evenodd" d="M152.749 21.9321H190.307C191.322 21.9321 192.06 22.9453 192.06 24.2348V35.0114C192.06 36.3009 191.322 37.4062 190.307 37.4062H152.749C151.827 37.4062 150.996 36.3009 150.996 35.0114V24.2348C150.996 22.9453 151.827 21.9321 152.749 21.9321V21.9321Z" stroke="#8A96A5" stroke-width="2" stroke-miterlimit="22.9256" stroke-linecap="round"/>
<path d="M156.718 26.9985V31.6039" stroke="#8A96A5" stroke-width="2" stroke-miterlimit="22.9256" stroke-linecap="round"/>
<path d="M162.9 26.9985V31.6039" stroke="#8A96A5" stroke-width="2" stroke-miterlimit="22.9256" stroke-linecap="round"/>
<path d="M169.083 26.9985V31.6039" stroke="#8A96A5" stroke-width="2" stroke-miterlimit="22.9256" stroke-linecap="round"/>
<path d="M175.266 26.9985V31.6039" stroke="#8A96A5" stroke-width="2" stroke-miterlimit="22.9256" stroke-linecap="round"/>
<path d="M181.448 26.9985V31.6039" stroke="#8A96A5" stroke-width="2" stroke-miterlimit="22.9256" stroke-linecap="round"/>
<path d="M187.631 26.9985V31.6039" stroke="#8A96A5" stroke-width="2" stroke-miterlimit="22.9256" stroke-linecap="round"/>
<path fill-rule="evenodd" clip-rule="evenodd" d="M154.41 37.4067H188.738V79.8683C188.738 84.4737 184.862 88.3422 180.248 88.3422H162.9C158.194 88.3422 154.41 84.4737 154.41 79.8683V37.4067V37.4067Z" stroke="#8A96A5" stroke-width="2" stroke-miterlimit="22.9256" stroke-linecap="round"/>
<path d="M192.522 36.4858H151.088C150.426 36.4858 149.889 36.9807 149.889 37.5911V37.6832C149.889 38.2937 150.426 38.7885 151.088 38.7885H192.522C193.184 38.7885 193.721 38.2937 193.721 37.6832V37.5911C193.721 36.9807 193.184 36.4858 192.522 36.4858Z" stroke="#8A96A5" stroke-width="2" stroke-miterlimit="22.9256" stroke-linecap="round"/>
<path fill-rule="evenodd" clip-rule="evenodd" d="M168.345 37.8667H175.266C176.742 37.8667 178.034 39.0641 178.034 40.6299V69.6438C178.034 73.0518 175.266 75.9071 171.759 75.9071C168.345 75.9071 165.576 73.0518 165.576 69.6438V40.6299C165.576 39.0641 166.868 37.8667 168.345 37.8667Z" stroke="#8A96A5" stroke-width="2" stroke-miterlimit="22.9256" stroke-linecap="round"/>
<path d="M171.759 72.4994C173.747 72.4994 175.358 70.2725 175.358 67.5256C175.358 64.7786 173.747 62.5518 171.759 62.5518C169.771 62.5518 168.16 64.7786 168.16 67.5256C168.16 70.2725 169.771 72.4994 171.759 72.4994Z" fill="#8A96A5"/>
</svg>
