<svg width="356" height="208" viewBox="0 0 356 208" fill="none" xmlns="http://www.w3.org/2000/svg">
<path d="M51.0092 158.557V164.893H25.6172V159.853L38.5772 147.613C39.9532 146.301 40.8812 145.181 41.3612 144.253C41.8412 143.293 42.0812 142.349 42.0812 141.421C42.0812 140.077 41.6172 139.053 40.6892 138.349C39.7932 137.613 38.4652 137.245 36.7052 137.245C35.2332 137.245 33.9052 137.533 32.7212 138.109C31.5372 138.653 30.5452 139.485 29.7452 140.605L24.0812 136.957C25.3932 135.005 27.2012 133.485 29.5052 132.397C31.8092 131.277 34.4492 130.717 37.4252 130.717C39.9212 130.717 42.0972 131.133 43.9532 131.965C45.8412 132.765 47.2972 133.917 48.3212 135.421C49.3772 136.893 49.9052 138.637 49.9052 140.653C49.9052 142.477 49.5212 144.189 48.7532 145.789C47.9852 147.389 46.4972 149.213 44.2892 151.261L36.5612 158.557H51.0092ZM68.524 165.469C65.74 165.469 63.26 164.781 61.084 163.405C58.908 162.029 57.196 160.045 55.948 157.453C54.732 154.829 54.124 151.709 54.124 148.093C54.124 144.477 54.732 141.373 55.948 138.781C57.196 136.157 58.908 134.157 61.084 132.781C63.26 131.405 65.74 130.717 68.524 130.717C71.308 130.717 73.788 131.405 75.964 132.781C78.14 134.157 79.836 136.157 81.052 138.781C82.3 141.373 82.924 144.477 82.924 148.093C82.924 151.709 82.3 154.829 81.052 157.453C79.836 160.045 78.14 162.029 75.964 163.405C73.788 164.781 71.308 165.469 68.524 165.469ZM68.524 158.893C70.572 158.893 72.172 158.013 73.324 156.253C74.508 154.493 75.1 151.773 75.1 148.093C75.1 144.413 74.508 141.693 73.324 139.933C72.172 138.173 70.572 137.293 68.524 137.293C66.508 137.293 64.908 138.173 63.724 139.933C62.572 141.693 61.996 144.413 61.996 148.093C61.996 151.773 62.572 154.493 63.724 156.253C64.908 158.013 66.508 158.893 68.524 158.893ZM118.248 164.893L112.584 156.973L106.728 164.893H98.5678L108.504 151.885L98.9038 139.069H107.304L112.776 146.605L118.392 139.069H126.36L116.76 151.693L126.744 164.893H118.248ZM155.256 131.293V164.893H147.48V137.533H140.76V131.293H155.256ZM186.197 158.557V164.893H160.805V159.853L173.765 147.613C175.141 146.301 176.069 145.181 176.549 144.253C177.029 143.293 177.269 142.349 177.269 141.421C177.269 140.077 176.805 139.053 175.877 138.349C174.981 137.613 173.653 137.245 171.893 137.245C170.421 137.245 169.093 137.533 167.909 138.109C166.725 138.653 165.733 139.485 164.933 140.605L159.269 136.957C160.581 135.005 162.389 133.485 164.693 132.397C166.997 131.277 169.637 130.717 172.613 130.717C175.109 130.717 177.285 131.133 179.141 131.965C181.029 132.765 182.485 133.917 183.509 135.421C184.565 136.893 185.093 138.637 185.093 140.653C185.093 142.477 184.709 144.189 183.941 145.789C183.173 147.389 181.685 149.213 179.477 151.261L171.749 158.557H186.197ZM204.103 139.213H226.951V145.069H204.103V139.213ZM204.103 151.117H226.951V156.973H204.103V151.117ZM270.431 158.557V164.893H245.039V159.853L257.999 147.613C259.375 146.301 260.303 145.181 260.783 144.253C261.263 143.293 261.503 142.349 261.503 141.421C261.503 140.077 261.039 139.053 260.111 138.349C259.215 137.613 257.887 137.245 256.127 137.245C254.655 137.245 253.327 137.533 252.143 138.109C250.959 138.653 249.967 139.485 249.167 140.605L243.503 136.957C244.815 135.005 246.623 133.485 248.927 132.397C251.231 131.277 253.871 130.717 256.847 130.717C259.343 130.717 261.519 131.133 263.375 131.965C265.263 132.765 266.719 133.917 267.743 135.421C268.799 136.893 269.327 138.637 269.327 140.653C269.327 142.477 268.943 144.189 268.175 145.789C267.407 147.389 265.919 149.213 263.711 151.261L255.983 158.557H270.431ZM303.939 157.837H298.467V164.893H290.883V157.837H272.787V152.605L288.627 131.293H296.787L282.099 151.501H291.123V145.213H298.467V151.501H303.939V157.837ZM320.665 165.469C317.881 165.469 315.401 164.781 313.225 163.405C311.049 162.029 309.337 160.045 308.089 157.453C306.873 154.829 306.265 151.709 306.265 148.093C306.265 144.477 306.873 141.373 308.089 138.781C309.337 136.157 311.049 134.157 313.225 132.781C315.401 131.405 317.881 130.717 320.665 130.717C323.449 130.717 325.929 131.405 328.105 132.781C330.281 134.157 331.977 136.157 333.193 138.781C334.441 141.373 335.065 144.477 335.065 148.093C335.065 151.709 334.441 154.829 333.193 157.453C331.977 160.045 330.281 162.029 328.105 163.405C325.929 164.781 323.449 165.469 320.665 165.469ZM320.665 158.893C322.713 158.893 324.313 158.013 325.465 156.253C326.649 154.493 327.241 151.773 327.241 148.093C327.241 144.413 326.649 141.693 325.465 139.933C324.313 138.173 322.713 137.293 320.665 137.293C318.649 137.293 317.049 138.173 315.865 139.933C314.713 141.693 314.137 144.413 314.137 148.093C314.137 151.773 314.713 154.493 315.865 156.253C317.049 158.013 318.649 158.893 320.665 158.893Z" fill="#748890"/>
<path d="M31.5049 176.949V184.441H30.3633V177.927H26.3711V184.441H25.2295V176.949H31.5049ZM37.4316 176.812C38.3659 176.812 39.111 177.134 39.667 177.776C40.223 178.419 40.501 179.385 40.501 180.675C40.501 181.527 40.3734 182.243 40.1182 182.821C39.863 183.4 39.5029 183.838 39.0381 184.134C38.5778 184.43 38.0332 184.578 37.4043 184.578C37.0078 184.578 36.6592 184.526 36.3584 184.421C36.0576 184.316 35.8001 184.175 35.5859 183.997C35.3717 183.819 35.194 183.626 35.0527 183.416H34.9707C34.9844 183.594 35.0003 183.808 35.0186 184.059C35.0413 184.309 35.0527 184.528 35.0527 184.715V187.791H33.9111V176.949H34.8477L34.998 178.057H35.0527C35.1986 177.829 35.3763 177.621 35.5859 177.435C35.7956 177.243 36.0508 177.093 36.3516 176.983C36.6569 176.869 37.0169 176.812 37.4316 176.812ZM37.2334 177.77C36.7139 177.77 36.2946 177.87 35.9756 178.07C35.6611 178.271 35.431 178.572 35.2852 178.973C35.1393 179.369 35.0618 179.868 35.0527 180.47V180.688C35.0527 181.322 35.1211 181.857 35.2578 182.295C35.3991 182.732 35.6292 183.065 35.9482 183.293C36.2718 183.521 36.7048 183.635 37.2471 183.635C37.7119 183.635 38.0993 183.509 38.4092 183.259C38.7191 183.008 38.9492 182.66 39.0996 182.213C39.2546 181.762 39.332 181.244 39.332 180.661C39.332 179.777 39.1589 179.075 38.8125 178.556C38.4707 178.032 37.9443 177.77 37.2334 177.77ZM48.9434 180.682C48.9434 181.297 48.8636 181.846 48.7041 182.329C48.5446 182.812 48.3145 183.22 48.0137 183.553C47.7129 183.885 47.3483 184.141 46.9199 184.318C46.4961 184.492 46.0153 184.578 45.4775 184.578C44.9762 184.578 44.516 184.492 44.0967 184.318C43.682 184.141 43.3219 183.885 43.0166 183.553C42.7158 183.22 42.4811 182.812 42.3125 182.329C42.1484 181.846 42.0664 181.297 42.0664 180.682C42.0664 179.861 42.2054 179.164 42.4834 178.59C42.7614 178.011 43.1579 177.571 43.6729 177.271C44.1924 176.965 44.8099 176.812 45.5254 176.812C46.209 176.812 46.806 176.965 47.3164 177.271C47.8314 177.576 48.2301 178.018 48.5127 178.597C48.7998 179.171 48.9434 179.866 48.9434 180.682ZM43.2422 180.682C43.2422 181.283 43.3219 181.805 43.4814 182.247C43.641 182.689 43.887 183.031 44.2197 183.272C44.5524 183.514 44.9808 183.635 45.5049 183.635C46.0244 183.635 46.4505 183.514 46.7832 183.272C47.1204 183.031 47.3688 182.689 47.5283 182.247C47.6878 181.805 47.7676 181.283 47.7676 180.682C47.7676 180.085 47.6878 179.57 47.5283 179.137C47.3688 178.699 47.1227 178.362 46.79 178.125C46.4574 177.888 46.0267 177.77 45.498 177.77C44.7188 177.77 44.1468 178.027 43.7822 178.542C43.4222 179.057 43.2422 179.77 43.2422 180.682ZM50.5156 179.943C50.5156 178.877 50.6182 177.968 50.8232 177.216C51.0283 176.459 51.3451 175.853 51.7734 175.397C52.2064 174.937 52.7624 174.623 53.4414 174.454C54.0247 174.295 54.6172 174.158 55.2188 174.044C55.8203 173.925 56.4059 173.823 56.9756 173.736L57.1738 174.734C56.8867 174.775 56.5859 174.823 56.2715 174.878C55.957 174.928 55.6426 174.983 55.3281 175.042C55.0137 175.097 54.7174 175.156 54.4395 175.22C54.1615 175.279 53.9154 175.34 53.7012 175.404C53.3138 175.509 52.9788 175.691 52.6963 175.951C52.4183 176.211 52.1973 176.569 52.0332 177.024C51.8737 177.48 51.778 178.054 51.7461 178.747H51.8281C51.9648 178.547 52.1517 178.348 52.3887 178.152C52.6257 177.956 52.9082 177.795 53.2363 177.667C53.5645 177.535 53.9336 177.469 54.3438 177.469C54.9909 177.469 55.5309 177.61 55.9639 177.893C56.3968 178.171 56.7227 178.562 56.9414 179.068C57.1602 179.574 57.2695 180.167 57.2695 180.846C57.2695 181.661 57.1283 182.347 56.8457 182.903C56.5677 183.459 56.1758 183.879 55.6699 184.161C55.1641 184.439 54.5693 184.578 53.8857 184.578C53.3571 184.578 52.8831 184.476 52.4639 184.271C52.0492 184.065 51.696 183.765 51.4043 183.368C51.1172 182.972 50.8962 182.486 50.7412 181.912C50.5908 181.338 50.5156 180.682 50.5156 179.943ZM53.9746 183.635C54.4076 183.635 54.779 183.544 55.0889 183.361C55.4033 183.179 55.6449 182.892 55.8135 182.5C55.9867 182.104 56.0732 181.589 56.0732 180.955C56.0732 180.162 55.9206 179.542 55.6152 179.096C55.3145 178.645 54.8314 178.419 54.166 178.419C53.7513 178.419 53.3753 178.508 53.0381 178.686C52.7008 178.859 52.416 179.066 52.1836 179.308C51.9512 179.549 51.7826 179.766 51.6777 179.957C51.6777 180.422 51.7119 180.873 51.7803 181.311C51.8486 181.748 51.9671 182.142 52.1357 182.493C52.3044 182.844 52.5368 183.122 52.833 183.327C53.1338 183.532 53.5143 183.635 53.9746 183.635ZM60.3115 176.949V181.659C60.3115 181.75 60.3092 181.869 60.3047 182.015C60.3001 182.156 60.2933 182.309 60.2842 182.473C60.2751 182.632 60.266 182.787 60.2568 182.938C60.2523 183.083 60.2454 183.204 60.2363 183.3L64.3242 176.949H65.7188V184.441H64.6592V179.848C64.6592 179.702 64.6615 179.515 64.666 179.287C64.6706 179.059 64.6774 178.836 64.6865 178.617C64.6956 178.394 64.7025 178.221 64.707 178.098L60.6328 184.441H59.2314V176.949H60.3115ZM71.6523 176.812C72.5866 176.812 73.3317 177.134 73.8877 177.776C74.4437 178.419 74.7217 179.385 74.7217 180.675C74.7217 181.527 74.5941 182.243 74.3389 182.821C74.0837 183.4 73.7236 183.838 73.2588 184.134C72.7985 184.43 72.2539 184.578 71.625 184.578C71.2285 184.578 70.8799 184.526 70.5791 184.421C70.2783 184.316 70.0208 184.175 69.8066 183.997C69.5924 183.819 69.4147 183.626 69.2734 183.416H69.1914C69.2051 183.594 69.221 183.808 69.2393 184.059C69.262 184.309 69.2734 184.528 69.2734 184.715V187.791H68.1318V176.949H69.0684L69.2188 178.057H69.2734C69.4193 177.829 69.597 177.621 69.8066 177.435C70.0163 177.243 70.2715 177.093 70.5723 176.983C70.8776 176.869 71.2376 176.812 71.6523 176.812ZM71.4541 177.77C70.9346 177.77 70.5153 177.87 70.1963 178.07C69.8818 178.271 69.6517 178.572 69.5059 178.973C69.36 179.369 69.2826 179.868 69.2734 180.47V180.688C69.2734 181.322 69.3418 181.857 69.4785 182.295C69.6198 182.732 69.8499 183.065 70.1689 183.293C70.4925 183.521 70.9255 183.635 71.4678 183.635C71.9326 183.635 72.32 183.509 72.6299 183.259C72.9398 183.008 73.1699 182.66 73.3203 182.213C73.4753 181.762 73.5527 181.244 73.5527 180.661C73.5527 179.777 73.3796 179.075 73.0332 178.556C72.6914 178.032 72.165 177.77 71.4541 177.77ZM83.1641 180.682C83.1641 181.297 83.0843 181.846 82.9248 182.329C82.7653 182.812 82.5352 183.22 82.2344 183.553C81.9336 183.885 81.569 184.141 81.1406 184.318C80.7168 184.492 80.236 184.578 79.6982 184.578C79.1969 184.578 78.7367 184.492 78.3174 184.318C77.9027 184.141 77.5426 183.885 77.2373 183.553C76.9365 183.22 76.7018 182.812 76.5332 182.329C76.3691 181.846 76.2871 181.297 76.2871 180.682C76.2871 179.861 76.4261 179.164 76.7041 178.59C76.9821 178.011 77.3786 177.571 77.8936 177.271C78.4131 176.965 79.0306 176.812 79.7461 176.812C80.4297 176.812 81.0267 176.965 81.5371 177.271C82.0521 177.576 82.4508 178.018 82.7334 178.597C83.0205 179.171 83.1641 179.866 83.1641 180.682ZM77.4629 180.682C77.4629 181.283 77.5426 181.805 77.7021 182.247C77.8617 182.689 78.1077 183.031 78.4404 183.272C78.7731 183.514 79.2015 183.635 79.7256 183.635C80.2451 183.635 80.6712 183.514 81.0039 183.272C81.3411 183.031 81.5895 182.689 81.749 182.247C81.9085 181.805 81.9883 181.283 81.9883 180.682C81.9883 180.085 81.9085 179.57 81.749 179.137C81.5895 178.699 81.3434 178.362 81.0107 178.125C80.6781 177.888 80.2474 177.77 79.7188 177.77C78.9395 177.77 78.3675 178.027 78.0029 178.542C77.6429 179.057 77.4629 179.77 77.4629 180.682ZM89.4941 176.949H90.7451L87.5117 180.565L91.0049 184.441H89.6719L86.2676 180.641V184.441H85.126V176.949H86.2676V180.586L89.4941 176.949Z" fill="#748890"/>
<path d="M136.468 178.875H137.719L134.485 182.491L137.979 186.367H136.646L133.241 182.566V186.367H132.1V178.875H133.241V182.512L136.468 178.875ZM145.792 182.607C145.792 183.223 145.712 183.772 145.553 184.255C145.393 184.738 145.163 185.146 144.862 185.479C144.562 185.811 144.197 186.066 143.769 186.244C143.345 186.417 142.864 186.504 142.326 186.504C141.825 186.504 141.365 186.417 140.945 186.244C140.531 186.066 140.171 185.811 139.865 185.479C139.564 185.146 139.33 184.738 139.161 184.255C138.997 183.772 138.915 183.223 138.915 182.607C138.915 181.787 139.054 181.09 139.332 180.516C139.61 179.937 140.007 179.497 140.521 179.196C141.041 178.891 141.659 178.738 142.374 178.738C143.058 178.738 143.655 178.891 144.165 179.196C144.68 179.502 145.079 179.944 145.361 180.522C145.648 181.097 145.792 181.792 145.792 182.607ZM140.091 182.607C140.091 183.209 140.171 183.731 140.33 184.173C140.49 184.615 140.736 184.957 141.068 185.198C141.401 185.44 141.829 185.561 142.354 185.561C142.873 185.561 143.299 185.44 143.632 185.198C143.969 184.957 144.217 184.615 144.377 184.173C144.536 183.731 144.616 183.209 144.616 182.607C144.616 182.01 144.536 181.495 144.377 181.062C144.217 180.625 143.971 180.288 143.639 180.051C143.306 179.814 142.875 179.695 142.347 179.695C141.567 179.695 140.995 179.953 140.631 180.468C140.271 180.983 140.091 181.696 140.091 182.607ZM148.896 178.875V182.02H153.072V178.875H154.207V186.367H153.072V182.983H148.896V186.367H147.754V178.875H148.896ZM161.72 179.839H159.252V186.367H158.131V179.839H155.697V178.875H161.72V179.839ZM166.088 178.738C166.726 178.738 167.273 178.88 167.729 179.162C168.184 179.445 168.533 179.841 168.774 180.352C169.016 180.857 169.137 181.45 169.137 182.129V182.833H163.962C163.976 183.713 164.194 184.382 164.618 184.843C165.042 185.303 165.639 185.533 166.409 185.533C166.883 185.533 167.302 185.49 167.667 185.403C168.032 185.317 168.41 185.189 168.802 185.021V186.019C168.424 186.187 168.048 186.31 167.674 186.388C167.305 186.465 166.867 186.504 166.361 186.504C165.641 186.504 165.012 186.358 164.475 186.066C163.941 185.77 163.527 185.337 163.23 184.768C162.934 184.198 162.786 183.501 162.786 182.676C162.786 181.869 162.921 181.172 163.189 180.584C163.463 179.992 163.846 179.536 164.338 179.217C164.835 178.898 165.418 178.738 166.088 178.738ZM166.074 179.668C165.468 179.668 164.985 179.866 164.625 180.263C164.265 180.659 164.051 181.213 163.982 181.924H167.947C167.943 181.477 167.872 181.085 167.735 180.748C167.603 180.406 167.4 180.142 167.127 179.955C166.854 179.764 166.503 179.668 166.074 179.668ZM172.145 178.875V183.585C172.145 183.676 172.142 183.795 172.138 183.94C172.133 184.082 172.126 184.234 172.117 184.398C172.108 184.558 172.099 184.713 172.09 184.863C172.085 185.009 172.078 185.13 172.069 185.226L176.157 178.875H177.552V186.367H176.492V181.773C176.492 181.628 176.494 181.441 176.499 181.213C176.504 180.985 176.51 180.762 176.52 180.543C176.529 180.32 176.535 180.146 176.54 180.023L172.466 186.367H171.064V178.875H172.145ZM176.991 175.792C176.95 176.252 176.834 176.637 176.643 176.947C176.456 177.257 176.18 177.492 175.815 177.651C175.451 177.806 174.984 177.884 174.414 177.884C173.826 177.884 173.352 177.809 172.992 177.658C172.637 177.503 172.372 177.271 172.199 176.961C172.031 176.651 171.93 176.261 171.898 175.792H172.965C173.015 176.293 173.149 176.635 173.368 176.817C173.587 177 173.942 177.091 174.435 177.091C174.872 177.091 175.216 176.995 175.467 176.804C175.717 176.612 175.868 176.275 175.918 175.792H176.991ZM181.106 178.875V182.02H185.283V178.875H186.418V186.367H185.283V182.983H181.106V186.367H179.965V178.875H181.106ZM191.709 178.738C192.347 178.738 192.894 178.88 193.35 179.162C193.805 179.445 194.154 179.841 194.396 180.352C194.637 180.857 194.758 181.45 194.758 182.129V182.833H189.583C189.597 183.713 189.815 184.382 190.239 184.843C190.663 185.303 191.26 185.533 192.03 185.533C192.504 185.533 192.924 185.49 193.288 185.403C193.653 185.317 194.031 185.189 194.423 185.021V186.019C194.045 186.187 193.669 186.31 193.295 186.388C192.926 186.465 192.488 186.504 191.982 186.504C191.262 186.504 190.633 186.358 190.096 186.066C189.562 185.77 189.148 185.337 188.852 184.768C188.555 184.198 188.407 183.501 188.407 182.676C188.407 181.869 188.542 181.172 188.811 180.584C189.084 179.992 189.467 179.536 189.959 179.217C190.456 178.898 191.039 178.738 191.709 178.738ZM191.695 179.668C191.089 179.668 190.606 179.866 190.246 180.263C189.886 180.659 189.672 181.213 189.604 181.924H193.568C193.564 181.477 193.493 181.085 193.356 180.748C193.224 180.406 193.021 180.142 192.748 179.955C192.475 179.764 192.124 179.668 191.695 179.668ZM200.206 178.738C201.14 178.738 201.885 179.06 202.441 179.702C202.997 180.345 203.275 181.311 203.275 182.601C203.275 183.453 203.148 184.168 202.893 184.747C202.637 185.326 202.277 185.763 201.812 186.06C201.352 186.356 200.808 186.504 200.179 186.504C199.782 186.504 199.434 186.451 199.133 186.347C198.832 186.242 198.575 186.101 198.36 185.923C198.146 185.745 197.968 185.551 197.827 185.342H197.745C197.759 185.52 197.775 185.734 197.793 185.984C197.816 186.235 197.827 186.454 197.827 186.641V189.717H196.686V178.875H197.622L197.772 179.982H197.827C197.973 179.755 198.151 179.547 198.36 179.36C198.57 179.169 198.825 179.019 199.126 178.909C199.431 178.795 199.791 178.738 200.206 178.738ZM200.008 179.695C199.488 179.695 199.069 179.796 198.75 179.996C198.436 180.197 198.205 180.497 198.06 180.898C197.914 181.295 197.836 181.794 197.827 182.396V182.614C197.827 183.248 197.896 183.783 198.032 184.221C198.174 184.658 198.404 184.991 198.723 185.219C199.046 185.447 199.479 185.561 200.021 185.561C200.486 185.561 200.874 185.435 201.184 185.185C201.493 184.934 201.724 184.585 201.874 184.139C202.029 183.688 202.106 183.17 202.106 182.587C202.106 181.703 201.933 181.001 201.587 180.481C201.245 179.957 200.719 179.695 200.008 179.695ZM211.718 182.607C211.718 183.223 211.638 183.772 211.479 184.255C211.319 184.738 211.089 185.146 210.788 185.479C210.487 185.811 210.123 186.066 209.694 186.244C209.271 186.417 208.79 186.504 208.252 186.504C207.751 186.504 207.29 186.417 206.871 186.244C206.456 186.066 206.096 185.811 205.791 185.479C205.49 185.146 205.256 184.738 205.087 184.255C204.923 183.772 204.841 183.223 204.841 182.607C204.841 181.787 204.98 181.09 205.258 180.516C205.536 179.937 205.932 179.497 206.447 179.196C206.967 178.891 207.584 178.738 208.3 178.738C208.983 178.738 209.58 178.891 210.091 179.196C210.606 179.502 211.005 179.944 211.287 180.522C211.574 181.097 211.718 181.792 211.718 182.607ZM206.017 182.607C206.017 183.209 206.096 183.731 206.256 184.173C206.415 184.615 206.661 184.957 206.994 185.198C207.327 185.44 207.755 185.561 208.279 185.561C208.799 185.561 209.225 185.44 209.558 185.198C209.895 184.957 210.143 184.615 210.303 184.173C210.462 183.731 210.542 183.209 210.542 182.607C210.542 182.01 210.462 181.495 210.303 181.062C210.143 180.625 209.897 180.288 209.564 180.051C209.232 179.814 208.801 179.695 208.272 179.695C207.493 179.695 206.921 179.953 206.557 180.468C206.197 180.983 206.017 181.696 206.017 182.607ZM219.634 180.755C219.634 181.224 219.497 181.591 219.224 181.855C218.95 182.115 218.597 182.291 218.164 182.382V182.437C218.633 182.5 219.037 182.669 219.374 182.942C219.716 183.211 219.887 183.624 219.887 184.18C219.887 184.608 219.784 184.986 219.579 185.314C219.374 185.643 219.053 185.9 218.615 186.087C218.178 186.274 217.608 186.367 216.906 186.367H213.68V178.875H216.879C217.417 178.875 217.891 178.937 218.301 179.06C218.715 179.178 219.041 179.374 219.278 179.647C219.515 179.921 219.634 180.29 219.634 180.755ZM218.704 184.18C218.704 183.738 218.535 183.419 218.198 183.223C217.866 183.027 217.38 182.929 216.742 182.929H214.821V185.444H216.77C217.398 185.444 217.877 185.349 218.205 185.157C218.538 184.961 218.704 184.635 218.704 184.18ZM218.479 180.885C218.479 180.529 218.349 180.265 218.089 180.092C217.829 179.914 217.403 179.825 216.811 179.825H214.821V181.979H216.612C217.228 181.979 217.692 181.89 218.007 181.712C218.321 181.534 218.479 181.258 218.479 180.885Z" fill="#748890"/>
<path d="M17.6715 17.4817L26.0629 19.8831L15.4904 57.7661C14.8425 60.0876 12.4388 61.432 10.1216 60.7689C7.80437 60.1057 6.45111 57.6862 7.09901 55.3646L17.6715 17.4817Z" stroke="#9AA3AD"/>
<rect width="11.4971" height="11.6206" rx="1" transform="matrix(0.961407 0.275131 -0.268811 0.963193 19.3584 6.28613)" fill="#748890"/>
<rect width="7.9595" height="1.78779" rx="0.893894" transform="matrix(0.961407 0.275131 -0.268811 0.963193 21.2979 5.91284)" fill="#748890"/>
<path d="M85.7057 21.0608L94.0971 23.4622L83.5246 61.3452C82.8767 63.6667 80.473 65.0111 78.1558 64.348C75.8386 63.6848 74.4853 61.2653 75.1332 58.9437L85.7057 21.0608Z" stroke="#9AA3AD"/>
<rect width="11.4971" height="11.6206" rx="1" transform="matrix(0.961407 0.275131 -0.268811 0.963193 87.3916 9.86572)" fill="#748890"/>
<rect width="7.9595" height="1.78779" rx="0.893894" transform="matrix(0.961407 0.275131 -0.268811 0.963193 89.3311 9.4917)" fill="#748890"/>
<path d="M152.856 25.5342L161.247 27.9356L150.675 65.8185C150.027 68.1401 147.623 69.4845 145.306 68.8214C142.989 68.1582 141.636 65.7387 142.284 63.4171L152.856 25.5342Z" stroke="#9AA3AD"/>
<rect width="11.4971" height="11.6206" rx="1" transform="matrix(0.961407 0.275131 -0.268811 0.963193 154.542 14.3384)" fill="#748890"/>
<rect width="7.9595" height="1.78779" rx="0.893894" transform="matrix(0.961407 0.275131 -0.268811 0.963193 156.482 13.9656)" fill="#748890"/>
<path d="M220.89 31.7976L229.282 34.199L218.709 72.082C218.061 74.4035 215.658 75.7479 213.34 75.0848C211.023 74.4216 209.67 72.0021 210.318 69.6806L220.89 31.7976Z" stroke="#9AA3AD"/>
<rect width="11.4971" height="11.6206" rx="1" transform="matrix(0.961407 0.275131 -0.268811 0.963193 222.577 20.603)" fill="#748890"/>
<rect width="7.9595" height="1.78779" rx="0.893894" transform="matrix(0.961407 0.275131 -0.268811 0.963193 224.516 20.2288)" fill="#748890"/>
<path d="M288.924 36.2708L297.316 38.6722L286.743 76.5551C286.095 78.8767 283.692 80.2211 281.375 79.5579C279.057 78.8948 277.704 76.4752 278.352 74.1537L288.924 36.2708Z" stroke="#9AA3AD"/>
<rect width="11.4971" height="11.6206" rx="1" transform="matrix(0.961407 0.275131 -0.268811 0.963193 290.61 25.0752)" fill="#748890"/>
<rect width="7.9595" height="1.78779" rx="0.893894" transform="matrix(0.961407 0.275131 -0.268811 0.963193 292.551 24.7017)" fill="#748890"/>
<path d="M34.4596 19.2713L42.851 21.6727L32.2785 59.5556C31.6306 61.8771 29.2269 63.2215 26.9097 62.5584C24.5925 61.8953 23.2392 59.4757 23.8871 57.1542L34.4596 19.2713Z" stroke="#9AA3AD"/>
<rect width="11.4971" height="11.6206" rx="1" transform="matrix(0.961407 0.275131 -0.268811 0.963193 36.1455 8.07568)" fill="#748890"/>
<rect width="7.9595" height="1.78779" rx="0.893894" transform="matrix(0.961407 0.275131 -0.268811 0.963193 38.0859 7.70239)" fill="#748890"/>
<path d="M102.493 21.9553L110.884 24.3568L100.312 62.2397C99.6638 64.5612 97.2601 65.9056 94.9429 65.2425C92.6257 64.5794 91.2724 62.1598 91.9203 59.8383L102.493 21.9553Z" stroke="#9AA3AD"/>
<rect width="11.4971" height="11.6206" rx="1" transform="matrix(0.961407 0.275131 -0.268811 0.963193 104.18 10.7607)" fill="#748890"/>
<rect width="7.9595" height="1.78779" rx="0.893894" transform="matrix(0.961407 0.275131 -0.268811 0.963193 106.118 10.3865)" fill="#748890"/>
<path d="M169.644 28.2185L178.036 30.6199L167.463 68.5029C166.815 70.8244 164.411 72.1688 162.094 71.5057C159.777 70.8425 158.424 68.423 159.072 66.1015L169.644 28.2185Z" stroke="#9AA3AD"/>
<rect width="11.4971" height="11.6206" rx="1" transform="matrix(0.961407 0.275131 -0.268811 0.963193 171.33 17.0234)" fill="#748890"/>
<rect width="7.9595" height="1.78779" rx="0.893894" transform="matrix(0.961407 0.275131 -0.268811 0.963193 173.27 16.6494)" fill="#748890"/>
<path d="M237.677 32.6922L246.069 35.0936L235.496 72.9765C234.848 75.298 232.445 76.6424 230.127 75.9793C227.81 75.3162 226.457 72.8966 227.105 70.5751L237.677 32.6922Z" stroke="#9AA3AD"/>
<rect width="11.4971" height="11.6206" rx="1" transform="matrix(0.961407 0.275131 -0.268811 0.963193 239.363 21.4963)" fill="#748890"/>
<rect width="7.9595" height="1.78779" rx="0.893894" transform="matrix(0.961407 0.275131 -0.268811 0.963193 241.304 21.1233)" fill="#748890"/>
<path d="M305.713 36.2705L314.104 38.6719L303.531 76.5549C302.884 78.8764 300.48 80.2208 298.163 79.5577C295.845 78.8945 294.492 76.475 295.14 74.1535L305.713 36.2705Z" stroke="#9AA3AD"/>
<rect width="11.4971" height="11.6206" rx="1" transform="matrix(0.961407 0.275131 -0.268811 0.963193 307.398 25.0754)" fill="#748890"/>
<rect width="7.9595" height="1.78779" rx="0.893894" transform="matrix(0.961407 0.275131 -0.268811 0.963193 309.338 24.7014)" fill="#748890"/>
<path d="M51.2467 19.2713L59.6381 21.6727L49.0656 59.5556C48.4177 61.8771 46.014 63.2215 43.6968 62.5584C41.3796 61.8953 40.0263 59.4757 40.6742 57.1542L51.2467 19.2713Z" stroke="#9AA3AD"/>
<rect width="11.4971" height="11.6206" rx="1" transform="matrix(0.961407 0.275131 -0.268811 0.963193 52.9326 8.07617)" fill="#748890"/>
<rect width="7.9595" height="1.78779" rx="0.893894" transform="matrix(0.961407 0.275131 -0.268811 0.963193 54.8721 7.70215)" fill="#748890"/>
<path d="M119.281 22.8509L127.672 25.2523L117.1 63.1352C116.452 65.4567 114.048 66.8011 111.731 66.138C109.414 65.4749 108.06 63.0553 108.708 60.7338L119.281 22.8509Z" stroke="#9AA3AD"/>
<rect width="11.4971" height="11.6206" rx="1" transform="matrix(0.961407 0.275131 -0.268811 0.963193 120.967 11.6562)" fill="#748890"/>
<rect width="7.9595" height="1.78779" rx="0.893894" transform="matrix(0.961407 0.275131 -0.268811 0.963193 122.906 11.282)" fill="#748890"/>
<path d="M186.43 29.1135L194.822 31.515L184.249 69.3979C183.601 71.7194 181.198 73.0638 178.88 72.4007C176.563 71.7376 175.21 69.318 175.858 66.9965L186.43 29.1135Z" stroke="#9AA3AD"/>
<rect width="11.4971" height="11.6206" rx="1" transform="matrix(0.961407 0.275131 -0.268811 0.963193 188.118 17.9189)" fill="#748890"/>
<rect width="7.9595" height="1.78779" rx="0.893894" transform="matrix(0.961407 0.275131 -0.268811 0.963193 190.058 17.5444)" fill="#748890"/>
<path d="M254.464 34.4815L262.856 36.8829L252.283 74.7658C251.636 77.0873 249.232 78.4317 246.915 77.7686C244.597 77.1055 243.244 74.6859 243.892 72.3644L254.464 34.4815Z" stroke="#9AA3AD"/>
<rect width="11.4971" height="11.6206" rx="1" transform="matrix(0.961407 0.275131 -0.268811 0.963193 256.15 23.2864)" fill="#748890"/>
<rect width="7.9595" height="1.78779" rx="0.893894" transform="matrix(0.961407 0.275131 -0.268811 0.963193 258.09 22.9124)" fill="#748890"/>
<path d="M322.5 36.2708L330.891 38.6722L320.319 76.5551C319.671 78.8767 317.267 80.2211 314.95 79.5579C312.632 78.8948 311.279 76.4752 311.927 74.1537L322.5 36.2708Z" stroke="#9AA3AD"/>
<rect width="11.4971" height="11.6206" rx="1" transform="matrix(0.961407 0.275131 -0.268811 0.963193 324.186 25.0747)" fill="#748890"/>
<rect width="7.9595" height="1.78779" rx="0.893894" transform="matrix(0.961407 0.275131 -0.268811 0.963193 326.126 24.7019)" fill="#748890"/>
<path d="M68.0338 20.1665L76.4252 22.5679L65.8527 60.4509C65.2048 62.7724 62.8011 64.1168 60.4839 63.4537C58.1667 62.7905 56.8134 60.371 57.4613 58.0495L68.0338 20.1665Z" stroke="#9AA3AD"/>
<rect width="11.4971" height="11.6206" rx="1" transform="matrix(0.961407 0.275131 -0.268811 0.963193 69.7197 8.97217)" fill="#748890"/>
<rect width="7.9595" height="1.78779" rx="0.893894" transform="matrix(0.961407 0.275131 -0.268811 0.963193 71.6602 8.59766)" fill="#748890"/>
<path d="M136.07 23.7451L144.461 26.1466L133.889 64.0295C133.241 66.351 130.837 67.6954 128.52 67.0323C126.203 66.3692 124.85 63.9496 125.497 61.6281L136.07 23.7451Z" stroke="#9AA3AD"/>
<rect width="11.4971" height="11.6206" rx="1" transform="matrix(0.961407 0.275131 -0.268811 0.963193 137.756 12.55)" fill="#748890"/>
<rect width="7.9595" height="1.78779" rx="0.893894" transform="matrix(0.961407 0.275131 -0.268811 0.963193 139.695 12.176)" fill="#748890"/>
<path d="M203.218 30.0081L211.61 32.4095L201.037 70.2924C200.389 72.614 197.986 73.9584 195.668 73.2952C193.351 72.6321 191.998 70.2125 192.646 67.891L203.218 30.0081Z" stroke="#9AA3AD"/>
<rect width="11.4971" height="11.6206" rx="1" transform="matrix(0.961407 0.275131 -0.268811 0.963193 204.904 18.8125)" fill="#748890"/>
<rect width="7.9595" height="1.78779" rx="0.893894" transform="matrix(0.961407 0.275131 -0.268811 0.963193 206.845 18.439)" fill="#748890"/>
<path d="M271.253 35.3765L279.644 37.7779L269.071 75.6608C268.424 77.9824 266.02 79.3268 263.703 78.6636C261.385 78.0005 260.032 75.581 260.68 73.2594L271.253 35.3765Z" stroke="#9AA3AD"/>
<rect width="11.4971" height="11.6206" rx="1" transform="matrix(0.961407 0.275131 -0.268811 0.963193 272.939 24.1819)" fill="#748890"/>
<rect width="7.9595" height="1.78779" rx="0.893894" transform="matrix(0.961407 0.275131 -0.268811 0.963193 274.879 23.8074)" fill="#748890"/>
<path d="M339.287 35.3762L347.678 37.7777L337.106 75.6606C336.458 77.9821 334.054 79.3265 331.737 78.6634C329.42 78.0003 328.066 75.5807 328.714 73.2592L339.287 35.3762Z" stroke="#9AA3AD"/>
<rect width="11.4971" height="11.6206" rx="1" transform="matrix(0.961407 0.275131 -0.268811 0.963193 340.974 24.1814)" fill="#748890"/>
<rect width="7.9595" height="1.78779" rx="0.893894" transform="matrix(0.961407 0.275131 -0.268811 0.963193 342.912 23.8074)" fill="#748890"/>
<path fill-rule="evenodd" clip-rule="evenodd" d="M0.92585 89.5298C0.92585 66.3358 0.92585 29.4992 0.92585 6.30551C0.92585 3.32149 2.94982 0.953125 8.15537 0.953125H355.233V89.5299C298.564 89.5299 89.4053 89.5299 32.7366 89.5299C29.5488 89.5299 30.4813 84.8988 29.8447 84.5471L15.1924 89.5299H0.925781L0.92585 89.5298Z" stroke="#9AA3AD" stroke-linecap="round" stroke-linejoin="round"/>
<path fill-rule="evenodd" clip-rule="evenodd" d="M0.92585 79.9017C0.92585 60.9939 0.92585 30.9638 0.92585 12.0556C0.92585 9.62343 2.94982 7.69263 8.15537 7.69263H355.233V79.9019C298.564 79.9019 89.4053 79.9019 32.7366 79.9019C29.5488 79.9019 30.4813 76.1264 29.8447 75.8398L15.1924 79.9019H0.925781L0.92585 79.9017Z" stroke="#9AA3AD" stroke-linecap="round" stroke-linejoin="round"/>
<path d="M250.289 79.9019L0.925781 63.5344" stroke="#9AA3AD" stroke-linecap="round" stroke-linejoin="round"/>
<path d="M355.233 23.0973L124.163 7.69263" stroke="#9AA3AD" stroke-linecap="round" stroke-linejoin="round"/>
</svg>
