<svg xmlns="http://www.w3.org/2000/svg" fill="none" viewBox="0 0 109 67">
  <g fill="#fff" clip-path="url(#a)">
    <path d="M36.12 36.63h-4.5V23.29h5.6v-2.2H27.15v34.38h4.47V38.83h4.5v-2.2ZM49.56 23.3v-2.21h-10.1v34.38h10.1v-2.2h-5.6V38.83h4.47v-2.2h-4.47V23.29h5.6ZM61.86 53.27h-5.6V21.09H51.8v34.38h10.07v-2.2ZM62.97 55.47h4.5V21.1h-4.5v34.38ZM78.67 21.09l-2.4 9.17-2.1-9.17H69.7l4.19 18.34-4.19 16.04h3.37l2.4-9.17 2.07 9.17H82l-4.19-18.34 4.19-16.04h-3.34ZM22.68 55.47h2.24V21.1h-2.24v34.38ZM18.18 55.47h2.27v-14.4h-2.27v14.4ZM18.18 38.83h2.27V21.1h-2.27v17.74ZM7 55.47h2.24V21.1H7.01v34.38ZM11.48 55.47h4.47V34.4h-4.47v21.08ZM11.48 32.18h4.47v-11.1h-4.47v11.1ZM.3 45.48h4.47v-24.4H.31v24.4ZM.3 55.47h4.47v-7.75H.31v7.75ZM104.42 38.83h4.46V21.1h-4.46v17.74ZM104.42 55.47h4.46v-14.4h-4.46v14.4ZM84.24 55.47h2.27V21.1h-2.27v34.38ZM88.74 55.47h2.24v-8.85h-2.24v8.85ZM88.74 44.38h2.24v-23.3h-2.24v23.3ZM93.21 55.47h4.47V34.4h-4.47v21.08ZM93.21 32.18h4.47v-11.1h-4.47v11.1ZM99.95 55.47h2.23V21.1h-2.23v34.38ZM6.85 19.2H9.1v-60.6H6.85v60.6ZM.12 19.2h4.47v-37.32H.12V19.2ZM18.02 19.2h2.24v-83.93h-2.24V19.2ZM11.29 2.97h4.5v-111.03h-4.5V2.97ZM11.29 19.2h4.5V5.17h-4.5V19.2ZM22.68 19.2h2.24v-60.6h-2.24v60.6ZM33.82 19.2h3.43v-83.93h-3.43V19.2ZM27.12 19.2h4.47v-127.26h-4.47V19.2ZM43.74 19.2h2.23v-127.26h-2.23V19.2ZM39.46 19.2h2.92v-37.32h-2.92V19.2ZM51.8 19.2h4.46v-60.6H51.8v60.6ZM99.95 2.97h2.23v-111.03h-2.23V2.97ZM99.95 19.2h2.23V5.17h-2.23V19.2ZM104.42 19.2h4.46v-60.6h-4.46v60.6ZM88.74 19.2h2.24v-37.32h-2.24V19.2ZM93.21 19.2h4.47v-83.93h-4.47V19.2ZM84.24 19.2h2.27v-60.6h-2.27v60.6ZM77.54 19.2H82v-127.26h-4.47V19.2ZM73.6 19.2h2.27v-127.26H73.6V19.2ZM58.5 2.97h2.23v-111.03H58.5V2.97ZM58.5 19.2h2.23V5.17H58.5V19.2ZM63 19.2h4.47v-83.93H63V19.2ZM69.7 19.2h2.24v-37.32H69.7V19.2ZM47.3 2.97h2.23v-111.03h-2.24V2.97ZM47.3 19.2h2.23V5.17h-2.24V19.2ZM6.2 65.62H2.97a.24.24 0 0 1-.13-.06l-.56-.6c-.03-.07-.06-.1-.06-.13V59.7c0-.15-.07-.22-.22-.22H.53c-.16 0-.22.07-.22.22v5.49c0 .12.03.22.09.28l1.23 1.32c.1.1.19.16.34.16H6.2c.13 0 .22-.1.22-.25v-.82c0-.16-.1-.25-.22-.25ZM12.49 64.23H9.4l1.13-3.5H11.35l1.14 3.5Zm2.6 1.99-2.07-6.5c-.06-.22-.22-.25-.35-.25H9.5c-.07 0-.13 0-.22.07a.21.21 0 0 0-.13.19l-2.08 6.49c0 .06-.03.1-.03.16-.03.03-.03.09-.03.15v.16c0 .16.1.25.22.25h1.16c.07 0 .16-.03.2-.19l.43-1.32h3.84l.44 1.32c.07.16.16.2.22.2h1.42c.13 0 .22-.1.22-.26v-.16c0-.06 0-.12-.03-.15 0-.07-.03-.1-.03-.16ZM22.34 63.8v1.28c0 .07 0 .1-.04.13l-.4.44s-.04.03-.07.03h-3.68c-.06 0-.1 0-.1-.12v-2.12h3.78l.5.29v.06Zm-4.28-1.24v-1.7c0-.13.03-.13.06-.13h2.8c.06 0 .1 0 .13.04l.5.56c.03.03.06.1.06.13v1.1h-3.55Zm6 .54-.94-.54v-1.45c0-.12-.03-.22-.1-.28l-1.1-1.23c-.09-.1-.18-.13-.34-.13h-5.13c-.13 0-.35.03-.35.38v6.68c0 .35.22.41.35.41h6.61c.1 0 .19-.03.25-.12l.82-.92c.06-.1.1-.16.1-.28v-2.24c0-.16-.1-.25-.16-.28ZM31.8 65.68h-4.05c-.03 0-.06-.03-.1-.06l-.6-.63c-.03-.03-.03-.1-.03-.13v-1.13h4.73c.12 0 .22-.1.22-.25v-.73c0-.16-.1-.25-.22-.25h-4.73v-1.14c0-.03 0-.09.04-.12l.44-.47c.03-.04.06-.04.1-.04h4.2c.13 0 .23-.1.23-.25v-.79c0-.15-.1-.22-.22-.22H26.4a.4.4 0 0 0-.32.13l-.88.98c-.1.1-.13.19-.13.28v4.32c0 .12.04.22.13.28l1.23 1.32c.1.1.22.16.34.16h5.04c.12 0 .22-.1.22-.25v-.79c0-.12-.1-.22-.22-.22ZM38.92 65.62h-3.2c-.07 0-.1-.03-.13-.06l-.6-.6c-.03-.07-.03-.1-.03-.13V59.7c0-.15-.1-.22-.22-.22h-1.48c-.16 0-.22.07-.22.22v5.49c0 .12.03.22.09.28l1.23 1.32c.1.1.19.16.31.16h4.25c.13 0 .22-.1.22-.25v-.82c0-.16-.1-.25-.22-.25ZM45.81 65.62h-3.2a.24.24 0 0 1-.13-.06l-.57-.6c-.03-.07-.06-.1-.06-.13V59.7c0-.15-.06-.22-.22-.22h-1.48c-.13 0-.22.07-.22.22v5.49c0 .12.03.22.1.28l1.22 1.32c.1.1.22.16.35.16h4.21c.13 0 .22-.1.22-.25v-.82c0-.16-.09-.25-.22-.25ZM53.5 65.68h-4.07c-.03 0-.06-.03-.1-.06l-.59-.63c-.03-.03-.03-.1-.03-.13v-1.13h4.72c.13 0 .22-.1.22-.25v-.73c0-.16-.1-.25-.22-.25h-4.72v-1.14c0-.03 0-.09.03-.12l.44-.47c.03-.04.06-.04.1-.04h4.21c.13 0 .22-.1.22-.25v-.79c0-.15-.1-.22-.22-.22h-5.41a.4.4 0 0 0-.32.13l-.88.98c-.1.1-.12.19-.12.28v4.32c0 .12.03.22.12.28l1.23 1.32c.1.1.22.16.35.16h5.03c.16 0 .22-.1.22-.25v-.79c0-.12-.06-.22-.22-.22ZM60.51 61.33v1.07c0 .04 0 .07-.03.1l-.54.57h-3.3v-2.21c0-.13.03-.13.06-.13h3.24c.07 0 .07 0 .1.04l.44.47c.03.03.03.06.03.1Zm2.05 4.89-1.01-2.46.75-.79c.1-.1.13-.25.13-.4v-1.71a.5.5 0 0 0-.1-.28l-.9-.98a.4.4 0 0 0-.32-.13h-6.04c-.13 0-.35.03-.35.38v6.84c0 .16.06.25.22.25h1.48c.13 0 .22-.1.22-.25v-2.4h3.21l.91 2.5c.07.12.16.15.22.15h1.42c.13 0 .19-.06.19-.1.03-.06.03-.12.03-.18v-.28c0-.04-.03-.1-.06-.16ZM72.79 61.33v1.07c0 .04-.04.07-.07.1l-.53.57h-3.3v-2.21c0-.13.06-.13.09-.13h3.24c.03 0 .06 0 .1.04l.4.47c.03.03.07.06.07.1Zm2.04 4.89-1.04-2.46.76-.79a.6.6 0 0 0 .16-.4v-1.71a.5.5 0 0 0-.1-.28l-.91-.98a.47.47 0 0 0-.35-.13h-6.04c-.13 0-.35.03-.35.38v6.84c0 .16.1.25.22.25h1.48c.13 0 .22-.1.22-.25v-2.4h3.21l.95 2.5c.03.12.12.15.22.15h1.41c.13 0 .16-.06.2-.1.02-.06.02-.12.02-.18v-.1c0-.09 0-.12-.03-.18 0-.04-.03-.1-.03-.16ZM81.38 61.4v3.62c0 .03-.03.1-.07.13l-.4.47c-.04.03-.07.06-.13.06h-2.7c-.07 0-.1-.03-.13-.06l-.44-.47c-.04-.04-.04-.1-.04-.13V61.4c0-.07 0-.1.04-.16l.44-.44c.03-.07.06-.07.12-.07h2.7c.07 0 .1 0 .13.07l.41.44c.04.06.07.1.07.16Zm.88-1.83c-.06-.07-.16-.1-.29-.1h-5.1c-.12 0-.21.03-.28.1l-.9 1a.4.4 0 0 0-.14.32v4.6c0 .13.04.25.13.35l.91.98c.07.1.16.12.29.12h5.1c.12 0 .22-.03.28-.12l.91-.98c.06-.1.13-.22.13-.35v-4.6c0-.12-.07-.22-.13-.31l-.91-1.01ZM90.6 63.8v1.28c0 .07 0 .1-.03.13l-.41.44c-.03 0-.03.03-.07.03h-3.7c-.04 0-.1 0-.1-.12v-2.12h3.8l.48.29c.03.03.03.03.03.06Zm-4.31-1.24v-1.7c0-.13.06-.13.1-.13h2.76c.06 0 .1 0 .13.04l.5.56c.06.03.06.1.06.13v1.1H86.3Zm6.04.54-.95-.54v-1.45c0-.12-.03-.22-.09-.28l-1.13-1.23c-.07-.1-.2-.13-.32-.13h-5.13c-.12 0-.34.03-.34.38v6.68c0 .35.22.41.34.41h6.58c.13 0 .19-.03.25-.12l.85-.92c.06-.1.1-.16.1-.28v-2.24c0-.16-.1-.25-.16-.28ZM99.16 61.4v3.62c0 .03-.03.1-.06.13l-.41.47a.24.24 0 0 1-.13.06h-2.74c-.03 0-.06-.03-.1-.06l-.43-.47c-.03-.04-.03-.1-.03-.13V61.4c0-.07 0-.1.03-.16l.44-.44c.03-.07.06-.07.1-.07h2.73c.03 0 .1 0 .13.07l.4.44c.04.06.07.1.07.16Zm.88-1.83a.5.5 0 0 0-.28-.1h-5.1c-.13 0-.22.03-.28.1l-.92 1a.4.4 0 0 0-.12.32v4.6c0 .13.03.25.12.35l.92.98c.06.1.15.12.28.12h5.1c.1 0 .19-.03.28-.12l.91-.98c.07-.1.1-.22.1-.35v-4.6a.53.53 0 0 0-.1-.31l-.91-1.01ZM108.66 59.47h-6.64c-.16 0-.25.07-.25.22v.85c0 .13.1.23.25.23h2.36v5.92c0 .16.07.25.22.25h1.48c.16 0 .22-.1.22-.25v-5.92h2.36c.13 0 .22-.07.22-.23v-.85c0-.15-.1-.22-.22-.22Z"/>
  </g>
  <defs>
    <clipPath id="a">
      <path fill="#fff" d="M0 0h109v67H0z"/>
    </clipPath>
  </defs>
</svg>