<svg xmlns="http://www.w3.org/2000/svg" xmlns:xlink="http://www.w3.org/1999/xlink"><symbol fill="none" viewBox="0 0 305 199" id="ill-1"><path stroke="#F0F0F0" stroke-linecap="round" stroke-linejoin="round" d="M42.79 4.12h6.48c.22 0 .4.18.4.41v81.09h-7.29V4.53a.4.4 0 01.4-.41h0zm9.68 0h6.48c.23 0 .4.18.4.41v81.09h-7.28V4.53a.4.4 0 01.4-.41h0zm19.37 0h6.48c.22 0 .4.18.4.41v81.09h-7.29V4.53a.4.4 0 01.4-.41h0zm19.36 0h6.49c.22 0 .4.18.4.41v81.09h-7.3V4.53a.4.4 0 01.41-.41h0zm19.37 0h6.48c.23 0 .4.18.4.41v81.09h-7.28V4.53a.4.4 0 01.4-.41h0zm19.37 0h6.48c.22 0 .4.18.4.41v81.09h-7.29V4.53a.4.4 0 01.4-.41h0zm19.36 0h6.49c.22 0 .4.18.4.41v81.09h-7.29V4.53a.4.4 0 01.4-.41h0zm-87.14 0h6.48c.22 0 .4.18.4.41v81.09h-7.29V4.53a.4.4 0 01.4-.41h0zm19.36 0H88c.23 0 .4.18.4.41v81.09h-7.28V4.53a.4.4 0 01.4-.41h0zm19.37 0h6.48c.22 0 .4.18.4.41v81.09a.4.4 0 01-.4.4h-6.48a.4.4 0 01-.4-.4V4.53a.4.4 0 01.4-.41v0zm19.36 0h6.49c.22 0 .4.18.4.41v81.09h-7.29V4.53a.4.4 0 01.4-.41v0zm19.37 0h6.48c.22 0 .4.18.4.41v81.09h-7.28V4.53a.4.4 0 01.4-.41v0zm43.45 151.7h25.59a.7.7 0 01.68.7v5.16c0 1.32-1.06 2.4-2.35 2.4h-23.92v-8.26h0z" clip-rule="evenodd"/><path stroke="#F0F0F0" stroke-linecap="round" stroke-linejoin="round" d="M36.69 85.62h146.38c.48 0 .72.07.89.36l18.92 34.48c.63 1.1.44 1.91.08 2.54l-3.85 6.55c-1.03 1.81-2.27 1.66-3.66 1.66h-6.04c-2.51 0-6.34.19-6.34 8.97v23.9H36.69V85.62h0z" clip-rule="evenodd"/><path stroke="#F0F0F0" stroke-linecap="round" stroke-linejoin="round" d="M43 121.3h124.9c1.44 0 2.61 1.2 2.61 2.65v35.23a2.63 2.63 0 01-2.6 2.65H43c-1.43 0-2.6-1.2-2.6-2.65v-35.23a2.63 2.63 0 012.6-2.65v0z" clip-rule="evenodd"/><path stroke="#F0F0F0" stroke-linecap="round" stroke-linejoin="round" d="M47.43 130.33h47.14a1 1 0 01.98 1v13.3a1 1 0 01-.98 1H47.43a1 1 0 01-.98-1v-13.3a1 1 0 01.98-1v0z" clip-rule="evenodd"/><path stroke="#F0F0F0" stroke-linecap="round" stroke-linejoin="round" d="M164.04 121.3V85.62"/><path stroke="#F0F0F0" stroke-linecap="round" stroke-linejoin="round" d="M298.86 130.07l.27 32.13c0 1.03-.84 1.87-1.86 1.87h-57.09a1.88 1.88 0 01-1.86-1.87l-.29-34.53.29 1.68c.5 1.52 1.12 2 2.55 2l27.92.07h27.67c.9 0 1.85-.24 2.4-1.35h0z" clip-rule="evenodd"/><path stroke="#F0F0F0" stroke-linecap="round" stroke-linejoin="round" d="M300.94 119.5h-.03c-.38 1.42-1.94 2.47-3.68 2.47h-56.96a3.95 3.95 0 01-3.4-1.79h-.11l1.56 9.17c.5 1.53 1.12 2 2.55 2l27.92.07h27.67c1.07 0 2.21-.33 2.67-2.07l1.81-9.84h0zm-35.64 32.07h17.76c.38 0 .7.31.7.7v9.53a2.4 2.4 0 01-2.39 2.38h-32.14a2.4 2.4 0 01-2.38-2.38v-9.53c0-.39.3-.7.7-.7h17.75z" clip-rule="evenodd"/><path stroke="#F0F0F0" stroke-linecap="round" stroke-linejoin="round" d="M265.3 155.95h17.76c.38 0 .7.32.7.7v5.15a2.4 2.4 0 01-2.39 2.38h-32.14a2.4 2.4 0 01-2.38-2.38v-5.15c0-.38.3-.7.7-.7h17.75zm-23.07-69.98h52.88c2.07 0 3.63 1.5 3.76 3.31l2.12 29.38c.13 1.82-1.7 3.31-3.76 3.31h-56.96c-2.07 0-3.89-1.49-3.77-3.3l1.96-29.39a3.65 3.65 0 013.77-3.3h0z" clip-rule="evenodd"/><path stroke="#F0F0F0" stroke-linecap="round" stroke-linejoin="round" d="M243.47 89h50.33c1.9 0 2.34 1.07 2.42 2.37l1.26 19.4c.08 1.3-.44 2.38-2.34 2.38H242.1c-1.9 0-2.56-1.07-2.47-2.37l1.27-19.4c.09-1.31.67-2.38 2.57-2.38h0z" clip-rule="evenodd"/><path stroke="#F0F0F0" stroke-linecap="round" stroke-linejoin="round" d="M268.81 120.13a2 2 0 100-4 2 2 0 000 4z"/><path stroke="#F0F0F0" stroke-linecap="round" stroke-linejoin="round" d="M246.53 4.73h34.98c1.25 0 2.25.82 2.25 2.91v78.33h-37.23V17.54c0-1.29 1.95-.91 2.1-1.17l-2.1-5.9V4.73h0z" clip-rule="evenodd"/><path stroke="#F0F0F0" stroke-width=".5" d="M33.72 2.29h-14.2m14.2 162.68h-14.2m17.25 3.53v14.09m171.41-14.09v14.09"/><path stroke="#F0F0F0" d="M34.36 178.68h177.45m-1.53-2.28l-3.52 4.56M38.78 176.4l-3.51 4.56M23.55 0v168.41m2.3-1.45l-4.6-3.33M25.85 4.2L21.25.86"/><path fill="#F0F0F0" d="M119.71 190.86c.88 0 1.63.15 2.28.45.64.3 1.14.72 1.5 1.28.35.57.53 1.25.53 2.05 0 .88-.2 1.64-.57 2.28a3.79 3.79 0 01-1.65 1.47c-.71.34-1.57.5-2.56.5-.67 0-1.3-.05-1.87-.17a4.62 4.62 0 01-1.45-.53v-1.38a7.29 7.29 0 003.33.84c.66 0 1.22-.1 1.71-.3.5-.22.87-.54 1.14-.96.28-.43.42-.96.42-1.6a2.5 2.5 0 00-.8-1.98c-.52-.47-1.34-.7-2.47-.7a10.06 10.06 0 00-2.27.28l-.74-.49.5-6.03h6.38v1.34h-5.14l-.33 3.87a12.15 12.15 0 012.06-.22zm10.49-5.17c.74 0 1.4.11 1.98.35a2.77 2.77 0 011.84 2.7c0 .53-.12.98-.35 1.38-.22.38-.52.72-.9 1.02-.39.28-.8.54-1.27.77a8.8 8.8 0 011.48.85c.45.32.8.69 1.06 1.12.26.43.39.93.39 1.52a3.3 3.3 0 01-.53 1.87c-.35.52-.84.92-1.46 1.2-.63.29-1.36.43-2.2.43-.92 0-1.69-.14-2.33-.4a3.2 3.2 0 01-1.45-1.19 3.38 3.38 0 01-.49-1.85 3 3 0 01.38-1.54c.25-.44.58-.81 1-1.13.42-.32.87-.58 1.36-.8-.43-.24-.82-.5-1.18-.8a3.07 3.07 0 01-1.15-2.45c0-.65.17-1.2.5-1.66.33-.45.78-.8 1.36-1.03a5.09 5.09 0 011.96-.36zm-2.8 9.78c0 .66.23 1.2.7 1.63.46.42 1.16.63 2.1.63.89 0 1.58-.21 2.06-.63.49-.43.73-1 .73-1.68 0-.43-.1-.8-.33-1.13a3.14 3.14 0 00-.95-.88c-.41-.25-.9-.49-1.45-.7l-.32-.12c-.54.23-1 .48-1.38.75-.37.27-.66.58-.86.92-.2.35-.3.75-.3 1.2zm2.78-8.59c-.7 0-1.26.17-1.7.5-.44.33-.66.8-.66 1.43 0 .44.11.82.32 1.13.22.3.51.57.88.8.37.2.78.41 1.24.6.44-.19.84-.4 1.19-.62.34-.23.61-.5.81-.8.2-.32.3-.69.3-1.12 0-.62-.22-1.1-.66-1.43-.43-.32-1-.49-1.72-.49zM4.95 85.16c.87 0 1.63.15 2.27.44.65.3 1.15.73 1.5 1.29.36.56.53 1.24.53 2.05 0 .87-.19 1.63-.57 2.27a3.79 3.79 0 01-1.64 1.47c-.71.34-1.57.51-2.57.51-.66 0-1.29-.06-1.86-.18a4.62 4.62 0 01-1.45-.52v-1.4a7.31 7.31 0 003.33.84c.65.01 1.22-.1 1.7-.3.5-.2.88-.52 1.15-.95.27-.42.41-.96.41-1.6a2.5 2.5 0 00-.79-1.98c-.52-.47-1.35-.7-2.48-.7a8.98 8.98 0 00-2.27.28l-.73-.49.49-6.03h6.39v1.34H3.22l-.33 3.88a12.14 12.14 0 012.06-.22zm10.48-5.18c.75 0 1.4.12 1.98.35a2.76 2.76 0 011.84 2.7c0 .53-.12.99-.34 1.38-.23.39-.53.73-.91 1.02-.38.29-.8.54-1.27.77.56.25 1.05.54 1.49.86.45.31.8.68 1.05 1.11.26.43.4.94.4 1.52a3.3 3.3 0 01-.54 1.87c-.34.53-.83.93-1.46 1.2-.62.29-1.36.43-2.2.43-.91 0-1.68-.13-2.32-.4a3.2 3.2 0 01-1.45-1.18 3.38 3.38 0 01-.5-1.86 3 3 0 01.38-1.53c.26-.44.59-.82 1-1.14.42-.31.88-.58 1.37-.8a7.3 7.3 0 01-1.18-.8c-.35-.3-.63-.65-.84-1.04-.2-.4-.31-.88-.31-1.41 0-.65.16-1.2.5-1.65.33-.46.78-.8 1.35-1.04a5.08 5.08 0 011.96-.36zm-2.8 9.78c0 .66.24 1.2.7 1.63.47.42 1.17.63 2.1.63.9 0 1.58-.21 2.07-.63.49-.43.73-.99.73-1.68 0-.43-.11-.8-.34-1.13a3.14 3.14 0 00-.94-.87c-.41-.26-.9-.5-1.45-.7l-.32-.12c-.54.22-1 .47-1.38.75-.38.26-.66.57-.86.92-.2.34-.3.75-.3 1.2zm2.79-8.58c-.7 0-1.26.16-1.7.5-.44.32-.66.8-.66 1.42 0 .45.1.82.32 1.13.21.3.5.57.88.8.37.21.78.41 1.24.6.44-.19.84-.4 1.18-.61.35-.23.62-.5.82-.81.2-.31.3-.69.3-1.12 0-.62-.22-1.1-.66-1.42-.43-.33-1-.5-1.72-.5z"/><path stroke="#F0F0F0" stroke-width=".5" d="M235.76 167.9v14m66.19-14v14"/><path stroke="#F0F0F0" d="M233 177.7h71.66m-.87-1.75l-3.66 3.5m-62.53-3.5l-3.66 3.5"/><path fill="#F0F0F0" d="M275.12 198.04h-8.42v-1.23l3.43-3.49a34.3 34.3 0 001.61-1.72c.44-.5.77-1 1-1.48.23-.5.35-1.03.35-1.62 0-.73-.22-1.28-.65-1.66-.43-.39-1-.58-1.7-.58a4 4 0 00-1.64.31c-.47.22-.96.52-1.45.9l-.79-.98a6.13 6.13 0 012.4-1.3 5.48 5.48 0 013.53.22c.57.28 1.01.67 1.32 1.18.32.51.48 1.12.48 1.82a4.5 4.5 0 01-.4 1.9 7.79 7.79 0 01-1.14 1.73c-.49.57-1.05 1.17-1.7 1.81l-2.8 2.79v.06h6.57v1.34zm9.82-9.86a2.83 2.83 0 01-1.26 2.53c-.4.27-.87.45-1.4.56v.07c1.01.13 1.78.46 2.28.98.52.53.78 1.22.78 2.08a3.48 3.48 0 01-2.13 3.33c-.71.32-1.63.48-2.75.48-.68 0-1.31-.05-1.89-.17a6.62 6.62 0 01-1.65-.53v-1.37a8.33 8.33 0 003.56.84c1.17 0 2.02-.23 2.54-.7.52-.46.78-1.1.78-1.9 0-.57-.15-1.01-.44-1.35-.29-.35-.7-.6-1.25-.76a6.76 6.76 0 00-1.95-.25h-1.28v-1.24h1.29c.7 0 1.29-.1 1.77-.31.5-.2.86-.5 1.11-.86.26-.38.39-.82.39-1.33 0-.65-.22-1.15-.65-1.5a2.7 2.7 0 00-1.77-.54 5.13 5.13 0 00-2.3.53c-.33.16-.66.35-.99.57l-.73-1a6.27 6.27 0 014-1.34c1.32 0 2.3.3 2.96.9.65.6.98 1.36.98 2.28z"/></symbol><symbol fill="none" viewBox="0 0 356 208" id="ill-2"><path fill="#F0F0F0" d="M51.08 158.6v6.34H25.7v-5.04l12.96-12.24a14.03 14.03 0 002.79-3.36c.48-.96.72-1.9.72-2.83 0-1.35-.47-2.37-1.4-3.07-.9-.74-2.22-1.1-3.98-1.1-1.47 0-2.8.28-3.98.86a7.44 7.44 0 00-2.98 2.5L24.16 137a13.12 13.12 0 015.42-4.56 17.9 17.9 0 017.92-1.68c2.5 0 4.67.42 6.53 1.25a9.7 9.7 0 014.37 3.46 8.74 8.74 0 011.58 5.23c0 1.82-.38 3.54-1.15 5.14-.77 1.6-2.26 3.42-4.47 5.47l-7.72 7.3h14.44zm17.52 6.92c-2.79 0-5.27-.7-7.44-2.07a14.03 14.03 0 01-5.14-5.95 22.1 22.1 0 01-1.82-9.36c0-3.62.6-6.72 1.82-9.31a13.98 13.98 0 015.14-6 13.62 13.62 0 017.44-2.07c2.78 0 5.26.7 7.44 2.07a13.68 13.68 0 015.09 6c1.24 2.59 1.87 5.7 1.87 9.31 0 3.62-.63 6.74-1.87 9.36a13.72 13.72 0 01-5.1 5.95 13.62 13.62 0 01-7.43 2.07zm0-6.58c2.05 0 3.65-.88 4.8-2.64 1.18-1.76 1.77-4.48 1.77-8.16 0-3.68-.59-6.4-1.77-8.16a5.44 5.44 0 00-4.8-2.64c-2.02 0-3.62.88-4.8 2.64-1.15 1.76-1.73 4.48-1.73 8.16 0 3.68.58 6.4 1.73 8.16a5.51 5.51 0 004.8 2.64zm49.72 6l-5.66-7.92-5.86 7.92h-8.16l9.94-13-9.6-12.82h8.4l5.47 7.53 5.62-7.53h7.96l-9.6 12.62 9.99 13.2h-8.5zm37.01-33.6v33.6h-7.78v-27.36h-6.72v-6.24h14.5zm30.94 27.26v6.34h-25.4v-5.04l12.97-12.24a14.03 14.03 0 002.78-3.36c.48-.96.72-1.9.72-2.83 0-1.35-.46-2.37-1.39-3.07-.9-.74-2.22-1.1-3.98-1.1-1.47 0-2.8.28-3.99.86a7.44 7.44 0 00-2.97 2.5l-5.67-3.66a13.12 13.12 0 015.43-4.56 17.9 17.9 0 017.92-1.68c2.5 0 4.67.42 6.53 1.25a9.7 9.7 0 014.36 3.46 8.74 8.74 0 011.59 5.23c0 1.82-.39 3.54-1.16 5.14-.76 1.6-2.25 3.42-4.46 5.47l-7.73 7.3h14.45zm17.9-19.34h22.86v5.86h-22.85v-5.86zm0 11.9h22.86v5.86h-22.85v-5.86zm66.34 7.44v6.34h-25.4v-5.04l12.96-12.24a14.03 14.03 0 002.79-3.36c.48-.96.72-1.9.72-2.83 0-1.35-.47-2.37-1.4-3.07-.9-.74-2.22-1.1-3.98-1.1-1.47 0-2.8.28-3.98.86a7.44 7.44 0 00-2.98 2.5l-5.66-3.66a13.12 13.12 0 015.42-4.56 17.9 17.9 0 017.92-1.68c2.5 0 4.67.42 6.53 1.25a9.7 9.7 0 014.37 3.46 8.74 8.74 0 011.58 5.23c0 1.82-.38 3.54-1.15 5.14-.77 1.6-2.26 3.42-4.46 5.47l-7.73 7.3h14.44zm33.5-.72h-5.47v7.06h-7.58v-7.06h-18.1v-5.23l15.84-21.31h8.16l-14.69 20.2h9.03v-6.28h7.34v6.29h5.47v6.33zm16.73 7.64c-2.79 0-5.26-.7-7.44-2.07a14.03 14.03 0 01-5.14-5.95 22.1 22.1 0 01-1.82-9.36c0-3.62.6-6.72 1.82-9.31a13.98 13.98 0 015.14-6 13.62 13.62 0 017.44-2.07c2.78 0 5.26.7 7.44 2.07a13.68 13.68 0 015.09 6c1.25 2.59 1.87 5.7 1.87 9.31 0 3.62-.63 6.74-1.87 9.36a13.72 13.72 0 01-5.1 5.95 13.62 13.62 0 01-7.43 2.07zm0-6.58c2.05 0 3.65-.88 4.8-2.64 1.18-1.76 1.77-4.48 1.77-8.16 0-3.68-.59-6.4-1.77-8.16a5.44 5.44 0 00-4.8-2.64c-2.02 0-3.62.88-4.8 2.64-1.15 1.76-1.73 4.48-1.73 8.16 0 3.68.58 6.4 1.73 8.16a5.51 5.51 0 004.8 2.64zM31.58 177v7.49h-1.14v-6.52h-4v6.52H25.3v-7.5h6.28zm5.93-.14c.93 0 1.68.32 2.23.96.56.65.84 1.61.84 2.9 0 .85-.13 1.57-.39 2.15a2.88 2.88 0 01-1.08 1.31c-.46.3-1 .44-1.63.44-.4 0-.75-.05-1.05-.15a2.46 2.46 0 01-1.3-1h-.09a164.6 164.6 0 01.09 1.3v3.07h-1.14V177h.93l.15 1.1h.06c.14-.22.32-.43.53-.62.21-.19.47-.34.77-.45.3-.11.66-.17 1.08-.17zm-.2.96c-.52 0-.94.1-1.26.3-.31.2-.54.5-.7.9-.14.4-.21.9-.22 1.5v.22c0 .63.07 1.16.2 1.6.14.44.37.77.7 1 .32.23.75.34 1.3.34.46 0 .84-.12 1.15-.37.31-.25.54-.6.7-1.05.15-.45.23-.97.23-1.55 0-.89-.18-1.59-.52-2.1-.35-.53-.87-.8-1.58-.8zm11.7 2.9c0 .62-.07 1.17-.23 1.66-.16.48-.4.89-.7 1.22a3 3 0 01-1.09.77c-.42.17-.9.25-1.44.25a3.1 3.1 0 01-2.46-1.03c-.3-.32-.53-.73-.7-1.21a5.11 5.11 0 01-.25-1.65c0-.82.14-1.52.42-2.1.28-.57.67-1.01 1.19-1.31.52-.3 1.13-.46 1.85-.46.68 0 1.28.15 1.8.46.5.3.9.75 1.19 1.32.28.58.43 1.27.43 2.09zm-5.7 0c0 .61.09 1.13.25 1.57.16.45.4.79.73 1.03.34.24.77.36 1.29.36s.94-.12 1.28-.36c.33-.24.58-.58.74-1.03.16-.44.24-.96.24-1.56 0-.6-.08-1.11-.24-1.55-.16-.43-.4-.77-.74-1a2.18 2.18 0 00-1.29-.36c-.78 0-1.35.25-1.71.77a3.69 3.69 0 00-.54 2.14zm7.28-.73c0-1.07.1-1.98.3-2.73.21-.75.53-1.36.96-1.81.43-.47.99-.78 1.67-.95a42.34 42.34 0 013.53-.72l.2 1a32.65 32.65 0 00-1.85.3 17.13 17.13 0 00-1.62.37c-.4.1-.73.29-1.01.55-.28.26-.5.62-.66 1.07a6.14 6.14 0 00-.29 1.72h.08a2.95 2.95 0 011.41-1.08c.33-.13.7-.2 1.1-.2.66 0 1.2.15 1.63.43.43.28.76.67.98 1.18.21.5.32 1.1.32 1.77 0 .82-.14 1.5-.42 2.06-.28.56-.67.98-1.18 1.26-.5.28-1.1.41-1.78.41a2.9 2.9 0 01-2.48-1.21c-.29-.4-.51-.88-.66-1.45a7.8 7.8 0 01-.23-1.97zm3.46 3.7c.43 0 .8-.1 1.11-.28.32-.18.56-.47.73-.86.17-.4.26-.91.26-1.55 0-.8-.16-1.41-.46-1.86-.3-.45-.78-.67-1.45-.67-.41 0-.8.09-1.13.26a3.19 3.19 0 00-1.36 1.27c0 .47.04.92.1 1.36.07.43.2.83.36 1.18.17.35.4.63.7.83.3.2.68.31 1.14.31zm6.34-6.7v4.72a11.75 11.75 0 01-.06 1.28l-.02.36L64.4 177h1.4v7.49h-1.07v-4.6a29.57 29.57 0 01.05-1.74l-4.07 6.34h-1.4v-7.5h1.08zm11.34-.13c.93 0 1.68.32 2.23.96.56.65.84 1.61.84 2.9 0 .85-.13 1.57-.39 2.15a2.88 2.88 0 01-1.08 1.31c-.46.3-1 .44-1.63.44-.4 0-.75-.05-1.05-.15a2.47 2.47 0 01-1.3-1h-.08a164.6 164.6 0 01.08 1.3v3.07H68.2V177h.93l.15 1.1h.06c.14-.22.32-.43.53-.62.21-.19.47-.34.77-.45.3-.11.66-.17 1.08-.17zm-.2.96c-.52 0-.94.1-1.26.3-.31.2-.54.5-.69.9-.15.4-.22.9-.23 1.5v.22c0 .63.07 1.16.2 1.6.14.44.37.77.7 1 .32.23.75.34 1.3.34.46 0 .84-.12 1.15-.37.31-.25.54-.6.7-1.05.15-.45.23-.97.23-1.55 0-.89-.18-1.59-.52-2.1-.34-.53-.87-.8-1.58-.8zm11.7 2.9c0 .62-.07 1.17-.23 1.66-.16.48-.4.89-.7 1.22a3 3 0 01-1.09.77c-.42.17-.9.25-1.44.25a3.1 3.1 0 01-2.46-1.03c-.3-.32-.53-.73-.7-1.21a5.11 5.11 0 01-.25-1.65c0-.82.14-1.52.42-2.1.28-.57.67-1.01 1.19-1.31.52-.3 1.13-.46 1.85-.46.68 0 1.28.15 1.8.46.5.3.9.75 1.19 1.32.28.58.43 1.27.43 2.09zm-5.7 0c0 .61.09 1.13.25 1.57.16.45.4.79.73 1.03.34.24.77.36 1.29.36s.95-.12 1.28-.36c.34-.24.58-.58.74-1.03.16-.44.24-.96.24-1.56 0-.6-.08-1.11-.24-1.55-.16-.43-.4-.77-.73-1a2.18 2.18 0 00-1.3-.36c-.78 0-1.35.25-1.71.77a3.69 3.69 0 00-.54 2.14zM89.58 177h1.25l-3.23 3.61 3.49 3.88h-1.33l-3.4-3.8v3.8H85.2v-7.5h1.14v3.64l3.23-3.63zm46.96 1.92h1.25l-3.23 3.62 3.5 3.87h-1.34l-3.4-3.8v3.8h-1.15v-7.49h1.14v3.64l3.23-3.64zm9.33 3.74c0 .61-.09 1.16-.24 1.64-.16.48-.4.9-.7 1.23-.3.33-.66.58-1.09.76-.42.17-.9.26-1.44.26a3.12 3.12 0 01-3.16-2.25 5.11 5.11 0 01-.25-1.64c0-.83.14-1.52.41-2.1.28-.58.68-1.02 1.2-1.32a3.6 3.6 0 011.85-.46c.68 0 1.28.16 1.79.46.51.3.91.75 1.2 1.33.28.57.43 1.27.43 2.09zm-5.7 0c0 .6.07 1.12.23 1.56.16.44.4.78.74 1.03.33.24.76.36 1.29.36.52 0 .94-.12 1.28-.37.33-.24.58-.58.74-1.02.16-.44.24-.96.24-1.56 0-.6-.08-1.12-.24-1.55-.16-.44-.4-.78-.74-1.01a2.18 2.18 0 00-1.29-.36c-.78 0-1.35.26-1.72.77a3.69 3.69 0 00-.54 2.15zm8.8-3.74v3.15h4.18v-3.15h1.13v7.5h-1.13v-3.39h-4.18v3.38h-1.14v-7.49h1.14zm12.82.97h-2.47v6.52h-1.12v-6.52h-2.43v-.97h6.02v.97zm4.37-1.1a2.75 2.75 0 012.69 1.61c.24.5.36 1.1.36 1.78v.7h-5.18c.02.88.24 1.55.66 2.01.43.46 1.02.69 1.8.69a5.45 5.45 0 002.38-.51v1a5.58 5.58 0 01-2.44.48 3.9 3.9 0 01-1.88-.44c-.54-.3-.95-.73-1.25-1.3a4.48 4.48 0 01-.44-2.09 5 5 0 01.4-2.09c.28-.6.66-1.05 1.15-1.37.5-.31 1.08-.47 1.75-.47zm-.01.93c-.6 0-1.1.2-1.45.59-.36.4-.58.95-.64 1.66h3.96c0-.45-.08-.84-.21-1.18-.13-.34-.34-.6-.61-.79a1.8 1.8 0 00-1.05-.28zm6.07-.8v4.71a14.29 14.29 0 01-.06 1.28c0 .15 0 .27-.02.36l4.09-6.35h1.4v7.5h-1.06v-4.6a34.83 34.83 0 01.02-1.23l.02-.52-4.07 6.34h-1.4v-7.49h1.08zm4.84-3.08c-.04.46-.15.84-.34 1.15-.2.31-.47.55-.83.7-.37.16-.83.24-1.4.24-.6 0-1.06-.07-1.43-.22a1.62 1.62 0 01-.79-.7c-.17-.31-.27-.7-.3-1.17h1.07c.05.5.18.84.4 1.03.22.18.58.27 1.07.27.44 0 .78-.1 1.03-.29.25-.2.4-.53.45-1.01h1.07zm4.12 3.08v3.15h4.18v-3.15h1.13v7.5h-1.13v-3.39h-4.18v3.38h-1.14v-7.49h1.14zm10.6-.13a2.75 2.75 0 012.69 1.61c.24.5.36 1.1.36 1.78v.7h-5.17c.01.88.23 1.55.65 2.01.43.46 1.02.69 1.8.69a5.45 5.45 0 002.39-.51v1a5.58 5.58 0 01-2.44.48 3.9 3.9 0 01-1.9-.44c-.52-.3-.94-.73-1.23-1.3a4.5 4.5 0 01-.45-2.09 5 5 0 01.4-2.09c.28-.6.66-1.05 1.15-1.37.5-.31 1.08-.47 1.75-.47zm-.01.93c-.6 0-1.1.2-1.45.59-.36.4-.57.95-.64 1.66h3.96c0-.45-.07-.84-.21-1.18-.13-.34-.34-.6-.6-.79a1.8 1.8 0 00-1.06-.28zm8.5-.94c.94 0 1.69.33 2.24.97.56.64.84 1.6.84 2.9 0 .85-.13 1.56-.38 2.14a2.88 2.88 0 01-1.08 1.32c-.46.3-1 .44-1.64.44-.4 0-.74-.05-1.04-.16-.3-.1-.56-.24-.78-.42-.21-.18-.39-.37-.53-.58h-.08a99.46 99.46 0 01.08 1.3v3.07h-1.14v-10.84h.94l.15 1.11h.05a3 3 0 01.53-.62c.21-.2.47-.34.77-.45.3-.12.67-.18 1.08-.18zm-.19.96c-.52 0-.94.1-1.26.3-.31.2-.54.5-.69.9-.14.4-.22.9-.23 1.5v.22c0 .63.07 1.17.2 1.6.15.45.38.78.7 1 .32.23.75.35 1.3.35.46 0 .85-.13 1.16-.38.3-.25.54-.6.69-1.04.15-.45.23-.97.23-1.56 0-.88-.17-1.58-.52-2.1-.34-.53-.87-.79-1.58-.79zm11.71 2.91c0 .62-.08 1.17-.24 1.65-.16.48-.39.9-.69 1.23a3 3 0 01-1.1.76c-.42.17-.9.26-1.44.26a3.13 3.13 0 01-3.16-2.25 5.11 5.11 0 01-.25-1.64c0-.83.14-1.52.42-2.1.28-.58.68-1.02 1.2-1.32a3.6 3.6 0 011.84-.46c.69 0 1.28.16 1.8.46.5.3.9.75 1.19 1.33.29.57.43 1.27.43 2.09zm-5.7 0c0 .6.08 1.13.24 1.57.16.44.4.78.74 1.03.33.24.76.36 1.28.36s.95-.12 1.28-.37c.34-.24.59-.58.75-1.02.16-.44.24-.96.24-1.56 0-.6-.09-1.12-.24-1.55-.16-.44-.41-.78-.74-1.01a2.18 2.18 0 00-1.3-.36c-.77 0-1.35.26-1.71.77a3.69 3.69 0 00-.54 2.15zm13.62-1.85c0 .47-.14.84-.41 1.1-.28.26-.63.44-1.06.53v.05c.47.07.87.24 1.2.51.35.27.52.68.52 1.24 0 .43-.1.8-.3 1.13-.21.33-.53.59-.97.77-.44.2-1 .28-1.71.28h-3.23v-7.49h3.2c.54 0 1.01.06 1.42.19.42.11.75.31.98.58.24.28.36.65.36 1.11zm-.93 3.43c0-.44-.17-.76-.5-.96a2.9 2.9 0 00-1.47-.3h-1.91v2.52h1.94c.63 0 1.11-.1 1.44-.29.33-.2.5-.52.5-.97zm-.23-3.3c0-.35-.13-.62-.39-.8-.26-.17-.68-.26-1.28-.26h-1.98v2.16h1.79a2.9 2.9 0 001.39-.27.88.88 0 00.47-.83z"/><path stroke="#F0F0F0" d="M17.74 17.53l8.4 2.4-10.58 37.88a4.33 4.33 0 01-5.37 3 4.4 4.4 0 01-3.02-5.4l10.57-37.88z"/><rect width="11.5" height="11.62" fill="#F0F0F0" rx="1" transform="matrix(.9614 .27513 -.26881 .9632 19.43 6.33)"/><rect width="7.96" height="1.79" fill="#F0F0F0" rx=".89" transform="matrix(.9614 .27513 -.26881 .9632 21.37 5.96)"/><path stroke="#F0F0F0" d="M85.78 21.1l8.4 2.4L83.6 61.4a4.33 4.33 0 01-5.37 3 4.4 4.4 0 01-3.02-5.4l10.57-37.9z"/><rect width="11.5" height="11.62" fill="#F0F0F0" rx="1" transform="matrix(.9614 .27513 -.26881 .9632 87.47 9.91)"/><rect width="7.96" height="1.79" fill="#F0F0F0" rx=".89" transform="matrix(.9614 .27513 -.26881 .9632 89.4 9.54)"/><path stroke="#F0F0F0" d="M152.93 25.58l8.39 2.4-10.57 37.89a4.33 4.33 0 01-5.37 3 4.4 4.4 0 01-3.02-5.4l10.57-37.89z"/><rect width="11.5" height="11.62" fill="#F0F0F0" rx="1" transform="matrix(.9614 .27513 -.26881 .9632 154.62 14.39)"/><rect width="7.96" height="1.79" fill="#F0F0F0" rx=".89" transform="matrix(.9614 .27513 -.26881 .9632 156.56 14.01)"/><path stroke="#F0F0F0" d="M220.97 31.84l8.39 2.4-10.58 37.89a4.33 4.33 0 01-5.36 3 4.4 4.4 0 01-3.03-5.4l10.58-37.89z"/><rect width="11.5" height="11.62" fill="#F0F0F0" rx="1" transform="matrix(.9614 .27513 -.26881 .9632 222.65 20.65)"/><rect width="7.96" height="1.79" fill="#F0F0F0" rx=".89" transform="matrix(.9614 .27513 -.26881 .9632 224.6 20.28)"/><path stroke="#F0F0F0" d="M289 36.32l8.39 2.4-10.57 37.88a4.33 4.33 0 01-5.37 3 4.4 4.4 0 01-3.03-5.4L289 36.32z"/><rect width="11.5" height="11.62" fill="#F0F0F0" rx="1" transform="matrix(.9614 .27513 -.26881 .9632 290.68 25.12)"/><rect width="7.96" height="1.79" fill="#F0F0F0" rx=".89" transform="matrix(.9614 .27513 -.26881 .9632 292.63 24.75)"/><path stroke="#F0F0F0" d="M34.53 19.32l8.4 2.4L32.35 59.6a4.33 4.33 0 01-5.37 3 4.4 4.4 0 01-3.02-5.4l10.57-37.88z"/><rect width="11.5" height="11.62" fill="#F0F0F0" rx="1" transform="matrix(.9614 .27513 -.26881 .9632 36.22 8.12)"/><rect width="7.96" height="1.79" fill="#F0F0F0" rx=".89" transform="matrix(.9614 .27513 -.26881 .9632 38.16 7.75)"/><path stroke="#F0F0F0" d="M102.57 22l8.39 2.4-10.57 37.89a4.33 4.33 0 01-5.37 3 4.4 4.4 0 01-3.03-5.4L102.57 22z"/><rect width="11.5" height="11.62" fill="#F0F0F0" rx="1" transform="matrix(.9614 .27513 -.26881 .9632 104.25 10.8)"/><rect width="7.96" height="1.79" fill="#F0F0F0" rx=".89" transform="matrix(.9614 .27513 -.26881 .9632 106.2 10.43)"/><path stroke="#F0F0F0" d="M169.72 28.27l8.39 2.4-10.57 37.88a4.33 4.33 0 01-5.37 3 4.4 4.4 0 01-3.02-5.4l10.57-37.88z"/><rect width="11.5" height="11.62" fill="#F0F0F0" rx="1" transform="matrix(.9614 .27513 -.26881 .9632 171.4 17.07)"/><rect width="7.96" height="1.79" fill="#F0F0F0" rx=".89" transform="matrix(.9614 .27513 -.26881 .9632 173.34 16.7)"/><path stroke="#F0F0F0" d="M237.75 32.74l8.4 2.4-10.58 37.88a4.33 4.33 0 01-5.37 3 4.4 4.4 0 01-3.02-5.4l10.57-37.88z"/><rect width="11.5" height="11.62" fill="#F0F0F0" rx="1" transform="matrix(.9614 .27513 -.26881 .9632 239.44 21.54)"/><rect width="7.96" height="1.79" fill="#F0F0F0" rx=".89" transform="matrix(.9614 .27513 -.26881 .9632 241.38 21.17)"/><path stroke="#F0F0F0" d="M305.79 36.32l8.39 2.4L303.6 76.6a4.33 4.33 0 01-5.37 3 4.4 4.4 0 01-3.03-5.4l10.58-37.88z"/><rect width="11.5" height="11.62" fill="#F0F0F0" rx="1" transform="matrix(.9614 .27513 -.26881 .9632 307.47 25.12)"/><rect width="7.96" height="1.79" fill="#F0F0F0" rx=".89" transform="matrix(.9614 .27513 -.26881 .9632 309.41 24.75)"/><path stroke="#F0F0F0" d="M51.32 19.32l8.39 2.4L49.14 59.6a4.33 4.33 0 01-5.37 3 4.4 4.4 0 01-3.02-5.4l10.57-37.88z"/><rect width="11.5" height="11.62" fill="#F0F0F0" rx="1" transform="matrix(.9614 .27513 -.26881 .9632 53 8.12)"/><rect width="7.96" height="1.79" fill="#F0F0F0" rx=".89" transform="matrix(.9614 .27513 -.26881 .9632 54.95 7.75)"/><path stroke="#F0F0F0" d="M119.35 22.9l8.4 2.4-10.58 37.88a4.33 4.33 0 01-5.37 3 4.4 4.4 0 01-3.02-5.4l10.57-37.88z"/><rect width="11.5" height="11.62" fill="#F0F0F0" rx="1" transform="matrix(.9614 .27513 -.26881 .9632 121.04 11.7)"/><rect width="7.96" height="1.79" fill="#F0F0F0" rx=".89" transform="matrix(.9614 .27513 -.26881 .9632 122.98 11.33)"/><path stroke="#F0F0F0" d="M186.5 29.16l8.4 2.4-10.58 37.88a4.33 4.33 0 01-5.36 3 4.4 4.4 0 01-3.03-5.4l10.57-37.88z"/><rect width="11.5" height="11.62" fill="#F0F0F0" rx="1" transform="matrix(.9614 .27513 -.26881 .9632 188.2 17.97)"/><rect width="7.96" height="1.79" fill="#F0F0F0" rx=".89" transform="matrix(.9614 .27513 -.26881 .9632 190.13 17.6)"/><path stroke="#F0F0F0" d="M254.54 34.53l8.39 2.4-10.57 37.88a4.33 4.33 0 01-5.37 3 4.4 4.4 0 01-3.03-5.4l10.58-37.88z"/><rect width="11.5" height="11.62" fill="#F0F0F0" rx="1" transform="matrix(.9614 .27513 -.26881 .9632 256.23 23.33)"/><rect width="7.96" height="1.79" fill="#F0F0F0" rx=".89" transform="matrix(.9614 .27513 -.26881 .9632 258.16 22.96)"/><path stroke="#F0F0F0" d="M322.57 36.32l8.4 2.4-10.58 37.88a4.33 4.33 0 01-5.37 3 4.4 4.4 0 01-3.02-5.4l10.57-37.88z"/><rect width="11.5" height="11.62" fill="#F0F0F0" rx="1" transform="matrix(.9614 .27513 -.26881 .9632 324.26 25.12)"/><rect width="7.96" height="1.79" fill="#F0F0F0" rx=".89" transform="matrix(.9614 .27513 -.26881 .9632 326.2 24.75)"/><path stroke="#F0F0F0" d="M68.11 20.21l8.4 2.4L65.92 60.5a4.33 4.33 0 01-5.37 3 4.4 4.4 0 01-3.02-5.4L68.1 20.2z"/><rect width="11.5" height="11.62" fill="#F0F0F0" rx="1" transform="matrix(.9614 .27513 -.26881 .9632 69.8 9.02)"/><rect width="7.96" height="1.79" fill="#F0F0F0" rx=".89" transform="matrix(.9614 .27513 -.26881 .9632 71.74 8.64)"/><path stroke="#F0F0F0" d="M136.14 23.8l8.4 2.4-10.58 37.88a4.33 4.33 0 01-5.37 3 4.4 4.4 0 01-3.02-5.4l10.57-37.89z"/><rect width="11.5" height="11.62" fill="#F0F0F0" rx="1" transform="matrix(.9614 .27513 -.26881 .9632 137.83 12.6)"/><rect width="7.96" height="1.79" fill="#F0F0F0" rx=".89" transform="matrix(.9614 .27513 -.26881 .9632 139.77 12.22)"/><path stroke="#F0F0F0" d="M203.3 30.06l8.38 2.4-10.57 37.88a4.33 4.33 0 01-5.37 3 4.4 4.4 0 01-3.02-5.4l10.57-37.88z"/><rect width="11.5" height="11.62" fill="#F0F0F0" rx="1" transform="matrix(.9614 .27513 -.26881 .9632 204.98 18.86)"/><rect width="7.96" height="1.79" fill="#F0F0F0" rx=".89" transform="matrix(.9614 .27513 -.26881 .9632 206.92 18.49)"/><path stroke="#F0F0F0" d="M271.33 35.42l8.39 2.4-10.57 37.89a4.33 4.33 0 01-5.37 3 4.4 4.4 0 01-3.03-5.4l10.58-37.89z"/><rect width="11.5" height="11.62" fill="#F0F0F0" rx="1" transform="matrix(.9614 .27513 -.26881 .9632 273.01 24.23)"/><rect width="7.96" height="1.79" fill="#F0F0F0" rx=".89" transform="matrix(.9614 .27513 -.26881 .9632 274.95 23.85)"/><path stroke="#F0F0F0" d="M339.36 35.42l8.4 2.4-10.58 37.89a4.33 4.33 0 01-5.37 3 4.4 4.4 0 01-3.02-5.4l10.57-37.89z"/><rect width="11.5" height="11.62" fill="#F0F0F0" rx="1" transform="matrix(.9614 .27513 -.26881 .9632 341.05 24.23)"/><rect width="7.96" height="1.79" fill="#F0F0F0" rx=".89" transform="matrix(.9614 .27513 -.26881 .9632 342.99 23.85)"/><path stroke="#F0F0F0" stroke-linecap="round" stroke-linejoin="round" d="M1 89.58V6.35C1 3.37 3.02 1 8.23 1h347.08v88.58H32.8c-3.19 0-2.25-4.63-2.9-4.99l-14.64 4.99H1h0z" clip-rule="evenodd"/><path stroke="#F0F0F0" stroke-linecap="round" stroke-linejoin="round" d="M1 79.95V12.1c0-2.43 2.02-4.36 7.23-4.36h347.08v72.2H32.8c-3.19 0-2.25-3.77-2.9-4.05l-14.64 4.06H1h0z" clip-rule="evenodd"/><path stroke="#F0F0F0" stroke-linecap="round" stroke-linejoin="round" d="M250.36 79.95L1 63.58m354.3-40.44L124.25 7.74"/></symbol><symbol fill="none" viewBox="0 0 279 89" id="ill-3"><path stroke="#F0F0F0" stroke-linecap="round" stroke-miterlimit="22.93" stroke-width="2" d="M63.3 41.8h53.37l-3.28 40.86c-.35 2.93-2.42 5.34-5.36 5.34H71.42c-2.94 0-5.01-2.41-5.36-5.34L63.3 41.8v0z" clip-rule="evenodd"/><path stroke="#F0F0F0" stroke-linecap="round" stroke-miterlimit="22.93" stroke-width="2" d="M61.4 21.71h58.98c1.56 0 2.77 1.38 2.77 3.02V38.7c0 1.73-1.21 3.1-2.77 3.1H61.4c-1.55 0-2.76-1.37-2.76-3.1V24.73c0-1.64 1.2-3.02 2.76-3.02v0z" clip-rule="evenodd"/><path stroke="#F0F0F0" stroke-linecap="round" stroke-miterlimit="22.93" stroke-width="2" d="M66.06 27.58v7.4m8.04-7.4v7.4m8.11-7.4v7.4m8.03-7.4v7.4m8.04-7.4v7.4m8.12-7.4v7.4m8.02-7.4v7.4"/><path stroke="#F0F0F0" stroke-linecap="round" stroke-miterlimit="22.93" stroke-width="2" d="M8.58 51.82h14.5v16.96l-3.15 13.57c-.25 2.05-1.66 3.78-3.72 3.78h-.44c-2.06 0-3.53-1.67-3.79-3.78L8.65 68.91l-.07-17.09v0z" clip-rule="evenodd"/><path stroke="#F0F0F0" stroke-linecap="round" stroke-miterlimit="22.93" stroke-width="2" d="M3.45 48.81c-3.07-1.85-4.1-7.42 2-9.02l22.3-4.87"/><path stroke="#F0F0F0" stroke-linecap="round" stroke-miterlimit="22.93" stroke-width="2" d="M25.38 46.9H6.28a2.4 2.4 0 00-2.38 2.42v.07a2.4 2.4 0 002.37 2.43h19.11a2.4 2.4 0 002.38-2.43v-.07a2.4 2.4 0 00-2.38-2.43zm-1.21-9.93c.19.96-.39 1.92-1.35 2.11L9.6 41.71c-.96.2-1.92-.38-2.12-1.34"/><rect width="46" height="87" x="232" y="1" stroke="#F0F0F0" stroke-width="2" rx="2"/><path stroke="#F0F0F0" stroke-linecap="round" stroke-miterlimit="22.93" stroke-width="2" d="M151.82 20.98h37.56c1.02 0 1.75 1.01 1.75 2.3v10.78c0 1.29-.73 2.4-1.75 2.4h-37.56c-.92 0-1.75-1.11-1.75-2.4V23.28c0-1.29.83-2.3 1.75-2.3v0z" clip-rule="evenodd"/><path stroke="#F0F0F0" stroke-linecap="round" stroke-miterlimit="22.93" stroke-width="2" d="M155.8 26.05v4.6m6.17-4.6v4.6m6.19-4.6v4.6m6.18-4.6v4.6m6.18-4.6v4.6m6.18-4.6v4.6"/><path stroke="#F0F0F0" stroke-linecap="round" stroke-miterlimit="22.93" stroke-width="2" d="M153.48 36.45h34.33v42.47c0 4.6-3.87 8.47-8.49 8.47h-17.35a8.52 8.52 0 01-8.49-8.47V36.45v0z" clip-rule="evenodd"/><path stroke="#F0F0F0" stroke-linecap="round" stroke-miterlimit="22.93" stroke-width="2" d="M191.6 35.53h-41.44c-.66 0-1.2.5-1.2 1.1v.1c0 .61.54 1.1 1.2 1.1h41.44c.66 0 1.2-.49 1.2-1.1v-.1c0-.6-.54-1.1-1.2-1.1z"/><path stroke="#F0F0F0" stroke-linecap="round" stroke-miterlimit="22.93" stroke-width="2" d="M167.42 36.91h6.92c1.48 0 2.77 1.2 2.77 2.77v29.01c0 3.4-2.77 6.26-6.28 6.26a6.26 6.26 0 01-6.18-6.26V39.68c0-1.57 1.3-2.77 2.77-2.77z" clip-rule="evenodd"/><path fill="#F0F0F0" d="M170.83 71.55c2 0 3.6-2.23 3.6-4.98 0-2.74-1.6-4.97-3.6-4.97-1.98 0-3.6 2.23-3.6 4.97 0 2.75 1.62 4.98 3.6 4.98z"/></symbol></svg>