<svg xmlns="http://www.w3.org/2000/svg" fill="none" viewBox="0 0 109 175">
  <g fill="#fff" clip-path="url(#a)">
    <path d="M36.12 144.68h-4.5v-13.33h5.6v-2.2H27.15v34.38h4.47v-16.64h4.5v-2.2ZM49.56 131.35v-2.2h-10.1v34.38h10.1v-2.2h-5.6v-14.44h4.47v-2.2h-4.47v-13.34h5.6ZM61.87 161.32h-5.6v-32.17h-4.48v34.38h10.08v-2.2ZM62.97 163.53h4.5v-34.38h-4.5v34.38ZM78.67 129.15l-2.4 9.17-2.1-9.17H69.7l4.19 18.34-4.19 16.04h3.37l2.4-9.17 2.07 9.17H82l-4.19-18.34 4.19-16.04h-3.34ZM22.68 163.53h2.24v-34.38h-2.24v34.38ZM18.18 163.53h2.27v-14.4h-2.27v14.4ZM18.18 146.89h2.27v-17.74h-2.27v17.74ZM7.01 163.53h2.23v-34.38H7.01v34.38ZM11.48 163.53h4.47v-21.08h-4.47v21.08ZM11.48 140.24h4.47v-11.1h-4.47v11.1ZM.3 153.54h4.48v-24.4H.3v24.4ZM.3 163.53h4.48v-7.75H.3v7.75ZM104.41 146.89h4.47v-17.74h-4.47v17.74ZM104.41 163.53h4.47v-14.4h-4.47v14.4ZM84.24 163.53h2.27v-34.38h-2.27v34.38ZM88.74 163.53h2.24v-8.86h-2.24v8.86ZM88.74 152.44h2.24v-23.3h-2.24v23.3ZM93.21 163.53h4.47v-21.08h-4.47v21.08ZM93.21 140.24h4.47v-11.1h-4.47v11.1ZM99.95 163.53h2.23v-34.38h-2.23v34.38ZM6.85 64.42H9.1V0H6.85v64.42ZM6.85 127.26H9.1v-60.6H6.85v60.6ZM.12 87.74h4.47V0H.12v87.74ZM.12 127.26h4.47V89.94H.12v37.32ZM18.03 41.13h2.23V0h-2.23v41.13ZM18.03 127.26h2.23V43.33h-2.23v83.93ZM11.29 111.03h4.5V0h-4.5v111.03ZM11.29 127.26h4.5v-14.03h-4.5v14.03ZM22.68 64.42h2.24V0h-2.24v64.42ZM22.68 127.26h2.24v-60.6h-2.24v60.6ZM33.82 41.13h3.43V0h-3.43v41.13ZM33.82 127.26h3.43V43.33h-3.43v83.93ZM27.12 127.26h4.47V0h-4.47v127.26ZM43.74 127.26h2.23V0h-2.23v127.26ZM39.46 87.74h2.92V0h-2.92v87.74ZM39.46 127.26h2.92V89.94h-2.92v37.32ZM51.8 64.42h4.46V0H51.8v64.42ZM51.8 127.26h4.46v-60.6H51.8v60.6ZM99.95 111.03h2.23V0h-2.23v111.03ZM99.95 127.26h2.23v-14.03h-2.23v14.03ZM104.41 64.42h4.47V0h-4.47v64.42ZM104.41 127.26h4.47v-60.6h-4.47v60.6ZM88.74 87.74h2.24V0h-2.24v87.74ZM88.74 127.26h2.24V89.94h-2.24v37.32ZM93.21 41.13h4.47V0h-4.47v41.13ZM93.21 127.26h4.47V43.33h-4.47v83.93ZM84.24 64.42h2.27V0h-2.27v64.42ZM84.24 127.26h2.27v-60.6h-2.27v60.6ZM77.54 127.26H82V0h-4.47v127.26ZM73.6 127.26h2.27V0H73.6v127.26ZM58.5 111.03h2.23V0H58.5v111.03ZM58.5 127.26h2.23v-14.03H58.5v14.03ZM63 41.13h4.47V0H63v41.13ZM63 127.26h4.47V43.33H63v83.93ZM69.7 87.74h2.24V0H69.7v87.74ZM69.7 127.26h2.24V89.94H69.7v37.32ZM47.3 111.03h2.23V0h-2.24v111.03ZM47.3 127.26h2.23v-14.03h-2.24v14.03ZM6.2 173.68H2.97a.23.23 0 0 1-.12-.07l-.57-.6c-.03-.06-.06-.09-.06-.12v-5.14c0-.16-.07-.22-.22-.22H.53c-.16 0-.22.06-.22.22v5.49c0 .12.03.22.1.28l1.22 1.32c.1.1.19.16.34.16H6.2c.13 0 .22-.1.22-.25v-.82c0-.16-.1-.25-.22-.25ZM12.49 172.29H9.4l1.13-3.5H11.35l1.14 3.5Zm2.6 1.99-2.07-6.5c-.06-.22-.22-.25-.35-.25H9.5c-.07 0-.13 0-.22.06-.07.04-.13.1-.13.2l-2.08 6.49c0 .06-.03.09-.03.15-.03.03-.03.1-.03.16v.16c0 .16.1.25.22.25h1.16c.07 0 .16-.03.2-.19l.43-1.32h3.84l.44 1.32c.07.16.16.19.22.19h1.42c.13 0 .22-.1.22-.25v-.16c0-.06 0-.13-.03-.16 0-.06-.03-.1-.03-.16ZM22.34 171.85v1.3c0 .05 0 .09-.03.12l-.41.44s-.04.03-.07.03h-3.68c-.06 0-.1 0-.1-.13v-2.1h3.78l.5.28v.06Zm-4.28-1.23v-1.7c0-.13.03-.13.06-.13h2.8c.06 0 .1 0 .13.03l.5.57c.03.03.06.1.06.13v1.1h-3.55Zm6 .53-.94-.53v-1.45c0-.13-.03-.22-.1-.28l-1.1-1.23c-.09-.1-.18-.13-.34-.13h-5.13c-.12 0-.34.03-.34.38v6.68c0 .35.22.41.34.41h6.61c.1 0 .19-.03.25-.13l.82-.91c.06-.1.1-.16.1-.28v-2.24c0-.16-.1-.25-.16-.28ZM31.8 173.74h-4.05c-.03 0-.06-.03-.1-.06l-.6-.63c-.02-.04-.02-.1-.02-.13v-1.13h4.72c.12 0 .22-.1.22-.26v-.72c0-.16-.1-.25-.22-.25h-4.72v-1.14c0-.03 0-.1.03-.12l.44-.48c.03-.03.06-.03.1-.03h4.2c.14 0 .23-.1.23-.25v-.79c0-.16-.1-.22-.22-.22H26.4a.4.4 0 0 0-.32.13l-.88.97c-.1.1-.13.2-.13.29v4.32c0 .12.04.22.13.28l1.23 1.32c.1.1.22.16.34.16h5.04c.13 0 .22-.1.22-.25v-.79c0-.13-.1-.22-.22-.22ZM38.92 173.68h-3.2c-.07 0-.1-.03-.13-.07l-.6-.6c-.03-.06-.03-.09-.03-.12v-5.14c0-.16-.1-.22-.22-.22h-1.48c-.16 0-.22.06-.22.22v5.49c0 .12.03.22.1.28l1.22 1.32c.1.1.19.16.31.16h4.25c.13 0 .22-.1.22-.25v-.82c0-.16-.1-.25-.22-.25ZM45.81 173.68h-3.2a.23.23 0 0 1-.13-.07l-.57-.6c-.03-.06-.06-.09-.06-.12v-5.14c0-.16-.06-.22-.22-.22h-1.48c-.13 0-.22.06-.22.22v5.49c0 .12.03.22.1.28l1.22 1.32c.1.1.22.16.35.16h4.21c.13 0 .23-.1.23-.25v-.82c0-.16-.1-.25-.23-.25ZM53.5 173.74h-4.07c-.03 0-.06-.03-.1-.06l-.59-.63c-.03-.04-.03-.1-.03-.13v-1.13h4.72c.13 0 .22-.1.22-.26v-.72c0-.16-.1-.25-.22-.25h-4.72v-1.14c0-.03 0-.1.03-.12l.44-.48c.03-.03.06-.03.1-.03h4.21c.13 0 .22-.1.22-.25v-.79c0-.16-.1-.22-.22-.22h-5.41a.4.4 0 0 0-.32.13l-.88.97c-.1.1-.12.2-.12.29v4.32c0 .12.03.22.12.28l1.23 1.32c.1.1.22.16.35.16h5.03c.16 0 .22-.1.22-.25v-.79c0-.13-.06-.22-.22-.22ZM60.51 169.39v1.07c0 .03 0 .06-.03.1l-.53.56h-3.31v-2.2c0-.13.03-.13.06-.13h3.24c.07 0 .07 0 .1.03l.44.48c.03.03.03.06.03.09Zm2.05 4.89-1.01-2.46.76-.8c.09-.09.12-.24.12-.4v-1.7a.5.5 0 0 0-.1-.29l-.9-.97a.4.4 0 0 0-.32-.13h-6.04c-.13 0-.35.03-.35.38v6.84c0 .16.06.25.22.25h1.48c.13 0 .22-.1.22-.25v-2.4h3.21l.91 2.5c.07.12.16.15.22.15h1.42c.13 0 .19-.06.19-.1.03-.06.03-.12.03-.18V174.43c0-.03-.03-.1-.06-.16ZM72.79 169.39v1.07c0 .03-.04.06-.07.1l-.53.56h-3.3v-2.2c0-.13.06-.13.09-.13h3.24c.03 0 .06 0 .1.03l.4.48c.03.03.07.06.07.09Zm2.04 4.89-1.04-2.46.76-.8a.6.6 0 0 0 .16-.4v-1.7c0-.1-.04-.2-.1-.29l-.91-.97a.48.48 0 0 0-.35-.13h-6.04c-.13 0-.35.03-.35.38v6.84c0 .16.1.25.22.25h1.48c.13 0 .22-.1.22-.25v-2.4h3.21l.95 2.5c.03.12.12.15.22.15h1.41c.13 0 .16-.06.2-.1.02-.06.02-.12.02-.18v-.1c0-.1 0-.12-.03-.19 0-.03-.03-.1-.03-.16ZM81.38 169.45v3.63c0 .03-.03.1-.07.12l-.4.48c-.04.03-.07.06-.13.06h-2.7c-.07 0-.1-.03-.13-.06l-.44-.48c-.04-.03-.04-.1-.04-.12v-3.63c0-.06 0-.1.04-.15l.44-.45c.03-.06.06-.06.12-.06h2.7c.07 0 .1 0 .13.06l.41.45c.04.06.07.09.07.15Zm.88-1.82c-.06-.07-.16-.1-.29-.1h-5.1c-.12 0-.21.03-.28.1l-.9 1a.4.4 0 0 0-.14.32v4.6c0 .13.04.25.13.35l.91.97c.07.1.16.13.29.13h5.1c.12 0 .22-.03.28-.13l.91-.97c.06-.1.13-.22.13-.35v-4.6c0-.13-.07-.22-.13-.32l-.91-1ZM90.6 171.85v1.3c0 .05 0 .09-.03.12l-.41.44c-.03 0-.03.03-.06.03h-3.72c-.03 0-.1 0-.1-.13v-2.1h3.82l.47.28c.03.03.03.03.03.06Zm-4.31-1.23v-1.7c0-.13.06-.13.1-.13h2.76c.06 0 .1 0 .13.03l.5.57c.06.03.06.1.06.13v1.1H86.3Zm6.04.53-.94-.53v-1.45c0-.13-.04-.22-.1-.28l-1.13-1.23c-.06-.1-.2-.13-.32-.13h-5.13c-.12 0-.34.03-.34.38v6.68c0 .35.22.41.34.41h6.58c.13 0 .19-.03.25-.13l.85-.91c.07-.1.1-.16.1-.28v-2.24c0-.16-.1-.25-.16-.28ZM99.16 169.45v3.63c0 .03-.03.1-.06.12l-.41.48a.23.23 0 0 1-.13.06h-2.74c-.03 0-.06-.03-.1-.06l-.43-.48c-.03-.03-.03-.1-.03-.12v-3.63c0-.06 0-.1.03-.15l.44-.45c.03-.06.06-.06.1-.06h2.73c.03 0 .1 0 .13.06l.4.45c.04.06.07.09.07.15Zm.88-1.82a.5.5 0 0 0-.28-.1h-5.1c-.13 0-.22.03-.29.1l-.9 1a.4.4 0 0 0-.13.32v4.6c0 .13.03.25.12.35l.91.97c.07.1.16.13.29.13h5.1c.1 0 .19-.03.28-.13l.91-.97c.06-.1.1-.22.1-.35v-4.6a.53.53 0 0 0-.1-.32l-.91-1ZM108.66 167.53h-6.64c-.15 0-.25.06-.25.22v.85c0 .13.1.22.25.22h2.36v5.93c0 .16.07.25.22.25h1.48c.16 0 .22-.1.22-.25v-5.93h2.36c.13 0 .22-.06.22-.22v-.85c0-.16-.09-.22-.22-.22Z"/>
  </g>
  <defs>
    <clipPath id="a">
      <path fill="#fff" d="M0 0h109v175H0z"/>
    </clipPath>
  </defs>
</svg>