<svg fill="none" viewBox="0 0 305 199">
  <path stroke="#F0F0F0" stroke-linecap="round" stroke-linejoin="round" d="M42.79 4.12h6.48c.22 0 .4.18.4.41v81.09h-7.29V4.53a.4.4 0 0 1 .4-.41h0ZM52.47 4.12h6.48c.23 0 .4.18.4.41v81.09h-7.28V4.53a.4.4 0 0 1 .4-.41h0ZM71.84 4.12h6.48c.22 0 .4.18.4.41v81.09h-7.29V4.53a.4.4 0 0 1 .4-.41h0ZM91.2 4.12h6.49c.22 0 .4.18.4.41v81.09h-7.3V4.53a.4.4 0 0 1 .41-.41h0ZM110.57 4.12h6.48c.23 0 .4.18.4.41v81.09h-7.28V4.53a.4.4 0 0 1 .4-.41h0ZM129.94 4.12h6.48c.22 0 .4.18.4.41v81.09h-7.29V4.53a.4.4 0 0 1 .4-.41h0ZM149.3 4.12h6.49c.22 0 .4.18.4.41v81.09h-7.29V4.53a.4.4 0 0 1 .4-.41h0ZM62.16 4.12h6.48c.22 0 .4.18.4.41v81.09h-7.29V4.53a.4.4 0 0 1 .4-.41h0ZM81.52 4.12H88c.23 0 .4.18.4.41v81.09h-7.28V4.53a.4.4 0 0 1 .4-.41h0ZM100.89 4.12h6.48c.22 0 .4.18.4.41v81.09a.4.4 0 0 1-.4.4h-6.48a.4.4 0 0 1-.4-.4V4.53a.4.4 0 0 1 .4-.41v0ZM120.25 4.12h6.49c.22 0 .4.18.4.41v81.09h-7.29V4.53a.4.4 0 0 1 .4-.41v0ZM139.62 4.12h6.48c.22 0 .4.18.4.41v81.09h-7.28V4.53a.4.4 0 0 1 .4-.41v0ZM183.07 155.82h25.59a.7.7 0 0 1 .68.7v5.16c0 1.32-1.06 2.4-2.35 2.4h-23.92v-8.26h0Z" clip-rule="evenodd"/>
  <path stroke="#F0F0F0" stroke-linecap="round" stroke-linejoin="round" d="M36.69 85.62h146.38c.48 0 .72.07.89.36l18.92 34.48c.63 1.1.44 1.91.08 2.54l-3.85 6.55c-1.03 1.81-2.27 1.66-3.66 1.66h-6.04c-2.51 0-6.34.19-6.34 8.97v23.9H36.69V85.62h0Z" clip-rule="evenodd"/>
  <path stroke="#F0F0F0" stroke-linecap="round" stroke-linejoin="round" d="M43 121.3h124.9c1.44 0 2.61 1.2 2.61 2.65v35.23a2.63 2.63 0 0 1-2.6 2.65H43c-1.43 0-2.6-1.2-2.6-2.65v-35.23a2.63 2.63 0 0 1 2.6-2.65v0Z" clip-rule="evenodd"/>
  <path stroke="#F0F0F0" stroke-linecap="round" stroke-linejoin="round" d="M47.43 130.33h47.14a1 1 0 0 1 .98 1v13.3a1 1 0 0 1-.98 1H47.43a1 1 0 0 1-.98-1v-13.3a1 1 0 0 1 .98-1v0Z" clip-rule="evenodd"/>
  <path stroke="#F0F0F0" stroke-linecap="round" stroke-linejoin="round" d="M164.04 121.3V85.62"/>
  <path stroke="#F0F0F0" stroke-linecap="round" stroke-linejoin="round" d="m298.86 130.07.27 32.13c0 1.03-.84 1.87-1.86 1.87h-57.09a1.88 1.88 0 0 1-1.86-1.87l-.29-34.53.29 1.68c.5 1.52 1.12 2 2.55 2l27.92.07h27.67c.9 0 1.85-.24 2.4-1.35h0Z" clip-rule="evenodd"/>
  <path stroke="#F0F0F0" stroke-linecap="round" stroke-linejoin="round" d="M300.94 119.5h-.03c-.38 1.42-1.94 2.47-3.68 2.47h-56.96a3.95 3.95 0 0 1-3.4-1.79h-.11l1.56 9.17c.5 1.53 1.12 2 2.55 2l27.92.07h27.67c1.07 0 2.21-.33 2.67-2.07l1.81-9.84h0ZM265.3 151.57h17.76c.38 0 .7.31.7.7v9.53a2.4 2.4 0 0 1-2.39 2.38h-32.14a2.4 2.4 0 0 1-2.38-2.38v-9.53c0-.39.3-.7.7-.7h17.75Z" clip-rule="evenodd"/>
  <path stroke="#F0F0F0" stroke-linecap="round" stroke-linejoin="round" d="M265.3 155.95h17.76c.38 0 .7.32.7.7v5.15a2.4 2.4 0 0 1-2.39 2.38h-32.14a2.4 2.4 0 0 1-2.38-2.38v-5.15c0-.38.3-.7.7-.7h17.75ZM242.23 85.97h52.88c2.07 0 3.63 1.5 3.76 3.31l2.12 29.38c.13 1.82-1.7 3.31-3.76 3.31h-56.96c-2.07 0-3.89-1.49-3.77-3.3l1.96-29.39a3.65 3.65 0 0 1 3.77-3.3h0Z" clip-rule="evenodd"/>
  <path stroke="#F0F0F0" stroke-linecap="round" stroke-linejoin="round" d="M243.47 89h50.33c1.9 0 2.34 1.07 2.42 2.37l1.26 19.4c.08 1.3-.44 2.38-2.34 2.38H242.1c-1.9 0-2.56-1.07-2.47-2.37l1.27-19.4c.09-1.31.67-2.38 2.57-2.38h0Z" clip-rule="evenodd"/>
  <path stroke="#F0F0F0" stroke-linecap="round" stroke-linejoin="round" d="M268.81 120.13a2 2 0 1 0 0-4 2 2 0 0 0 0 4Z"/>
  <path stroke="#F0F0F0" stroke-linecap="round" stroke-linejoin="round" d="M246.53 4.73h34.98c1.25 0 2.25.82 2.25 2.91v78.33h-37.23V17.54c0-1.29 1.95-.91 2.1-1.17l-2.1-5.9V4.73h0Z" clip-rule="evenodd"/>
  <path stroke="#F0F0F0" stroke-width=".5" d="M33.72 2.29h-14.2M33.72 164.97h-14.2M36.77 168.5v14.09M208.18 168.5v14.09"/>
  <path stroke="#F0F0F0" d="M34.36 178.68h177.45M210.28 176.4l-3.52 4.56M38.78 176.4l-3.51 4.56M23.55 0v168.41M25.85 166.96l-4.6-3.33M25.85 4.2 21.25.86"/>
  <path fill="#F0F0F0" d="M119.71 190.86c.88 0 1.63.15 2.28.45.64.3 1.14.72 1.5 1.28.35.57.53 1.25.53 2.05 0 .88-.2 1.64-.57 2.28a3.79 3.79 0 0 1-1.65 1.47c-.71.34-1.57.5-2.56.5-.67 0-1.3-.05-1.87-.17a4.62 4.62 0 0 1-1.45-.53v-1.38a7.29 7.29 0 0 0 3.33.84c.66 0 1.22-.1 1.71-.3.5-.22.87-.54 1.14-.96.28-.43.42-.96.42-1.6a2.5 2.5 0 0 0-.8-1.98c-.52-.47-1.34-.7-2.47-.7a10.06 10.06 0 0 0-2.27.28l-.74-.49.5-6.03h6.38v1.34h-5.14l-.33 3.87a12.15 12.15 0 0 1 2.06-.22Zm10.49-5.17c.74 0 1.4.11 1.98.35a2.77 2.77 0 0 1 1.84 2.7c0 .53-.12.98-.35 1.38-.22.38-.52.72-.9 1.02-.39.28-.8.54-1.27.77a8.8 8.8 0 0 1 1.48.85c.45.32.8.69 1.06 1.12.26.43.39.93.39 1.52a3.3 3.3 0 0 1-.53 1.87c-.35.52-.84.92-1.46 1.2-.63.29-1.36.43-2.2.43-.92 0-1.69-.14-2.33-.4a3.2 3.2 0 0 1-1.45-1.19 3.38 3.38 0 0 1-.49-1.85 3 3 0 0 1 .38-1.54c.25-.44.58-.81 1-1.13.42-.32.87-.58 1.36-.8-.43-.24-.82-.5-1.18-.8a3.07 3.07 0 0 1-1.15-2.45c0-.65.17-1.2.5-1.66.33-.45.78-.8 1.36-1.03a5.09 5.09 0 0 1 1.96-.36Zm-2.8 9.78c0 .66.23 1.2.7 1.63.46.42 1.16.63 2.1.63.89 0 1.58-.21 2.06-.63.49-.43.73-1 .73-1.68 0-.43-.1-.8-.33-1.13a3.14 3.14 0 0 0-.95-.88c-.41-.25-.9-.49-1.45-.7l-.32-.12c-.54.23-1 .48-1.38.75-.37.27-.66.58-.86.92-.2.35-.3.75-.3 1.2Zm2.78-8.59c-.7 0-1.26.17-1.7.5-.44.33-.66.8-.66 1.43 0 .44.11.82.32 1.13.22.3.51.57.88.8.37.2.78.41 1.24.6.44-.19.84-.4 1.19-.62.34-.23.61-.5.81-.8.2-.32.3-.69.3-1.12 0-.62-.22-1.1-.66-1.43-.43-.32-1-.49-1.72-.49ZM4.95 85.16c.87 0 1.63.15 2.27.44.65.3 1.15.73 1.5 1.29.36.56.53 1.24.53 2.05 0 .87-.19 1.63-.57 2.27a3.79 3.79 0 0 1-1.64 1.47c-.71.34-1.57.51-2.57.51-.66 0-1.29-.06-1.86-.18a4.62 4.62 0 0 1-1.45-.52v-1.4a7.31 7.31 0 0 0 3.33.84c.65.01 1.22-.1 1.7-.3.5-.2.88-.52 1.15-.95.27-.42.41-.96.41-1.6a2.5 2.5 0 0 0-.79-1.98c-.52-.47-1.35-.7-2.48-.7a8.98 8.98 0 0 0-2.27.28l-.73-.49.49-6.03h6.39v1.34H3.22l-.33 3.88a12.14 12.14 0 0 1 2.06-.22Zm10.48-5.18c.75 0 1.4.12 1.98.35a2.76 2.76 0 0 1 1.84 2.7c0 .53-.12.99-.34 1.38-.23.39-.53.73-.91 1.02-.38.29-.8.54-1.27.77.56.25 1.05.54 1.49.86.45.31.8.68 1.05 1.11.26.43.4.94.4 1.52a3.3 3.3 0 0 1-.54 1.87c-.34.53-.83.93-1.46 1.2-.62.29-1.36.43-2.2.43-.91 0-1.68-.13-2.32-.4a3.2 3.2 0 0 1-1.45-1.18 3.38 3.38 0 0 1-.5-1.86 3 3 0 0 1 .38-1.53c.26-.44.59-.82 1-1.14.42-.31.88-.58 1.37-.8a7.3 7.3 0 0 1-1.18-.8c-.35-.3-.63-.65-.84-1.04-.2-.4-.31-.88-.31-1.41 0-.65.16-1.2.5-1.65.33-.46.78-.8 1.35-1.04a5.08 5.08 0 0 1 1.96-.36Zm-2.8 9.78c0 .66.24 1.2.7 1.63.47.42 1.17.63 2.1.63.9 0 1.58-.21 2.07-.63.49-.43.73-.99.73-1.68 0-.43-.11-.8-.34-1.13a3.14 3.14 0 0 0-.94-.87c-.41-.26-.9-.5-1.45-.7l-.32-.12c-.54.22-1 .47-1.38.75-.38.26-.66.57-.86.92-.2.34-.3.75-.3 1.2Zm2.79-8.58c-.7 0-1.26.16-1.7.5-.44.32-.66.8-.66 1.42 0 .45.1.82.32 1.13.21.3.5.57.88.8.37.21.78.41 1.24.6.44-.19.84-.4 1.18-.61.35-.23.62-.5.82-.81.2-.31.3-.69.3-1.12 0-.62-.22-1.1-.66-1.42-.43-.33-1-.5-1.72-.5Z"/>
  <path stroke="#F0F0F0" stroke-width=".5" d="M235.76 167.9v14M301.95 167.9v14"/>
  <path stroke="#F0F0F0" d="M233 177.7h71.66M303.79 175.95l-3.66 3.5M237.6 175.95l-3.66 3.5"/>
  <path fill="#F0F0F0" d="M275.12 198.04h-8.42v-1.23l3.43-3.49a34.3 34.3 0 0 0 1.61-1.72c.44-.5.77-1 1-1.48.23-.5.35-1.03.35-1.62 0-.73-.22-1.28-.65-1.66-.43-.39-1-.58-1.7-.58a4 4 0 0 0-1.64.31c-.47.22-.96.52-1.45.9l-.79-.98a6.13 6.13 0 0 1 2.4-1.3 5.48 5.48 0 0 1 3.53.22c.57.28 1.01.67 1.32 1.18.32.51.48 1.12.48 1.82a4.5 4.5 0 0 1-.4 1.9 7.79 7.79 0 0 1-1.14 1.73c-.49.57-1.05 1.17-1.7 1.81l-2.8 2.79v.06h6.57v1.34Zm9.82-9.86a2.83 2.83 0 0 1-1.26 2.53c-.4.27-.87.45-1.4.56v.07c1.01.13 1.78.46 2.28.98.52.53.78 1.22.78 2.08a3.48 3.48 0 0 1-2.13 3.33c-.71.32-1.63.48-2.75.48-.68 0-1.31-.05-1.89-.17a6.62 6.62 0 0 1-1.65-.53v-1.37a8.33 8.33 0 0 0 3.56.84c1.17 0 2.02-.23 2.54-.7.52-.46.78-1.1.78-1.9 0-.57-.15-1.01-.44-1.35-.29-.35-.7-.6-1.25-.76a6.76 6.76 0 0 0-1.95-.25h-1.28v-1.24h1.29c.7 0 1.29-.1 1.77-.31.5-.2.86-.5 1.11-.86.26-.38.39-.82.39-1.33 0-.65-.22-1.15-.65-1.5a2.7 2.7 0 0 0-1.77-.54 5.13 5.13 0 0 0-2.3.53c-.33.16-.66.35-.99.57l-.73-1a6.27 6.27 0 0 1 4-1.34c1.32 0 2.3.3 2.96.9.65.6.98 1.36.98 2.28Z"/>
</svg>