<svg fill="none" viewBox="0 0 279 89">
  <path stroke="#F0F0F0" stroke-linecap="round" stroke-miterlimit="22.93" stroke-width="2" d="M63.3 41.8h53.37l-3.28 40.86c-.35 2.93-2.42 5.34-5.36 5.34H71.42c-2.94 0-5.01-2.41-5.36-5.34L63.3 41.8v0Z" clip-rule="evenodd"/>
  <path stroke="#F0F0F0" stroke-linecap="round" stroke-miterlimit="22.93" stroke-width="2" d="M61.4 21.71h58.98c1.56 0 2.77 1.38 2.77 3.02V38.7c0 1.73-1.21 3.1-2.77 3.1H61.4c-1.55 0-2.76-1.37-2.76-3.1V24.73c0-1.64 1.2-3.02 2.76-3.02v0Z" clip-rule="evenodd"/>
  <path stroke="#F0F0F0" stroke-linecap="round" stroke-miterlimit="22.93" stroke-width="2" d="M66.06 27.58v7.4M74.1 27.58v7.4M82.21 27.58v7.4M90.24 27.58v7.4M98.28 27.58v7.4M106.4 27.58v7.4M114.42 27.58v7.4"/>
  <path stroke="#F0F0F0" stroke-linecap="round" stroke-miterlimit="22.93" stroke-width="2" d="M8.58 51.82h14.5v16.96l-3.15 13.57c-.25 2.05-1.66 3.78-3.72 3.78h-.44c-2.06 0-3.53-1.67-3.79-3.78L8.65 68.91l-.07-17.09v0Z" clip-rule="evenodd"/>
  <path stroke="#F0F0F0" stroke-linecap="round" stroke-miterlimit="22.93" stroke-width="2" d="M3.45 48.81c-3.07-1.85-4.1-7.42 2-9.02l22.3-4.87"/>
  <path stroke="#F0F0F0" stroke-linecap="round" stroke-miterlimit="22.93" stroke-width="2" d="M25.38 46.9H6.28a2.4 2.4 0 0 0-2.38 2.42v.07a2.4 2.4 0 0 0 2.37 2.43h19.11a2.4 2.4 0 0 0 2.38-2.43v-.07a2.4 2.4 0 0 0-2.38-2.43ZM24.17 36.97c.19.96-.39 1.92-1.35 2.11L9.6 41.71c-.96.2-1.92-.38-2.12-1.34"/>
  <rect width="46" height="87" x="232" y="1" stroke="#F0F0F0" stroke-width="2" rx="2"/>
  <path stroke="#F0F0F0" stroke-linecap="round" stroke-miterlimit="22.93" stroke-width="2" d="M151.82 20.98h37.56c1.02 0 1.75 1.01 1.75 2.3v10.78c0 1.29-.73 2.4-1.75 2.4h-37.56c-.92 0-1.75-1.11-1.75-2.4V23.28c0-1.29.83-2.3 1.75-2.3v0Z" clip-rule="evenodd"/>
  <path stroke="#F0F0F0" stroke-linecap="round" stroke-miterlimit="22.93" stroke-width="2" d="M155.8 26.05v4.6M161.97 26.05v4.6M168.16 26.05v4.6M174.34 26.05v4.6M180.52 26.05v4.6M186.7 26.05v4.6"/>
  <path stroke="#F0F0F0" stroke-linecap="round" stroke-miterlimit="22.93" stroke-width="2" d="M153.48 36.45h34.33v42.47c0 4.6-3.87 8.47-8.49 8.47h-17.35a8.52 8.52 0 0 1-8.49-8.47V36.45v0Z" clip-rule="evenodd"/>
  <path stroke="#F0F0F0" stroke-linecap="round" stroke-miterlimit="22.93" stroke-width="2" d="M191.6 35.53h-41.44c-.66 0-1.2.5-1.2 1.1v.1c0 .61.54 1.1 1.2 1.1h41.44c.66 0 1.2-.49 1.2-1.1v-.1c0-.6-.54-1.1-1.2-1.1Z"/>
  <path stroke="#F0F0F0" stroke-linecap="round" stroke-miterlimit="22.93" stroke-width="2" d="M167.42 36.91h6.92c1.48 0 2.77 1.2 2.77 2.77v29.01c0 3.4-2.77 6.26-6.28 6.26a6.26 6.26 0 0 1-6.18-6.26V39.68c0-1.57 1.3-2.77 2.77-2.77Z" clip-rule="evenodd"/>
  <path fill="#F0F0F0" d="M170.83 71.55c2 0 3.6-2.23 3.6-4.98 0-2.74-1.6-4.97-3.6-4.97-1.98 0-3.6 2.23-3.6 4.97 0 2.75 1.62 4.98 3.6 4.98Z"/>
</svg>