<svg fill="none" viewBox="0 0 356 208">
  <path fill="#F0F0F0" d="M51.08 158.6v6.34H25.7v-5.04l12.96-12.24a14.03 14.03 0 0 0 2.79-3.36c.48-.96.72-1.9.72-2.83 0-1.35-.47-2.37-1.4-3.07-.9-.74-2.22-1.1-3.98-1.1-1.47 0-2.8.28-3.98.86a7.44 7.44 0 0 0-2.98 2.5L24.16 137a13.12 13.12 0 0 1 5.42-4.56 17.9 17.9 0 0 1 7.92-1.68c2.5 0 4.67.42 6.53 1.25a9.7 9.7 0 0 1 4.37 3.46 8.74 8.74 0 0 1 1.58 5.23c0 1.82-.38 3.54-1.15 5.14-.77 1.6-2.26 3.42-4.47 5.47l-7.72 7.3h14.44Zm17.52 6.92c-2.79 0-5.27-.7-7.44-2.07a14.03 14.03 0 0 1-5.14-5.95 22.1 22.1 0 0 1-1.82-9.36c0-3.62.6-6.72 1.82-9.31a13.98 13.98 0 0 1 5.14-6 13.62 13.62 0 0 1 7.44-2.07c2.78 0 5.26.7 7.44 2.07a13.68 13.68 0 0 1 5.09 6c1.24 2.59 1.87 5.7 1.87 9.31 0 3.62-.63 6.74-1.87 9.36a13.72 13.72 0 0 1-5.1 5.95 13.62 13.62 0 0 1-7.43 2.07Zm0-6.58c2.05 0 3.65-.88 4.8-2.64 1.18-1.76 1.77-4.48 1.77-8.16 0-3.68-.59-6.4-1.77-8.16a5.44 5.44 0 0 0-4.8-2.64c-2.02 0-3.62.88-4.8 2.64-1.15 1.76-1.73 4.48-1.73 8.16 0 3.68.58 6.4 1.73 8.16a5.51 5.51 0 0 0 4.8 2.64Zm49.72 6-5.66-7.92-5.86 7.92h-8.16l9.94-13-9.6-12.82h8.4l5.47 7.53 5.62-7.53h7.96l-9.6 12.62 9.99 13.2h-8.5Zm37.01-33.6v33.6h-7.78v-27.36h-6.72v-6.24h14.5Zm30.94 27.26v6.34h-25.4v-5.04l12.97-12.24a14.03 14.03 0 0 0 2.78-3.36c.48-.96.72-1.9.72-2.83 0-1.35-.46-2.37-1.39-3.07-.9-.74-2.22-1.1-3.98-1.1-1.47 0-2.8.28-3.99.86a7.44 7.44 0 0 0-2.97 2.5l-5.67-3.66a13.12 13.12 0 0 1 5.43-4.56 17.9 17.9 0 0 1 7.92-1.68c2.5 0 4.67.42 6.53 1.25a9.7 9.7 0 0 1 4.36 3.46 8.74 8.74 0 0 1 1.59 5.23c0 1.82-.39 3.54-1.16 5.14-.76 1.6-2.25 3.42-4.46 5.47l-7.73 7.3h14.45Zm17.9-19.34h22.86v5.86h-22.85v-5.86Zm0 11.9h22.86v5.86h-22.85v-5.86Zm66.34 7.44v6.34h-25.4v-5.04l12.96-12.24a14.03 14.03 0 0 0 2.79-3.36c.48-.96.72-1.9.72-2.83 0-1.35-.47-2.37-1.4-3.07-.9-.74-2.22-1.1-3.98-1.1-1.47 0-2.8.28-3.98.86a7.44 7.44 0 0 0-2.98 2.5l-5.66-3.66a13.12 13.12 0 0 1 5.42-4.56 17.9 17.9 0 0 1 7.92-1.68c2.5 0 4.67.42 6.53 1.25a9.7 9.7 0 0 1 4.37 3.46 8.74 8.74 0 0 1 1.58 5.23c0 1.82-.38 3.54-1.15 5.14-.77 1.6-2.26 3.42-4.46 5.47l-7.73 7.3h14.44Zm33.5-.72h-5.47v7.06h-7.58v-7.06h-18.1v-5.23l15.84-21.31h8.16l-14.69 20.2h9.03v-6.28h7.34v6.29h5.47v6.33Zm16.73 7.64c-2.79 0-5.26-.7-7.44-2.07a14.03 14.03 0 0 1-5.14-5.95 22.1 22.1 0 0 1-1.82-9.36c0-3.62.6-6.72 1.82-9.31a13.98 13.98 0 0 1 5.14-6 13.62 13.62 0 0 1 7.44-2.07c2.78 0 5.26.7 7.44 2.07a13.68 13.68 0 0 1 5.09 6c1.25 2.59 1.87 5.7 1.87 9.31 0 3.62-.63 6.74-1.87 9.36a13.72 13.72 0 0 1-5.1 5.95 13.62 13.62 0 0 1-7.43 2.07Zm0-6.58c2.05 0 3.65-.88 4.8-2.64 1.18-1.76 1.77-4.48 1.77-8.16 0-3.68-.59-6.4-1.77-8.16a5.44 5.44 0 0 0-4.8-2.64c-2.02 0-3.62.88-4.8 2.64-1.15 1.76-1.73 4.48-1.73 8.16 0 3.68.58 6.4 1.73 8.16a5.51 5.51 0 0 0 4.8 2.64ZM31.58 177v7.49h-1.14v-6.52h-4v6.52H25.3v-7.5h6.28Zm5.93-.14c.93 0 1.68.32 2.23.96.56.65.84 1.61.84 2.9 0 .85-.13 1.57-.39 2.15a2.88 2.88 0 0 1-1.08 1.31c-.46.3-1 .44-1.63.44-.4 0-.75-.05-1.05-.15a2.46 2.46 0 0 1-1.3-1h-.09a164.6 164.6 0 0 1 .09 1.3v3.07h-1.14V177h.93l.15 1.1h.06c.14-.22.32-.43.53-.62.21-.19.47-.34.77-.45.3-.11.66-.17 1.08-.17Zm-.2.96c-.52 0-.94.1-1.26.3-.31.2-.54.5-.7.9-.14.4-.21.9-.22 1.5v.22c0 .63.07 1.16.2 1.6.14.44.37.77.7 1 .32.23.75.34 1.3.34.46 0 .84-.12 1.15-.37.31-.25.54-.6.7-1.05.15-.45.23-.97.23-1.55 0-.89-.18-1.59-.52-2.1-.35-.53-.87-.8-1.58-.8Zm11.7 2.9c0 .62-.07 1.17-.23 1.66-.16.48-.4.89-.7 1.22a3 3 0 0 1-1.09.77c-.42.17-.9.25-1.44.25a3.1 3.1 0 0 1-2.46-1.03c-.3-.32-.53-.73-.7-1.21a5.11 5.11 0 0 1-.25-1.65c0-.82.14-1.52.42-2.1.28-.57.67-1.01 1.19-1.31.52-.3 1.13-.46 1.85-.46.68 0 1.28.15 1.8.46.5.3.9.75 1.19 1.32.28.58.43 1.27.43 2.09Zm-5.7 0c0 .61.09 1.13.25 1.57.16.45.4.79.73 1.03.34.24.77.36 1.29.36s.94-.12 1.28-.36c.33-.24.58-.58.74-1.03.16-.44.24-.96.24-1.56 0-.6-.08-1.11-.24-1.55-.16-.43-.4-.77-.74-1a2.18 2.18 0 0 0-1.29-.36c-.78 0-1.35.25-1.71.77a3.69 3.69 0 0 0-.54 2.14Zm7.28-.73c0-1.07.1-1.98.3-2.73.21-.75.53-1.36.96-1.81.43-.47.99-.78 1.67-.95a42.34 42.34 0 0 1 3.53-.72l.2 1a32.65 32.65 0 0 0-1.85.3 17.13 17.13 0 0 0-1.62.37c-.4.1-.73.29-1.01.55-.28.26-.5.62-.66 1.07a6.14 6.14 0 0 0-.29 1.72h.08a2.95 2.95 0 0 1 1.41-1.08c.33-.13.7-.2 1.1-.2.66 0 1.2.15 1.63.43.43.28.76.67.98 1.18.21.5.32 1.1.32 1.77 0 .82-.14 1.5-.42 2.06-.28.56-.67.98-1.18 1.26-.5.28-1.1.41-1.78.41a2.9 2.9 0 0 1-2.48-1.21c-.29-.4-.51-.88-.66-1.45a7.8 7.8 0 0 1-.23-1.97Zm3.46 3.7c.43 0 .8-.1 1.11-.28.32-.18.56-.47.73-.86.17-.4.26-.91.26-1.55 0-.8-.16-1.41-.46-1.86-.3-.45-.78-.67-1.45-.67-.41 0-.8.09-1.13.26a3.19 3.19 0 0 0-1.36 1.27c0 .47.04.92.1 1.36.07.43.2.83.36 1.18.17.35.4.63.7.83.3.2.68.31 1.14.31Zm6.34-6.7v4.72a11.75 11.75 0 0 1-.06 1.28l-.02.36L64.4 177h1.4v7.49h-1.07v-4.6a29.57 29.57 0 0 1 .05-1.74l-4.07 6.34h-1.4v-7.5h1.08Zm11.34-.13c.93 0 1.68.32 2.23.96.56.65.84 1.61.84 2.9 0 .85-.13 1.57-.39 2.15a2.88 2.88 0 0 1-1.08 1.31c-.46.3-1 .44-1.63.44-.4 0-.75-.05-1.05-.15a2.47 2.47 0 0 1-1.3-1h-.08a164.6 164.6 0 0 1 .08 1.3v3.07H68.2V177h.93l.15 1.1h.06c.14-.22.32-.43.53-.62.21-.19.47-.34.77-.45.3-.11.66-.17 1.08-.17Zm-.2.96c-.52 0-.94.1-1.26.3-.31.2-.54.5-.69.9-.15.4-.22.9-.23 1.5v.22c0 .63.07 1.16.2 1.6.14.44.37.77.7 1 .32.23.75.34 1.3.34.46 0 .84-.12 1.15-.37.31-.25.54-.6.7-1.05.15-.45.23-.97.23-1.55 0-.89-.18-1.59-.52-2.1-.34-.53-.87-.8-1.58-.8Zm11.7 2.9c0 .62-.07 1.17-.23 1.66-.16.48-.4.89-.7 1.22a3 3 0 0 1-1.09.77c-.42.17-.9.25-1.44.25a3.1 3.1 0 0 1-2.46-1.03c-.3-.32-.53-.73-.7-1.21a5.11 5.11 0 0 1-.25-1.65c0-.82.14-1.52.42-2.1.28-.57.67-1.01 1.19-1.31.52-.3 1.13-.46 1.85-.46.68 0 1.28.15 1.8.46.5.3.9.75 1.19 1.32.28.58.43 1.27.43 2.09Zm-5.7 0c0 .61.09 1.13.25 1.57.16.45.4.79.73 1.03.34.24.77.36 1.29.36s.95-.12 1.28-.36c.34-.24.58-.58.74-1.03.16-.44.24-.96.24-1.56 0-.6-.08-1.11-.24-1.55-.16-.43-.4-.77-.73-1a2.18 2.18 0 0 0-1.3-.36c-.78 0-1.35.25-1.71.77a3.69 3.69 0 0 0-.54 2.14ZM89.58 177h1.25l-3.23 3.61 3.49 3.88h-1.33l-3.4-3.8v3.8H85.2v-7.5h1.14v3.64l3.23-3.63ZM136.54 178.92h1.25l-3.23 3.62 3.5 3.87h-1.34l-3.4-3.8v3.8h-1.15v-7.49h1.14v3.64l3.23-3.64Zm9.33 3.74c0 .61-.09 1.16-.24 1.64-.16.48-.4.9-.7 1.23-.3.33-.66.58-1.09.76-.42.17-.9.26-1.44.26a3.12 3.12 0 0 1-3.16-2.25 5.11 5.11 0 0 1-.25-1.64c0-.83.14-1.52.41-2.1.28-.58.68-1.02 1.2-1.32a3.6 3.6 0 0 1 1.85-.46c.68 0 1.28.16 1.79.46.51.3.91.75 1.2 1.33.28.57.43 1.27.43 2.09Zm-5.7 0c0 .6.07 1.12.23 1.56.16.44.4.78.74 1.03.33.24.76.36 1.29.36.52 0 .94-.12 1.28-.37.33-.24.58-.58.74-1.02.16-.44.24-.96.24-1.56 0-.6-.08-1.12-.24-1.55-.16-.44-.4-.78-.74-1.01a2.18 2.18 0 0 0-1.29-.36c-.78 0-1.35.26-1.72.77a3.69 3.69 0 0 0-.54 2.15Zm8.8-3.74v3.15h4.18v-3.15h1.13v7.5h-1.13v-3.39h-4.18v3.38h-1.14v-7.49h1.14Zm12.82.97h-2.47v6.52h-1.12v-6.52h-2.43v-.97h6.02v.97Zm4.37-1.1a2.75 2.75 0 0 1 2.69 1.61c.24.5.36 1.1.36 1.78v.7h-5.18c.02.88.24 1.55.66 2.01.43.46 1.02.69 1.8.69a5.45 5.45 0 0 0 2.38-.51v1a5.58 5.58 0 0 1-2.44.48 3.9 3.9 0 0 1-1.88-.44c-.54-.3-.95-.73-1.25-1.3a4.48 4.48 0 0 1-.44-2.09 5 5 0 0 1 .4-2.09c.28-.6.66-1.05 1.15-1.37.5-.31 1.08-.47 1.75-.47Zm-.01.93c-.6 0-1.1.2-1.45.59-.36.4-.58.95-.64 1.66h3.96c0-.45-.08-.84-.21-1.18-.13-.34-.34-.6-.61-.79a1.8 1.8 0 0 0-1.05-.28Zm6.07-.8v4.71a14.29 14.29 0 0 1-.06 1.28c0 .15 0 .27-.02.36l4.09-6.35h1.4v7.5h-1.06v-4.6a34.83 34.83 0 0 1 .02-1.23l.02-.52-4.07 6.34h-1.4v-7.49h1.08Zm4.84-3.08c-.04.46-.15.84-.34 1.15-.2.31-.47.55-.83.7-.37.16-.83.24-1.4.24-.6 0-1.06-.07-1.43-.22a1.62 1.62 0 0 1-.79-.7c-.17-.31-.27-.7-.3-1.17h1.07c.05.5.18.84.4 1.03.22.18.58.27 1.07.27.44 0 .78-.1 1.03-.29.25-.2.4-.53.45-1.01h1.07Zm4.12 3.08v3.15h4.18v-3.15h1.13v7.5h-1.13v-3.39h-4.18v3.38h-1.14v-7.49h1.14Zm10.6-.13a2.75 2.75 0 0 1 2.69 1.61c.24.5.36 1.1.36 1.78v.7h-5.17c.01.88.23 1.55.65 2.01.43.46 1.02.69 1.8.69a5.45 5.45 0 0 0 2.39-.51v1a5.58 5.58 0 0 1-2.44.48 3.9 3.9 0 0 1-1.9-.44c-.52-.3-.94-.73-1.23-1.3a4.5 4.5 0 0 1-.45-2.09 5 5 0 0 1 .4-2.09c.28-.6.66-1.05 1.15-1.37.5-.31 1.08-.47 1.75-.47Zm-.01.93c-.6 0-1.1.2-1.45.59-.36.4-.57.95-.64 1.66h3.96c0-.45-.07-.84-.21-1.18-.13-.34-.34-.6-.6-.79a1.8 1.8 0 0 0-1.06-.28Zm8.5-.94c.94 0 1.69.33 2.24.97.56.64.84 1.6.84 2.9 0 .85-.13 1.56-.38 2.14a2.88 2.88 0 0 1-1.08 1.32c-.46.3-1 .44-1.64.44-.4 0-.74-.05-1.04-.16-.3-.1-.56-.24-.78-.42-.21-.18-.39-.37-.53-.58h-.08a99.46 99.46 0 0 1 .08 1.3v3.07h-1.14v-10.84h.94l.15 1.11h.05a3 3 0 0 1 .53-.62c.21-.2.47-.34.77-.45.3-.12.67-.18 1.08-.18Zm-.19.96c-.52 0-.94.1-1.26.3-.31.2-.54.5-.69.9-.14.4-.22.9-.23 1.5v.22c0 .63.07 1.17.2 1.6.15.45.38.78.7 1 .32.23.75.35 1.3.35.46 0 .85-.13 1.16-.38.3-.25.54-.6.69-1.04.15-.45.23-.97.23-1.56 0-.88-.17-1.58-.52-2.1-.34-.53-.87-.79-1.58-.79Zm11.71 2.91c0 .62-.08 1.17-.24 1.65-.16.48-.39.9-.69 1.23a3 3 0 0 1-1.1.76c-.42.17-.9.26-1.44.26a3.13 3.13 0 0 1-3.16-2.25 5.11 5.11 0 0 1-.25-1.64c0-.83.14-1.52.42-2.1.28-.58.68-1.02 1.2-1.32a3.6 3.6 0 0 1 1.84-.46c.69 0 1.28.16 1.8.46.5.3.9.75 1.19 1.33.29.57.43 1.27.43 2.09Zm-5.7 0c0 .6.08 1.13.24 1.57.16.44.4.78.74 1.03.33.24.76.36 1.28.36s.95-.12 1.28-.37c.34-.24.59-.58.75-1.02.16-.44.24-.96.24-1.56 0-.6-.09-1.12-.24-1.55-.16-.44-.41-.78-.74-1.01a2.18 2.18 0 0 0-1.3-.36c-.77 0-1.35.26-1.71.77a3.69 3.69 0 0 0-.54 2.15Zm13.62-1.85c0 .47-.14.84-.41 1.1-.28.26-.63.44-1.06.53v.05c.47.07.87.24 1.2.51.35.27.52.68.52 1.24 0 .43-.1.8-.3 1.13-.21.33-.53.59-.97.77-.44.2-1 .28-1.71.28h-3.23v-7.49h3.2c.54 0 1.01.06 1.42.19.42.11.75.31.98.58.24.28.36.65.36 1.11Zm-.93 3.43c0-.44-.17-.76-.5-.96a2.9 2.9 0 0 0-1.47-.3h-1.91v2.52h1.94c.63 0 1.11-.1 1.44-.29.33-.2.5-.52.5-.97Zm-.23-3.3c0-.35-.13-.62-.39-.8-.26-.17-.68-.26-1.28-.26h-1.98v2.16h1.79a2.9 2.9 0 0 0 1.39-.27.88.88 0 0 0 .47-.83Z"/>
  <path stroke="#F0F0F0" d="m17.74 17.53 8.4 2.4-10.58 37.88a4.33 4.33 0 0 1-5.37 3 4.4 4.4 0 0 1-3.02-5.4l10.57-37.88Z"/>
  <rect width="11.5" height="11.62" fill="#F0F0F0" rx="1" transform="matrix(.9614 .27513 -.26881 .9632 19.43 6.33)"/>
  <rect width="7.96" height="1.79" fill="#F0F0F0" rx=".89" transform="matrix(.9614 .27513 -.26881 .9632 21.37 5.96)"/>
  <path stroke="#F0F0F0" d="m85.78 21.1 8.4 2.4L83.6 61.4a4.33 4.33 0 0 1-5.37 3 4.4 4.4 0 0 1-3.02-5.4l10.57-37.9Z"/>
  <rect width="11.5" height="11.62" fill="#F0F0F0" rx="1" transform="matrix(.9614 .27513 -.26881 .9632 87.47 9.91)"/>
  <rect width="7.96" height="1.79" fill="#F0F0F0" rx=".89" transform="matrix(.9614 .27513 -.26881 .9632 89.4 9.54)"/>
  <path stroke="#F0F0F0" d="m152.93 25.58 8.39 2.4-10.57 37.89a4.33 4.33 0 0 1-5.37 3 4.4 4.4 0 0 1-3.02-5.4l10.57-37.89Z"/>
  <rect width="11.5" height="11.62" fill="#F0F0F0" rx="1" transform="matrix(.9614 .27513 -.26881 .9632 154.62 14.39)"/>
  <rect width="7.96" height="1.79" fill="#F0F0F0" rx=".89" transform="matrix(.9614 .27513 -.26881 .9632 156.56 14.01)"/>
  <path stroke="#F0F0F0" d="m220.97 31.84 8.39 2.4-10.58 37.89a4.33 4.33 0 0 1-5.36 3 4.4 4.4 0 0 1-3.03-5.4l10.58-37.89Z"/>
  <rect width="11.5" height="11.62" fill="#F0F0F0" rx="1" transform="matrix(.9614 .27513 -.26881 .9632 222.65 20.65)"/>
  <rect width="7.96" height="1.79" fill="#F0F0F0" rx=".89" transform="matrix(.9614 .27513 -.26881 .9632 224.6 20.28)"/>
  <path stroke="#F0F0F0" d="m289 36.32 8.39 2.4-10.57 37.88a4.33 4.33 0 0 1-5.37 3 4.4 4.4 0 0 1-3.03-5.4L289 36.32Z"/>
  <rect width="11.5" height="11.62" fill="#F0F0F0" rx="1" transform="matrix(.9614 .27513 -.26881 .9632 290.68 25.12)"/>
  <rect width="7.96" height="1.79" fill="#F0F0F0" rx=".89" transform="matrix(.9614 .27513 -.26881 .9632 292.63 24.75)"/>
  <path stroke="#F0F0F0" d="m34.53 19.32 8.4 2.4L32.35 59.6a4.33 4.33 0 0 1-5.37 3 4.4 4.4 0 0 1-3.02-5.4l10.57-37.88Z"/>
  <rect width="11.5" height="11.62" fill="#F0F0F0" rx="1" transform="matrix(.9614 .27513 -.26881 .9632 36.22 8.12)"/>
  <rect width="7.96" height="1.79" fill="#F0F0F0" rx=".89" transform="matrix(.9614 .27513 -.26881 .9632 38.16 7.75)"/>
  <path stroke="#F0F0F0" d="m102.57 22 8.39 2.4-10.57 37.89a4.33 4.33 0 0 1-5.37 3 4.4 4.4 0 0 1-3.03-5.4L102.57 22Z"/>
  <rect width="11.5" height="11.62" fill="#F0F0F0" rx="1" transform="matrix(.9614 .27513 -.26881 .9632 104.25 10.8)"/>
  <rect width="7.96" height="1.79" fill="#F0F0F0" rx=".89" transform="matrix(.9614 .27513 -.26881 .9632 106.2 10.43)"/>
  <path stroke="#F0F0F0" d="m169.72 28.27 8.39 2.4-10.57 37.88a4.33 4.33 0 0 1-5.37 3 4.4 4.4 0 0 1-3.02-5.4l10.57-37.88Z"/>
  <rect width="11.5" height="11.62" fill="#F0F0F0" rx="1" transform="matrix(.9614 .27513 -.26881 .9632 171.4 17.07)"/>
  <rect width="7.96" height="1.79" fill="#F0F0F0" rx=".89" transform="matrix(.9614 .27513 -.26881 .9632 173.34 16.7)"/>
  <path stroke="#F0F0F0" d="m237.75 32.74 8.4 2.4-10.58 37.88a4.33 4.33 0 0 1-5.37 3 4.4 4.4 0 0 1-3.02-5.4l10.57-37.88Z"/>
  <rect width="11.5" height="11.62" fill="#F0F0F0" rx="1" transform="matrix(.9614 .27513 -.26881 .9632 239.44 21.54)"/>
  <rect width="7.96" height="1.79" fill="#F0F0F0" rx=".89" transform="matrix(.9614 .27513 -.26881 .9632 241.38 21.17)"/>
  <path stroke="#F0F0F0" d="m305.79 36.32 8.39 2.4L303.6 76.6a4.33 4.33 0 0 1-5.37 3 4.4 4.4 0 0 1-3.03-5.4l10.58-37.88Z"/>
  <rect width="11.5" height="11.62" fill="#F0F0F0" rx="1" transform="matrix(.9614 .27513 -.26881 .9632 307.47 25.12)"/>
  <rect width="7.96" height="1.79" fill="#F0F0F0" rx=".89" transform="matrix(.9614 .27513 -.26881 .9632 309.41 24.75)"/>
  <path stroke="#F0F0F0" d="m51.32 19.32 8.39 2.4L49.14 59.6a4.33 4.33 0 0 1-5.37 3 4.4 4.4 0 0 1-3.02-5.4l10.57-37.88Z"/>
  <rect width="11.5" height="11.62" fill="#F0F0F0" rx="1" transform="matrix(.9614 .27513 -.26881 .9632 53 8.12)"/>
  <rect width="7.96" height="1.79" fill="#F0F0F0" rx=".89" transform="matrix(.9614 .27513 -.26881 .9632 54.95 7.75)"/>
  <path stroke="#F0F0F0" d="m119.35 22.9 8.4 2.4-10.58 37.88a4.33 4.33 0 0 1-5.37 3 4.4 4.4 0 0 1-3.02-5.4l10.57-37.88Z"/>
  <rect width="11.5" height="11.62" fill="#F0F0F0" rx="1" transform="matrix(.9614 .27513 -.26881 .9632 121.04 11.7)"/>
  <rect width="7.96" height="1.79" fill="#F0F0F0" rx=".89" transform="matrix(.9614 .27513 -.26881 .9632 122.98 11.33)"/>
  <path stroke="#F0F0F0" d="m186.5 29.16 8.4 2.4-10.58 37.88a4.33 4.33 0 0 1-5.36 3 4.4 4.4 0 0 1-3.03-5.4l10.57-37.88Z"/>
  <rect width="11.5" height="11.62" fill="#F0F0F0" rx="1" transform="matrix(.9614 .27513 -.26881 .9632 188.2 17.97)"/>
  <rect width="7.96" height="1.79" fill="#F0F0F0" rx=".89" transform="matrix(.9614 .27513 -.26881 .9632 190.13 17.6)"/>
  <path stroke="#F0F0F0" d="m254.54 34.53 8.39 2.4-10.57 37.88a4.33 4.33 0 0 1-5.37 3 4.4 4.4 0 0 1-3.03-5.4l10.58-37.88Z"/>
  <rect width="11.5" height="11.62" fill="#F0F0F0" rx="1" transform="matrix(.9614 .27513 -.26881 .9632 256.23 23.33)"/>
  <rect width="7.96" height="1.79" fill="#F0F0F0" rx=".89" transform="matrix(.9614 .27513 -.26881 .9632 258.16 22.96)"/>
  <path stroke="#F0F0F0" d="m322.57 36.32 8.4 2.4-10.58 37.88a4.33 4.33 0 0 1-5.37 3 4.4 4.4 0 0 1-3.02-5.4l10.57-37.88Z"/>
  <rect width="11.5" height="11.62" fill="#F0F0F0" rx="1" transform="matrix(.9614 .27513 -.26881 .9632 324.26 25.12)"/>
  <rect width="7.96" height="1.79" fill="#F0F0F0" rx=".89" transform="matrix(.9614 .27513 -.26881 .9632 326.2 24.75)"/>
  <path stroke="#F0F0F0" d="m68.11 20.21 8.4 2.4L65.92 60.5a4.33 4.33 0 0 1-5.37 3 4.4 4.4 0 0 1-3.02-5.4L68.1 20.2Z"/>
  <rect width="11.5" height="11.62" fill="#F0F0F0" rx="1" transform="matrix(.9614 .27513 -.26881 .9632 69.8 9.02)"/>
  <rect width="7.96" height="1.79" fill="#F0F0F0" rx=".89" transform="matrix(.9614 .27513 -.26881 .9632 71.74 8.64)"/>
  <path stroke="#F0F0F0" d="m136.14 23.8 8.4 2.4-10.58 37.88a4.33 4.33 0 0 1-5.37 3 4.4 4.4 0 0 1-3.02-5.4l10.57-37.89Z"/>
  <rect width="11.5" height="11.62" fill="#F0F0F0" rx="1" transform="matrix(.9614 .27513 -.26881 .9632 137.83 12.6)"/>
  <rect width="7.96" height="1.79" fill="#F0F0F0" rx=".89" transform="matrix(.9614 .27513 -.26881 .9632 139.77 12.22)"/>
  <path stroke="#F0F0F0" d="m203.3 30.06 8.38 2.4-10.57 37.88a4.33 4.33 0 0 1-5.37 3 4.4 4.4 0 0 1-3.02-5.4l10.57-37.88Z"/>
  <rect width="11.5" height="11.62" fill="#F0F0F0" rx="1" transform="matrix(.9614 .27513 -.26881 .9632 204.98 18.86)"/>
  <rect width="7.96" height="1.79" fill="#F0F0F0" rx=".89" transform="matrix(.9614 .27513 -.26881 .9632 206.92 18.49)"/>
  <path stroke="#F0F0F0" d="m271.33 35.42 8.39 2.4-10.57 37.89a4.33 4.33 0 0 1-5.37 3 4.4 4.4 0 0 1-3.03-5.4l10.58-37.89Z"/>
  <rect width="11.5" height="11.62" fill="#F0F0F0" rx="1" transform="matrix(.9614 .27513 -.26881 .9632 273.01 24.23)"/>
  <rect width="7.96" height="1.79" fill="#F0F0F0" rx=".89" transform="matrix(.9614 .27513 -.26881 .9632 274.95 23.85)"/>
  <path stroke="#F0F0F0" d="m339.36 35.42 8.4 2.4-10.58 37.89a4.33 4.33 0 0 1-5.37 3 4.4 4.4 0 0 1-3.02-5.4l10.57-37.89Z"/>
  <rect width="11.5" height="11.62" fill="#F0F0F0" rx="1" transform="matrix(.9614 .27513 -.26881 .9632 341.05 24.23)"/>
  <rect width="7.96" height="1.79" fill="#F0F0F0" rx=".89" transform="matrix(.9614 .27513 -.26881 .9632 342.99 23.85)"/>
  <path stroke="#F0F0F0" stroke-linecap="round" stroke-linejoin="round" d="M1 89.58V6.35C1 3.37 3.02 1 8.23 1h347.08v88.58H32.8c-3.19 0-2.25-4.63-2.9-4.99l-14.64 4.99H1h0Z" clip-rule="evenodd"/>
  <path stroke="#F0F0F0" stroke-linecap="round" stroke-linejoin="round" d="M1 79.95V12.1c0-2.43 2.02-4.36 7.23-4.36h347.08v72.2H32.8c-3.19 0-2.25-3.77-2.9-4.05l-14.64 4.06H1h0Z" clip-rule="evenodd"/>
  <path stroke="#F0F0F0" stroke-linecap="round" stroke-linejoin="round" d="M250.36 79.95 1 63.58M355.3 23.14 124.25 7.74"/>
</svg>